%TF.GenerationSoftware,KiCad,Pcbnew,7.0.8*%
%TF.CreationDate,2024-03-13T10:59:52-04:00*%
%TF.ProjectId,INPUT,494e5055-542e-46b6-9963-61645f706362,rev?*%
%TF.SameCoordinates,Original*%
%TF.FileFunction,Copper,L2,Bot*%
%TF.FilePolarity,Positive*%
%FSLAX46Y46*%
G04 Gerber Fmt 4.6, Leading zero omitted, Abs format (unit mm)*
G04 Created by KiCad (PCBNEW 7.0.8) date 2024-03-13 10:59:52*
%MOMM*%
%LPD*%
G01*
G04 APERTURE LIST*
%TA.AperFunction,ComponentPad*%
%ADD10O,1.000000X1.700000*%
%TD*%
%TA.AperFunction,SMDPad,CuDef*%
%ADD11R,0.800000X1.000000*%
%TD*%
%TA.AperFunction,SMDPad,CuDef*%
%ADD12R,1.500000X0.700000*%
%TD*%
%TA.AperFunction,ViaPad*%
%ADD13C,0.800000*%
%TD*%
%TA.AperFunction,Conductor*%
%ADD14C,0.600000*%
%TD*%
%TA.AperFunction,Conductor*%
%ADD15C,0.300000*%
%TD*%
G04 APERTURE END LIST*
D10*
%TO.P,P1,S1,SHIELD*%
%TO.N,GND*%
X30482000Y-6467000D03*
X21842000Y-6467000D03*
X21842000Y-2667000D03*
X30482000Y-2667000D03*
%TD*%
D11*
%TO.P,SW1,*%
%TO.N,*%
X3005000Y-76350000D03*
X795000Y-83650000D03*
X3005000Y-83650000D03*
X795000Y-76350000D03*
D12*
%TO.P,SW1,1,A*%
%TO.N,VCC*%
X3655000Y-82250000D03*
%TO.P,SW1,2,B*%
%TO.N,Net-(R1-Pad1)*%
X3655000Y-79250000D03*
%TO.P,SW1,3,C*%
%TO.N,GND*%
X3655000Y-77750000D03*
%TD*%
D11*
%TO.P,SW3,*%
%TO.N,*%
X2780000Y-19650000D03*
X570000Y-19650000D03*
X570000Y-12350000D03*
X2780000Y-12350000D03*
D12*
%TO.P,SW3,1,A*%
%TO.N,VCC*%
X3430000Y-18250000D03*
%TO.P,SW3,2,B*%
%TO.N,Net-(R5-Pad1)*%
X3430000Y-15250000D03*
%TO.P,SW3,3,C*%
%TO.N,GND*%
X3430000Y-13750000D03*
%TD*%
D11*
%TO.P,SW2,*%
%TO.N,*%
X570000Y-51650000D03*
X2780000Y-51650000D03*
X570000Y-44350000D03*
X2780000Y-44350000D03*
D12*
%TO.P,SW2,1,A*%
%TO.N,VCC*%
X3430000Y-50250000D03*
%TO.P,SW2,2,B*%
%TO.N,Net-(R3-Pad1)*%
X3430000Y-47250000D03*
%TO.P,SW2,3,C*%
%TO.N,GND*%
X3430000Y-45750000D03*
%TD*%
D13*
%TO.N,GND*%
X12000000Y-55000000D03*
%TO.N,VCC*%
X5000000Y-82250000D03*
X4750000Y-20750000D03*
X5250000Y-50250000D03*
%TO.N,Net-(R1-Pad1)*%
X5500000Y-79250000D03*
%TO.N,Net-(R3-Pad1)*%
X6000000Y-47250000D03*
%TO.N,Net-(R5-Pad1)*%
X4750000Y-16000000D03*
%TD*%
D14*
%TO.N,VCC*%
X5000000Y-82250000D02*
X3655000Y-82250000D01*
X3430000Y-50250000D02*
X5250000Y-50250000D01*
X4250000Y-18250000D02*
X3430000Y-18250000D01*
X4750000Y-18750000D02*
X4250000Y-18250000D01*
X4750000Y-20750000D02*
X4750000Y-18750000D01*
D15*
%TO.N,Net-(R1-Pad1)*%
X3655000Y-79250000D02*
X5500000Y-79250000D01*
%TO.N,Net-(R3-Pad1)*%
X3430000Y-47250000D02*
X6000000Y-47250000D01*
%TO.N,Net-(R5-Pad1)*%
X4000000Y-15250000D02*
X4750000Y-16000000D01*
%TD*%
%TA.AperFunction,Conductor*%
%TO.N,GND*%
G36*
X34055773Y-914352D02*
G01*
X39085648Y-5944227D01*
X39100000Y-5978875D01*
X39100000Y-90021125D01*
X39085648Y-90055773D01*
X34055773Y-95085648D01*
X34021125Y-95100000D01*
X949000Y-95100000D01*
X914352Y-95085648D01*
X900000Y-95051000D01*
X900000Y-84453499D01*
X914352Y-84418851D01*
X948999Y-84404499D01*
X1220066Y-84404499D01*
X1294301Y-84389734D01*
X1378484Y-84333484D01*
X1434734Y-84249301D01*
X1449500Y-84175067D01*
X1449500Y-84175063D01*
X2350500Y-84175063D01*
X2365266Y-84249301D01*
X2421515Y-84333484D01*
X2455234Y-84356014D01*
X2505699Y-84389734D01*
X2579933Y-84404500D01*
X3430066Y-84404499D01*
X3504301Y-84389734D01*
X3588484Y-84333484D01*
X3644734Y-84249301D01*
X3659500Y-84175067D01*
X3659499Y-83124934D01*
X3644734Y-83050699D01*
X3626068Y-83022765D01*
X3588484Y-82966515D01*
X3555148Y-82944241D01*
X3534312Y-82913058D01*
X3541629Y-82876276D01*
X3572812Y-82855440D01*
X3582365Y-82854499D01*
X4430066Y-82854499D01*
X4504301Y-82839734D01*
X4544673Y-82812757D01*
X4571896Y-82804500D01*
X4636070Y-82804500D01*
X4658839Y-82810112D01*
X4766207Y-82866463D01*
X4920529Y-82904500D01*
X5079471Y-82904500D01*
X5233793Y-82866463D01*
X5312375Y-82825219D01*
X5374524Y-82792602D01*
X5374525Y-82792600D01*
X5374529Y-82792599D01*
X5493498Y-82687201D01*
X5583787Y-82556395D01*
X5640149Y-82407782D01*
X5659307Y-82250000D01*
X5640149Y-82092218D01*
X5583787Y-81943605D01*
X5554277Y-81900853D01*
X5493497Y-81812798D01*
X5374529Y-81707401D01*
X5374524Y-81707397D01*
X5233794Y-81633537D01*
X5079471Y-81595500D01*
X4920529Y-81595500D01*
X4766207Y-81633536D01*
X4715279Y-81660266D01*
X4658839Y-81689887D01*
X4636070Y-81695500D01*
X4571896Y-81695500D01*
X4544673Y-81687242D01*
X4504301Y-81660266D01*
X4430067Y-81645500D01*
X4430063Y-81645500D01*
X2879936Y-81645500D01*
X2805698Y-81660266D01*
X2721515Y-81716515D01*
X2665266Y-81800699D01*
X2650500Y-81874933D01*
X2650500Y-81874935D01*
X2650500Y-81874936D01*
X2650500Y-82625063D01*
X2665266Y-82699301D01*
X2721516Y-82783485D01*
X2754851Y-82805758D01*
X2775687Y-82836940D01*
X2768371Y-82873722D01*
X2737189Y-82894558D01*
X2727629Y-82895500D01*
X2579937Y-82895500D01*
X2505698Y-82910266D01*
X2421515Y-82966515D01*
X2365267Y-83050698D01*
X2365266Y-83050699D01*
X2350500Y-83124933D01*
X2350500Y-83124934D01*
X2350500Y-83124936D01*
X2350500Y-84175063D01*
X1449500Y-84175063D01*
X1449499Y-83124934D01*
X1434734Y-83050699D01*
X1416068Y-83022765D01*
X1378484Y-82966515D01*
X1298479Y-82913058D01*
X1294301Y-82910266D01*
X1220067Y-82895500D01*
X1220064Y-82895500D01*
X949000Y-82895500D01*
X914352Y-82881148D01*
X900000Y-82846500D01*
X900000Y-81585055D01*
X1194500Y-81585055D01*
X1235209Y-81750224D01*
X1300664Y-81874936D01*
X1314266Y-81900852D01*
X1352142Y-81943605D01*
X1427071Y-82028183D01*
X1567068Y-82124817D01*
X1567070Y-82124818D01*
X1726128Y-82185140D01*
X1852628Y-82200500D01*
X1852631Y-82200500D01*
X1937369Y-82200500D01*
X1937372Y-82200500D01*
X2063872Y-82185140D01*
X2222930Y-82124818D01*
X2362929Y-82028183D01*
X2475734Y-81900852D01*
X2554790Y-81750225D01*
X2595500Y-81585056D01*
X2595500Y-81414944D01*
X2554790Y-81249775D01*
X2475734Y-81099148D01*
X2362929Y-80971817D01*
X2362928Y-80971816D01*
X2222931Y-80875182D01*
X2222929Y-80875181D01*
X2108423Y-80831755D01*
X2063872Y-80814860D01*
X1937372Y-80799500D01*
X1852628Y-80799500D01*
X1726128Y-80814860D01*
X1726125Y-80814860D01*
X1726125Y-80814861D01*
X1567070Y-80875181D01*
X1567068Y-80875182D01*
X1427071Y-80971816D01*
X1337369Y-81073069D01*
X1314266Y-81099148D01*
X1314264Y-81099151D01*
X1314261Y-81099156D01*
X1235209Y-81249775D01*
X1194500Y-81414944D01*
X1194500Y-81585055D01*
X900000Y-81585055D01*
X900000Y-80000000D01*
X23444532Y-80000000D01*
X23464365Y-80226694D01*
X23464366Y-80226700D01*
X23523258Y-80446488D01*
X23523259Y-80446493D01*
X23619430Y-80652732D01*
X23619438Y-80652744D01*
X23749948Y-80839133D01*
X23749954Y-80839140D01*
X23910859Y-81000045D01*
X23910866Y-81000051D01*
X24097255Y-81130561D01*
X24097267Y-81130569D01*
X24303506Y-81226740D01*
X24303511Y-81226741D01*
X24523299Y-81285633D01*
X24523303Y-81285633D01*
X24523308Y-81285635D01*
X24638535Y-81295716D01*
X24693212Y-81300500D01*
X24693216Y-81300500D01*
X25306788Y-81300500D01*
X25357392Y-81296072D01*
X25476692Y-81285635D01*
X25476698Y-81285633D01*
X25476700Y-81285633D01*
X25610524Y-81249775D01*
X25696490Y-81226740D01*
X25696493Y-81226740D01*
X25696493Y-81226739D01*
X25696496Y-81226739D01*
X25902734Y-81130568D01*
X26089139Y-81000047D01*
X26250047Y-80839139D01*
X26380568Y-80652734D01*
X26476739Y-80446496D01*
X26535635Y-80226692D01*
X26555468Y-80000000D01*
X26535635Y-79773308D01*
X26514368Y-79693939D01*
X26476741Y-79553511D01*
X26476740Y-79553506D01*
X26380569Y-79347267D01*
X26380561Y-79347255D01*
X26250051Y-79160866D01*
X26250045Y-79160859D01*
X26089140Y-78999954D01*
X26089133Y-78999948D01*
X25902744Y-78869438D01*
X25902732Y-78869430D01*
X25696493Y-78773259D01*
X25696488Y-78773258D01*
X25476700Y-78714366D01*
X25476694Y-78714365D01*
X25306788Y-78699500D01*
X25306784Y-78699500D01*
X24693216Y-78699500D01*
X24693212Y-78699500D01*
X24523305Y-78714365D01*
X24523299Y-78714366D01*
X24303511Y-78773258D01*
X24303506Y-78773259D01*
X24097267Y-78869430D01*
X24097255Y-78869438D01*
X23910866Y-78999948D01*
X23910859Y-78999954D01*
X23749954Y-79160859D01*
X23749948Y-79160866D01*
X23619438Y-79347255D01*
X23619430Y-79347267D01*
X23523259Y-79553506D01*
X23523258Y-79553511D01*
X23464366Y-79773299D01*
X23464365Y-79773305D01*
X23444532Y-80000000D01*
X900000Y-80000000D01*
X900000Y-79625063D01*
X2650500Y-79625063D01*
X2665266Y-79699301D01*
X2721515Y-79783484D01*
X2755234Y-79806014D01*
X2805699Y-79839734D01*
X2879933Y-79854500D01*
X4430066Y-79854499D01*
X4504301Y-79839734D01*
X4588484Y-79783484D01*
X4644734Y-79699301D01*
X4645801Y-79693939D01*
X4666638Y-79662757D01*
X4693859Y-79654500D01*
X4958213Y-79654500D01*
X4992861Y-79668852D01*
X4998539Y-79675665D01*
X5006502Y-79687202D01*
X5125470Y-79792598D01*
X5125475Y-79792602D01*
X5243413Y-79854500D01*
X5266207Y-79866463D01*
X5420529Y-79904500D01*
X5579471Y-79904500D01*
X5733793Y-79866463D01*
X5812375Y-79825219D01*
X5874524Y-79792602D01*
X5874525Y-79792600D01*
X5874529Y-79792599D01*
X5993498Y-79687201D01*
X6083787Y-79556395D01*
X6140149Y-79407782D01*
X6159307Y-79250000D01*
X6140149Y-79092218D01*
X6083787Y-78943605D01*
X6054277Y-78900853D01*
X6016070Y-78845500D01*
X5993498Y-78812799D01*
X5985892Y-78806061D01*
X5874529Y-78707401D01*
X5874524Y-78707397D01*
X5733794Y-78633537D01*
X5579471Y-78595500D01*
X5420529Y-78595500D01*
X5266205Y-78633537D01*
X5125475Y-78707397D01*
X5125470Y-78707401D01*
X5006502Y-78812797D01*
X4998539Y-78824335D01*
X4967045Y-78844697D01*
X4958213Y-78845500D01*
X4693859Y-78845500D01*
X4659211Y-78831148D01*
X4645801Y-78806061D01*
X4644734Y-78800701D01*
X4644734Y-78800699D01*
X4611008Y-78750225D01*
X4588484Y-78716515D01*
X4538019Y-78682796D01*
X4504301Y-78660266D01*
X4430067Y-78645500D01*
X4430063Y-78645500D01*
X2879936Y-78645500D01*
X2805698Y-78660266D01*
X2721515Y-78716515D01*
X2665267Y-78800698D01*
X2665266Y-78800699D01*
X2650500Y-78874933D01*
X2650500Y-78874935D01*
X2650500Y-78874936D01*
X2650500Y-79625063D01*
X900000Y-79625063D01*
X900000Y-78585055D01*
X1194500Y-78585055D01*
X1235209Y-78750224D01*
X1300664Y-78874936D01*
X1314266Y-78900852D01*
X1427071Y-79028183D01*
X1567068Y-79124817D01*
X1567070Y-79124818D01*
X1726128Y-79185140D01*
X1852628Y-79200500D01*
X1852631Y-79200500D01*
X1937369Y-79200500D01*
X1937372Y-79200500D01*
X2063872Y-79185140D01*
X2222930Y-79124818D01*
X2362929Y-79028183D01*
X2475734Y-78900852D01*
X2554790Y-78750225D01*
X2595500Y-78585056D01*
X2595500Y-78414944D01*
X2554790Y-78249775D01*
X2475734Y-78099148D01*
X2362929Y-77971817D01*
X2362928Y-77971816D01*
X2222931Y-77875182D01*
X2222929Y-77875181D01*
X2222452Y-77875000D01*
X2655000Y-77875000D01*
X2655000Y-78124629D01*
X2669503Y-78197542D01*
X2724759Y-78280240D01*
X2807457Y-78335496D01*
X2880370Y-78349999D01*
X2880376Y-78350000D01*
X3530000Y-78350000D01*
X3530000Y-77875000D01*
X3780000Y-77875000D01*
X3780000Y-78350000D01*
X4429624Y-78350000D01*
X4429629Y-78349999D01*
X4502542Y-78335496D01*
X4585240Y-78280240D01*
X4640496Y-78197542D01*
X4654999Y-78124629D01*
X4655000Y-78124624D01*
X4655000Y-77875000D01*
X3780000Y-77875000D01*
X3530000Y-77875000D01*
X2655000Y-77875000D01*
X2222452Y-77875000D01*
X2108423Y-77831755D01*
X2063872Y-77814860D01*
X1937372Y-77799500D01*
X1852628Y-77799500D01*
X1726128Y-77814860D01*
X1726125Y-77814860D01*
X1726125Y-77814861D01*
X1567070Y-77875181D01*
X1567068Y-77875182D01*
X1427071Y-77971816D01*
X1337369Y-78073069D01*
X1314266Y-78099148D01*
X1314264Y-78099151D01*
X1314261Y-78099156D01*
X1235209Y-78249775D01*
X1194500Y-78414944D01*
X1194500Y-78585055D01*
X900000Y-78585055D01*
X900000Y-77153499D01*
X914352Y-77118851D01*
X948999Y-77104499D01*
X1220066Y-77104499D01*
X1294301Y-77089734D01*
X1378484Y-77033484D01*
X1434734Y-76949301D01*
X1449500Y-76875067D01*
X1449500Y-76875063D01*
X2350500Y-76875063D01*
X2365266Y-76949301D01*
X2421515Y-77033484D01*
X2455234Y-77056014D01*
X2505699Y-77089734D01*
X2579933Y-77104500D01*
X2735728Y-77104499D01*
X2770375Y-77118851D01*
X2784727Y-77153499D01*
X2770375Y-77188147D01*
X2762951Y-77194241D01*
X2724759Y-77219760D01*
X2669503Y-77302457D01*
X2655000Y-77375370D01*
X2655000Y-77625000D01*
X3530000Y-77625000D01*
X3530000Y-77150000D01*
X3780000Y-77150000D01*
X3780000Y-77625000D01*
X4655000Y-77625000D01*
X4655000Y-77375376D01*
X4654999Y-77375370D01*
X4640496Y-77302457D01*
X4585240Y-77219759D01*
X4502542Y-77164503D01*
X4429629Y-77150000D01*
X3780000Y-77150000D01*
X3530000Y-77150000D01*
X3525798Y-77145798D01*
X3511446Y-77111150D01*
X3525798Y-77076502D01*
X3533218Y-77070411D01*
X3588484Y-77033484D01*
X3644734Y-76949301D01*
X3659500Y-76875067D01*
X3659499Y-75824934D01*
X3644734Y-75750699D01*
X3626068Y-75722765D01*
X3588484Y-75666515D01*
X3538019Y-75632796D01*
X3504301Y-75610266D01*
X3430067Y-75595500D01*
X3430063Y-75595500D01*
X2579936Y-75595500D01*
X2505698Y-75610266D01*
X2421515Y-75666515D01*
X2365267Y-75750698D01*
X2365266Y-75750699D01*
X2350500Y-75824933D01*
X2350500Y-75824934D01*
X2350500Y-75824936D01*
X2350500Y-76875063D01*
X1449500Y-76875063D01*
X1449499Y-75824934D01*
X1434734Y-75750699D01*
X1416068Y-75722765D01*
X1378484Y-75666515D01*
X1328019Y-75632796D01*
X1294301Y-75610266D01*
X1220067Y-75595500D01*
X1220064Y-75595500D01*
X949000Y-75595500D01*
X914352Y-75581148D01*
X900000Y-75546500D01*
X900000Y-52453499D01*
X914352Y-52418851D01*
X948999Y-52404499D01*
X995066Y-52404499D01*
X1069301Y-52389734D01*
X1153484Y-52333484D01*
X1209734Y-52249301D01*
X1224500Y-52175067D01*
X1224500Y-52175063D01*
X2125500Y-52175063D01*
X2140266Y-52249301D01*
X2196515Y-52333484D01*
X2230234Y-52356014D01*
X2280699Y-52389734D01*
X2354933Y-52404500D01*
X3205066Y-52404499D01*
X3279301Y-52389734D01*
X3363484Y-52333484D01*
X3419734Y-52249301D01*
X3434500Y-52175067D01*
X3434499Y-51124934D01*
X3419734Y-51050699D01*
X3401068Y-51022765D01*
X3363484Y-50966515D01*
X3330148Y-50944241D01*
X3309312Y-50913058D01*
X3316629Y-50876276D01*
X3347812Y-50855440D01*
X3357365Y-50854499D01*
X4205066Y-50854499D01*
X4279301Y-50839734D01*
X4319673Y-50812757D01*
X4346896Y-50804500D01*
X4886070Y-50804500D01*
X4908839Y-50810112D01*
X5016207Y-50866463D01*
X5170529Y-50904500D01*
X5329471Y-50904500D01*
X5483793Y-50866463D01*
X5562375Y-50825219D01*
X5624524Y-50792602D01*
X5624525Y-50792600D01*
X5624529Y-50792599D01*
X5743498Y-50687201D01*
X5833787Y-50556395D01*
X5890149Y-50407782D01*
X5909307Y-50250000D01*
X5890149Y-50092218D01*
X5833787Y-49943605D01*
X5804277Y-49900853D01*
X5743497Y-49812798D01*
X5624529Y-49707401D01*
X5624524Y-49707397D01*
X5483794Y-49633537D01*
X5329471Y-49595500D01*
X5170529Y-49595500D01*
X5016207Y-49633536D01*
X4965279Y-49660266D01*
X4908839Y-49689887D01*
X4886070Y-49695500D01*
X4346896Y-49695500D01*
X4319673Y-49687242D01*
X4279301Y-49660266D01*
X4205067Y-49645500D01*
X4205063Y-49645500D01*
X2654936Y-49645500D01*
X2580698Y-49660266D01*
X2496515Y-49716515D01*
X2440266Y-49800699D01*
X2425500Y-49874933D01*
X2425500Y-49874935D01*
X2425500Y-49874936D01*
X2425500Y-50625063D01*
X2440266Y-50699301D01*
X2496516Y-50783485D01*
X2529851Y-50805758D01*
X2550687Y-50836940D01*
X2543371Y-50873722D01*
X2512189Y-50894558D01*
X2502629Y-50895500D01*
X2354937Y-50895500D01*
X2280698Y-50910266D01*
X2196515Y-50966515D01*
X2140267Y-51050698D01*
X2140266Y-51050699D01*
X2125500Y-51124933D01*
X2125500Y-51124934D01*
X2125500Y-51124936D01*
X2125500Y-52175063D01*
X1224500Y-52175063D01*
X1224499Y-51124934D01*
X1209734Y-51050699D01*
X1191068Y-51022765D01*
X1153484Y-50966515D01*
X1073479Y-50913058D01*
X1069301Y-50910266D01*
X995067Y-50895500D01*
X995064Y-50895500D01*
X949000Y-50895500D01*
X914352Y-50881148D01*
X900000Y-50846500D01*
X900000Y-49706635D01*
X914352Y-49671987D01*
X949000Y-49657635D01*
X983648Y-49671987D01*
X996576Y-49694909D01*
X1010209Y-49750224D01*
X1075664Y-49874936D01*
X1089266Y-49900852D01*
X1127142Y-49943605D01*
X1202071Y-50028183D01*
X1342068Y-50124817D01*
X1342070Y-50124818D01*
X1501128Y-50185140D01*
X1627628Y-50200500D01*
X1627631Y-50200500D01*
X1712369Y-50200500D01*
X1712372Y-50200500D01*
X1838872Y-50185140D01*
X1997930Y-50124818D01*
X2137929Y-50028183D01*
X2250734Y-49900852D01*
X2329790Y-49750225D01*
X2370500Y-49585056D01*
X2370500Y-49414944D01*
X2329790Y-49249775D01*
X2250734Y-49099148D01*
X2137929Y-48971817D01*
X2137928Y-48971816D01*
X1997931Y-48875182D01*
X1997929Y-48875181D01*
X1883423Y-48831755D01*
X1838872Y-48814860D01*
X1712372Y-48799500D01*
X1627628Y-48799500D01*
X1501128Y-48814860D01*
X1501125Y-48814860D01*
X1501125Y-48814861D01*
X1342070Y-48875181D01*
X1342068Y-48875182D01*
X1202071Y-48971816D01*
X1112369Y-49073069D01*
X1089266Y-49099148D01*
X1089264Y-49099151D01*
X1089261Y-49099156D01*
X1010209Y-49249775D01*
X996576Y-49305090D01*
X974350Y-49335297D01*
X937274Y-49340940D01*
X907067Y-49318714D01*
X900000Y-49293364D01*
X900000Y-48000000D01*
X23444532Y-48000000D01*
X23464365Y-48226694D01*
X23464366Y-48226700D01*
X23523258Y-48446488D01*
X23523259Y-48446493D01*
X23619430Y-48652732D01*
X23619438Y-48652744D01*
X23749948Y-48839133D01*
X23749954Y-48839140D01*
X23910859Y-49000045D01*
X23910866Y-49000051D01*
X24097255Y-49130561D01*
X24097267Y-49130569D01*
X24303506Y-49226740D01*
X24303511Y-49226741D01*
X24523299Y-49285633D01*
X24523303Y-49285633D01*
X24523308Y-49285635D01*
X24638535Y-49295716D01*
X24693212Y-49300500D01*
X24693216Y-49300500D01*
X25306788Y-49300500D01*
X25357392Y-49296072D01*
X25476692Y-49285635D01*
X25476698Y-49285633D01*
X25476700Y-49285633D01*
X25610524Y-49249775D01*
X25696490Y-49226740D01*
X25696493Y-49226740D01*
X25696493Y-49226739D01*
X25696496Y-49226739D01*
X25902734Y-49130568D01*
X26089139Y-49000047D01*
X26250047Y-48839139D01*
X26380568Y-48652734D01*
X26476739Y-48446496D01*
X26535635Y-48226692D01*
X26555468Y-48000000D01*
X26535635Y-47773308D01*
X26514368Y-47693939D01*
X26476741Y-47553511D01*
X26476740Y-47553506D01*
X26380569Y-47347267D01*
X26380561Y-47347255D01*
X26250051Y-47160866D01*
X26250045Y-47160859D01*
X26089140Y-46999954D01*
X26089133Y-46999948D01*
X25902744Y-46869438D01*
X25902732Y-46869430D01*
X25696493Y-46773259D01*
X25696488Y-46773258D01*
X25476700Y-46714366D01*
X25476694Y-46714365D01*
X25306788Y-46699500D01*
X25306784Y-46699500D01*
X24693216Y-46699500D01*
X24693212Y-46699500D01*
X24523305Y-46714365D01*
X24523299Y-46714366D01*
X24303511Y-46773258D01*
X24303506Y-46773259D01*
X24097267Y-46869430D01*
X24097255Y-46869438D01*
X23910866Y-46999948D01*
X23910859Y-46999954D01*
X23749954Y-47160859D01*
X23749948Y-47160866D01*
X23619438Y-47347255D01*
X23619430Y-47347267D01*
X23523259Y-47553506D01*
X23523258Y-47553511D01*
X23464366Y-47773299D01*
X23464365Y-47773305D01*
X23444532Y-48000000D01*
X900000Y-48000000D01*
X900000Y-47625063D01*
X2425500Y-47625063D01*
X2440266Y-47699301D01*
X2496515Y-47783484D01*
X2530234Y-47806014D01*
X2580699Y-47839734D01*
X2654933Y-47854500D01*
X4205066Y-47854499D01*
X4279301Y-47839734D01*
X4363484Y-47783484D01*
X4419734Y-47699301D01*
X4420801Y-47693939D01*
X4441638Y-47662757D01*
X4468859Y-47654500D01*
X5458213Y-47654500D01*
X5492861Y-47668852D01*
X5498539Y-47675665D01*
X5506502Y-47687202D01*
X5625470Y-47792598D01*
X5625475Y-47792602D01*
X5743413Y-47854500D01*
X5766207Y-47866463D01*
X5920529Y-47904500D01*
X6079471Y-47904500D01*
X6233793Y-47866463D01*
X6312375Y-47825219D01*
X6374524Y-47792602D01*
X6374525Y-47792600D01*
X6374529Y-47792599D01*
X6493498Y-47687201D01*
X6583787Y-47556395D01*
X6640149Y-47407782D01*
X6659307Y-47250000D01*
X6640149Y-47092218D01*
X6583787Y-46943605D01*
X6554277Y-46900853D01*
X6516070Y-46845500D01*
X6493498Y-46812799D01*
X6485892Y-46806061D01*
X6374529Y-46707401D01*
X6374524Y-46707397D01*
X6233794Y-46633537D01*
X6079471Y-46595500D01*
X5920529Y-46595500D01*
X5766205Y-46633537D01*
X5625475Y-46707397D01*
X5625470Y-46707401D01*
X5506502Y-46812797D01*
X5498539Y-46824335D01*
X5467045Y-46844697D01*
X5458213Y-46845500D01*
X4468859Y-46845500D01*
X4434211Y-46831148D01*
X4420801Y-46806061D01*
X4419734Y-46800701D01*
X4419734Y-46800699D01*
X4386008Y-46750225D01*
X4363484Y-46716515D01*
X4296842Y-46671987D01*
X4279301Y-46660266D01*
X4205067Y-46645500D01*
X4205063Y-46645500D01*
X2654936Y-46645500D01*
X2580698Y-46660266D01*
X2496515Y-46716515D01*
X2440267Y-46800698D01*
X2440266Y-46800699D01*
X2425500Y-46874933D01*
X2425500Y-46874935D01*
X2425500Y-46874936D01*
X2425500Y-47625063D01*
X900000Y-47625063D01*
X900000Y-46706635D01*
X914352Y-46671987D01*
X949000Y-46657635D01*
X983648Y-46671987D01*
X996576Y-46694909D01*
X1010209Y-46750224D01*
X1075664Y-46874936D01*
X1089266Y-46900852D01*
X1202071Y-47028183D01*
X1342068Y-47124817D01*
X1342070Y-47124818D01*
X1501128Y-47185140D01*
X1627628Y-47200500D01*
X1627631Y-47200500D01*
X1712369Y-47200500D01*
X1712372Y-47200500D01*
X1838872Y-47185140D01*
X1997930Y-47124818D01*
X2137929Y-47028183D01*
X2250734Y-46900852D01*
X2329790Y-46750225D01*
X2370500Y-46585056D01*
X2370500Y-46414944D01*
X2329790Y-46249775D01*
X2250734Y-46099148D01*
X2137929Y-45971817D01*
X2137928Y-45971816D01*
X1997931Y-45875182D01*
X1997929Y-45875181D01*
X1997452Y-45875000D01*
X2430000Y-45875000D01*
X2430000Y-46124629D01*
X2444503Y-46197542D01*
X2499759Y-46280240D01*
X2582457Y-46335496D01*
X2655370Y-46349999D01*
X2655376Y-46350000D01*
X3305000Y-46350000D01*
X3305000Y-45875000D01*
X3555000Y-45875000D01*
X3555000Y-46350000D01*
X4204624Y-46350000D01*
X4204629Y-46349999D01*
X4277542Y-46335496D01*
X4360240Y-46280240D01*
X4415496Y-46197542D01*
X4429999Y-46124629D01*
X4430000Y-46124624D01*
X4430000Y-45875000D01*
X3555000Y-45875000D01*
X3305000Y-45875000D01*
X2430000Y-45875000D01*
X1997452Y-45875000D01*
X1883423Y-45831755D01*
X1838872Y-45814860D01*
X1712372Y-45799500D01*
X1627628Y-45799500D01*
X1501128Y-45814860D01*
X1501125Y-45814860D01*
X1501125Y-45814861D01*
X1342070Y-45875181D01*
X1342068Y-45875182D01*
X1202071Y-45971816D01*
X1112369Y-46073069D01*
X1089266Y-46099148D01*
X1089264Y-46099151D01*
X1089261Y-46099156D01*
X1010209Y-46249775D01*
X996576Y-46305090D01*
X974350Y-46335297D01*
X937274Y-46340940D01*
X907067Y-46318714D01*
X900000Y-46293364D01*
X900000Y-45153499D01*
X914352Y-45118851D01*
X948999Y-45104499D01*
X995066Y-45104499D01*
X1069301Y-45089734D01*
X1153484Y-45033484D01*
X1209734Y-44949301D01*
X1224500Y-44875067D01*
X1224500Y-44875063D01*
X2125500Y-44875063D01*
X2140266Y-44949301D01*
X2196515Y-45033484D01*
X2230234Y-45056014D01*
X2280699Y-45089734D01*
X2354933Y-45104500D01*
X2510728Y-45104499D01*
X2545375Y-45118851D01*
X2559727Y-45153499D01*
X2545375Y-45188147D01*
X2537951Y-45194241D01*
X2499759Y-45219760D01*
X2444503Y-45302457D01*
X2430000Y-45375370D01*
X2430000Y-45625000D01*
X3305000Y-45625000D01*
X3305000Y-45150000D01*
X3555000Y-45150000D01*
X3555000Y-45625000D01*
X4430000Y-45625000D01*
X4430000Y-45375376D01*
X4429999Y-45375370D01*
X4415496Y-45302457D01*
X4360240Y-45219759D01*
X4277542Y-45164503D01*
X4204629Y-45150000D01*
X3555000Y-45150000D01*
X3305000Y-45150000D01*
X3300798Y-45145798D01*
X3286446Y-45111150D01*
X3300798Y-45076502D01*
X3308218Y-45070411D01*
X3363484Y-45033484D01*
X3419734Y-44949301D01*
X3434500Y-44875067D01*
X3434499Y-43824934D01*
X3419734Y-43750699D01*
X3401068Y-43722765D01*
X3363484Y-43666515D01*
X3313019Y-43632796D01*
X3279301Y-43610266D01*
X3205067Y-43595500D01*
X3205063Y-43595500D01*
X2354936Y-43595500D01*
X2280698Y-43610266D01*
X2196515Y-43666515D01*
X2140267Y-43750698D01*
X2140266Y-43750699D01*
X2125500Y-43824933D01*
X2125500Y-43824934D01*
X2125500Y-43824936D01*
X2125500Y-44875063D01*
X1224500Y-44875063D01*
X1224499Y-43824934D01*
X1209734Y-43750699D01*
X1191068Y-43722765D01*
X1153484Y-43666515D01*
X1103019Y-43632796D01*
X1069301Y-43610266D01*
X995067Y-43595500D01*
X995064Y-43595500D01*
X949000Y-43595500D01*
X914352Y-43581148D01*
X900000Y-43546500D01*
X900000Y-20453499D01*
X914352Y-20418851D01*
X948999Y-20404499D01*
X995066Y-20404499D01*
X1069301Y-20389734D01*
X1153484Y-20333484D01*
X1209734Y-20249301D01*
X1224500Y-20175067D01*
X1224500Y-20175063D01*
X2125500Y-20175063D01*
X2140266Y-20249301D01*
X2196515Y-20333484D01*
X2230234Y-20356014D01*
X2280699Y-20389734D01*
X2354933Y-20404500D01*
X3205066Y-20404499D01*
X3279301Y-20389734D01*
X3363484Y-20333484D01*
X3419734Y-20249301D01*
X3434500Y-20175067D01*
X3434499Y-19124934D01*
X3419734Y-19050699D01*
X3372281Y-18979681D01*
X3363484Y-18966515D01*
X3330148Y-18944241D01*
X3309312Y-18913058D01*
X3316629Y-18876276D01*
X3347812Y-18855440D01*
X3357365Y-18854499D01*
X4050022Y-18854499D01*
X4084670Y-18868851D01*
X4181148Y-18965329D01*
X4195500Y-18999977D01*
X4195500Y-20385906D01*
X4186826Y-20413741D01*
X4166213Y-20443603D01*
X4109851Y-20592216D01*
X4090693Y-20750000D01*
X4109851Y-20907783D01*
X4166213Y-21056396D01*
X4256502Y-21187201D01*
X4375470Y-21292598D01*
X4375475Y-21292602D01*
X4516205Y-21366462D01*
X4516207Y-21366463D01*
X4670529Y-21404500D01*
X4829471Y-21404500D01*
X4983793Y-21366463D01*
X5062375Y-21325219D01*
X5124524Y-21292602D01*
X5124525Y-21292600D01*
X5124529Y-21292599D01*
X5243498Y-21187201D01*
X5333787Y-21056395D01*
X5390149Y-20907782D01*
X5409307Y-20750000D01*
X5390149Y-20592218D01*
X5333787Y-20443605D01*
X5313174Y-20413741D01*
X5304500Y-20385906D01*
X5304500Y-18759476D01*
X5306779Y-18692767D01*
X5306778Y-18692766D01*
X5306779Y-18692761D01*
X5295758Y-18647537D01*
X5295294Y-18645098D01*
X5288957Y-18598991D01*
X5279170Y-18576459D01*
X5276506Y-18568539D01*
X5270689Y-18544667D01*
X5247882Y-18504104D01*
X5246766Y-18501856D01*
X5228231Y-18459184D01*
X5228230Y-18459183D01*
X5228230Y-18459182D01*
X5212722Y-18440120D01*
X5208020Y-18433211D01*
X5195984Y-18411803D01*
X5195981Y-18411800D01*
X5163072Y-18378891D01*
X5161400Y-18377038D01*
X5132035Y-18340943D01*
X5132034Y-18340942D01*
X5111960Y-18326772D01*
X5105570Y-18321389D01*
X4648788Y-17864607D01*
X4603229Y-17815825D01*
X4603225Y-17815822D01*
X4563472Y-17791647D01*
X4561397Y-17790235D01*
X4540400Y-17774313D01*
X4524321Y-17762120D01*
X4524319Y-17762119D01*
X4518016Y-17759633D01*
X4501457Y-17753103D01*
X4493980Y-17749389D01*
X4472994Y-17736627D01*
X4472985Y-17736623D01*
X4428184Y-17724069D01*
X4425807Y-17723269D01*
X4382520Y-17706201D01*
X4358075Y-17703687D01*
X4349872Y-17702128D01*
X4343745Y-17700412D01*
X4329743Y-17693971D01*
X4279301Y-17660266D01*
X4279302Y-17660266D01*
X4264454Y-17657312D01*
X4205067Y-17645500D01*
X4205063Y-17645500D01*
X2654936Y-17645500D01*
X2580698Y-17660266D01*
X2496515Y-17716515D01*
X2447258Y-17790235D01*
X2440266Y-17800699D01*
X2425500Y-17874933D01*
X2425500Y-17874935D01*
X2425500Y-17874936D01*
X2425500Y-18625063D01*
X2440266Y-18699301D01*
X2496516Y-18783485D01*
X2529851Y-18805758D01*
X2550687Y-18836940D01*
X2543371Y-18873722D01*
X2512189Y-18894558D01*
X2502629Y-18895500D01*
X2354937Y-18895500D01*
X2280698Y-18910266D01*
X2196515Y-18966515D01*
X2140267Y-19050698D01*
X2140266Y-19050699D01*
X2125500Y-19124933D01*
X2125500Y-19124934D01*
X2125500Y-19124936D01*
X2125500Y-20175063D01*
X1224500Y-20175063D01*
X1224499Y-19124934D01*
X1209734Y-19050699D01*
X1162281Y-18979681D01*
X1153484Y-18966515D01*
X1073479Y-18913058D01*
X1069301Y-18910266D01*
X995067Y-18895500D01*
X995064Y-18895500D01*
X949000Y-18895500D01*
X914352Y-18881148D01*
X900000Y-18846500D01*
X900000Y-17706635D01*
X914352Y-17671987D01*
X949000Y-17657635D01*
X983648Y-17671987D01*
X996576Y-17694909D01*
X1010209Y-17750224D01*
X1075664Y-17874936D01*
X1089266Y-17900852D01*
X1202071Y-18028183D01*
X1342068Y-18124817D01*
X1342070Y-18124818D01*
X1501128Y-18185140D01*
X1627628Y-18200500D01*
X1627631Y-18200500D01*
X1712369Y-18200500D01*
X1712372Y-18200500D01*
X1838872Y-18185140D01*
X1997930Y-18124818D01*
X2137929Y-18028183D01*
X2250734Y-17900852D01*
X2329790Y-17750225D01*
X2370500Y-17585056D01*
X2370500Y-17414944D01*
X2329790Y-17249775D01*
X2250734Y-17099148D01*
X2137929Y-16971817D01*
X2137928Y-16971816D01*
X1997931Y-16875182D01*
X1997929Y-16875181D01*
X1883423Y-16831755D01*
X1838872Y-16814860D01*
X1712372Y-16799500D01*
X1627628Y-16799500D01*
X1501128Y-16814860D01*
X1501125Y-16814860D01*
X1501125Y-16814861D01*
X1342070Y-16875181D01*
X1342068Y-16875182D01*
X1202071Y-16971816D01*
X1112369Y-17073069D01*
X1089266Y-17099148D01*
X1089264Y-17099151D01*
X1089261Y-17099156D01*
X1010209Y-17249775D01*
X996576Y-17305090D01*
X974350Y-17335297D01*
X937274Y-17340940D01*
X907067Y-17318714D01*
X900000Y-17293364D01*
X900000Y-15625063D01*
X2425500Y-15625063D01*
X2440266Y-15699301D01*
X2496515Y-15783484D01*
X2530234Y-15806014D01*
X2580699Y-15839734D01*
X2654933Y-15854500D01*
X4012153Y-15854499D01*
X4046801Y-15868851D01*
X4083269Y-15905319D01*
X4097621Y-15939967D01*
X4097264Y-15945872D01*
X4090693Y-15999999D01*
X4109851Y-16157783D01*
X4166213Y-16306396D01*
X4256502Y-16437201D01*
X4375470Y-16542598D01*
X4375475Y-16542602D01*
X4516205Y-16616462D01*
X4516207Y-16616463D01*
X4670529Y-16654500D01*
X4829471Y-16654500D01*
X4983793Y-16616463D01*
X5062375Y-16575219D01*
X5124524Y-16542602D01*
X5124525Y-16542600D01*
X5124529Y-16542599D01*
X5243498Y-16437201D01*
X5333787Y-16306395D01*
X5390149Y-16157782D01*
X5409307Y-16000001D01*
X23444533Y-16000001D01*
X23464366Y-16226695D01*
X23464367Y-16226701D01*
X23523259Y-16446489D01*
X23523260Y-16446494D01*
X23619431Y-16652733D01*
X23619439Y-16652745D01*
X23749949Y-16839134D01*
X23749955Y-16839141D01*
X23910860Y-17000046D01*
X23910867Y-17000052D01*
X24097256Y-17130562D01*
X24097268Y-17130570D01*
X24303507Y-17226741D01*
X24303512Y-17226742D01*
X24523300Y-17285634D01*
X24523304Y-17285634D01*
X24523309Y-17285636D01*
X24638536Y-17295717D01*
X24693213Y-17300501D01*
X24693217Y-17300501D01*
X25306789Y-17300501D01*
X25357393Y-17296073D01*
X25476693Y-17285636D01*
X25476699Y-17285634D01*
X25476701Y-17285634D01*
X25610529Y-17249775D01*
X25696491Y-17226741D01*
X25696494Y-17226741D01*
X25696494Y-17226740D01*
X25696497Y-17226740D01*
X25902735Y-17130569D01*
X26089140Y-17000048D01*
X26250048Y-16839140D01*
X26380569Y-16652735D01*
X26476740Y-16446497D01*
X26535636Y-16226693D01*
X26555469Y-16000001D01*
X26535636Y-15773309D01*
X26514279Y-15693605D01*
X26476742Y-15553512D01*
X26476741Y-15553507D01*
X26380570Y-15347268D01*
X26380562Y-15347256D01*
X26250052Y-15160867D01*
X26250046Y-15160860D01*
X26089141Y-14999955D01*
X26089134Y-14999949D01*
X25902745Y-14869439D01*
X25902733Y-14869431D01*
X25696494Y-14773260D01*
X25696489Y-14773259D01*
X25476701Y-14714367D01*
X25476695Y-14714366D01*
X25306789Y-14699501D01*
X25306785Y-14699501D01*
X24693217Y-14699501D01*
X24693213Y-14699501D01*
X24523306Y-14714366D01*
X24523300Y-14714367D01*
X24303512Y-14773259D01*
X24303507Y-14773260D01*
X24097268Y-14869431D01*
X24097256Y-14869439D01*
X23910867Y-14999949D01*
X23910860Y-14999955D01*
X23749955Y-15160860D01*
X23749949Y-15160867D01*
X23619439Y-15347256D01*
X23619431Y-15347268D01*
X23523260Y-15553507D01*
X23523259Y-15553512D01*
X23464367Y-15773300D01*
X23464366Y-15773306D01*
X23444533Y-16000001D01*
X5409307Y-16000001D01*
X5409307Y-16000000D01*
X5390149Y-15842218D01*
X5333787Y-15693605D01*
X5243498Y-15562799D01*
X5124529Y-15457401D01*
X5124524Y-15457397D01*
X4983794Y-15383537D01*
X4829471Y-15345500D01*
X4687846Y-15345500D01*
X4653198Y-15331148D01*
X4448851Y-15126801D01*
X4434499Y-15092153D01*
X4434499Y-14874936D01*
X4434499Y-14874934D01*
X4419734Y-14800699D01*
X4386008Y-14750225D01*
X4363484Y-14716515D01*
X4296842Y-14671987D01*
X4279301Y-14660266D01*
X4205067Y-14645500D01*
X4205063Y-14645500D01*
X2654936Y-14645500D01*
X2580698Y-14660266D01*
X2496515Y-14716515D01*
X2458601Y-14773259D01*
X2440266Y-14800699D01*
X2425500Y-14874933D01*
X2425500Y-14874934D01*
X2425500Y-14874936D01*
X2425500Y-15625063D01*
X900000Y-15625063D01*
X900000Y-14706635D01*
X914352Y-14671987D01*
X949000Y-14657635D01*
X983648Y-14671987D01*
X996576Y-14694909D01*
X1010209Y-14750224D01*
X1075663Y-14874934D01*
X1089266Y-14900852D01*
X1202071Y-15028183D01*
X1342068Y-15124817D01*
X1342070Y-15124818D01*
X1501128Y-15185140D01*
X1627628Y-15200500D01*
X1627631Y-15200500D01*
X1712369Y-15200500D01*
X1712372Y-15200500D01*
X1838872Y-15185140D01*
X1997930Y-15124818D01*
X2137929Y-15028183D01*
X2250734Y-14900852D01*
X2329790Y-14750225D01*
X2370500Y-14585056D01*
X2370500Y-14414944D01*
X2329790Y-14249775D01*
X2250734Y-14099148D01*
X2137929Y-13971817D01*
X2137928Y-13971816D01*
X1997931Y-13875182D01*
X1997929Y-13875181D01*
X1997452Y-13875000D01*
X2430000Y-13875000D01*
X2430000Y-14124629D01*
X2444503Y-14197542D01*
X2499759Y-14280240D01*
X2582457Y-14335496D01*
X2655370Y-14349999D01*
X2655376Y-14350000D01*
X3305000Y-14350000D01*
X3305000Y-13875000D01*
X3555000Y-13875000D01*
X3555000Y-14350000D01*
X4204624Y-14350000D01*
X4204629Y-14349999D01*
X4277542Y-14335496D01*
X4360240Y-14280240D01*
X4415496Y-14197542D01*
X4429999Y-14124629D01*
X4430000Y-14124624D01*
X4430000Y-13875000D01*
X3555000Y-13875000D01*
X3305000Y-13875000D01*
X2430000Y-13875000D01*
X1997452Y-13875000D01*
X1883423Y-13831755D01*
X1838872Y-13814860D01*
X1712372Y-13799500D01*
X1627628Y-13799500D01*
X1501128Y-13814860D01*
X1501125Y-13814860D01*
X1501125Y-13814861D01*
X1342070Y-13875181D01*
X1342068Y-13875182D01*
X1202071Y-13971816D01*
X1112369Y-14073069D01*
X1089266Y-14099148D01*
X1089264Y-14099151D01*
X1089261Y-14099156D01*
X1010209Y-14249775D01*
X996576Y-14305090D01*
X974350Y-14335297D01*
X937274Y-14340940D01*
X907067Y-14318714D01*
X900000Y-14293364D01*
X900000Y-13153499D01*
X914352Y-13118851D01*
X948999Y-13104499D01*
X995066Y-13104499D01*
X1069301Y-13089734D01*
X1153484Y-13033484D01*
X1209734Y-12949301D01*
X1224500Y-12875067D01*
X1224500Y-12875063D01*
X2125500Y-12875063D01*
X2140266Y-12949301D01*
X2196515Y-13033484D01*
X2230234Y-13056014D01*
X2280699Y-13089734D01*
X2354933Y-13104500D01*
X2510728Y-13104499D01*
X2545375Y-13118851D01*
X2559727Y-13153499D01*
X2545375Y-13188147D01*
X2537951Y-13194241D01*
X2499759Y-13219760D01*
X2444503Y-13302457D01*
X2430000Y-13375370D01*
X2430000Y-13625000D01*
X3305000Y-13625000D01*
X3305000Y-13150000D01*
X3555000Y-13150000D01*
X3555000Y-13625000D01*
X4430000Y-13625000D01*
X4430000Y-13375376D01*
X4429999Y-13375370D01*
X4415496Y-13302457D01*
X4360240Y-13219759D01*
X4277542Y-13164503D01*
X4204629Y-13150000D01*
X3555000Y-13150000D01*
X3305000Y-13150000D01*
X3300798Y-13145798D01*
X3286446Y-13111150D01*
X3300798Y-13076502D01*
X3308218Y-13070411D01*
X3363484Y-13033484D01*
X3419734Y-12949301D01*
X3434500Y-12875067D01*
X3434499Y-11824934D01*
X3419734Y-11750699D01*
X3401068Y-11722765D01*
X3363484Y-11666515D01*
X3313019Y-11632796D01*
X3279301Y-11610266D01*
X3205067Y-11595500D01*
X3205063Y-11595500D01*
X2354936Y-11595500D01*
X2280698Y-11610266D01*
X2196515Y-11666515D01*
X2140267Y-11750698D01*
X2140266Y-11750699D01*
X2125500Y-11824933D01*
X2125500Y-11824934D01*
X2125500Y-11824936D01*
X2125500Y-12875063D01*
X1224500Y-12875063D01*
X1224499Y-11824934D01*
X1209734Y-11750699D01*
X1191068Y-11722765D01*
X1153484Y-11666515D01*
X1103019Y-11632796D01*
X1069301Y-11610266D01*
X995067Y-11595500D01*
X995064Y-11595500D01*
X949000Y-11595500D01*
X914352Y-11581148D01*
X900000Y-11546500D01*
X900000Y-6860678D01*
X21092000Y-6860678D01*
X21107248Y-6991140D01*
X21107249Y-6991141D01*
X21167211Y-7155886D01*
X21167213Y-7155890D01*
X21263554Y-7302371D01*
X21263558Y-7302376D01*
X21391076Y-7422683D01*
X21391083Y-7422688D01*
X21542915Y-7510348D01*
X21542926Y-7510352D01*
X21710874Y-7560633D01*
X21710884Y-7560635D01*
X21716999Y-7560990D01*
X21717000Y-7560989D01*
X21717000Y-7034150D01*
X21744455Y-7052495D01*
X21842000Y-7071898D01*
X21939545Y-7052495D01*
X21967000Y-7034150D01*
X21967000Y-7556528D01*
X22058565Y-7540383D01*
X22058566Y-7540383D01*
X22219553Y-7470940D01*
X22219554Y-7470940D01*
X22360185Y-7366243D01*
X22472882Y-7231937D01*
X22472882Y-7231936D01*
X22551567Y-7075262D01*
X22551568Y-7075260D01*
X22592000Y-6904661D01*
X22592000Y-6860678D01*
X29732000Y-6860678D01*
X29747248Y-6991140D01*
X29747249Y-6991141D01*
X29807211Y-7155886D01*
X29807213Y-7155890D01*
X29903554Y-7302371D01*
X29903558Y-7302376D01*
X30031076Y-7422683D01*
X30031083Y-7422688D01*
X30182915Y-7510348D01*
X30182926Y-7510352D01*
X30350874Y-7560633D01*
X30350884Y-7560635D01*
X30356999Y-7560990D01*
X30357000Y-7560989D01*
X30357000Y-7034150D01*
X30384455Y-7052495D01*
X30482000Y-7071898D01*
X30579545Y-7052495D01*
X30607000Y-7034150D01*
X30607000Y-7556528D01*
X30698565Y-7540383D01*
X30698566Y-7540383D01*
X30859553Y-7470940D01*
X30859554Y-7470940D01*
X31000185Y-7366243D01*
X31112882Y-7231937D01*
X31112882Y-7231936D01*
X31191567Y-7075262D01*
X31191568Y-7075260D01*
X31232000Y-6904661D01*
X31232000Y-6592000D01*
X30732000Y-6592000D01*
X30732000Y-6342000D01*
X31232000Y-6342000D01*
X31232000Y-6073321D01*
X31216751Y-5942859D01*
X31216750Y-5942858D01*
X31156788Y-5778113D01*
X31156786Y-5778109D01*
X31060445Y-5631628D01*
X31060441Y-5631623D01*
X30932923Y-5511316D01*
X30932916Y-5511311D01*
X30781084Y-5423651D01*
X30781075Y-5423647D01*
X30613129Y-5373367D01*
X30613119Y-5373365D01*
X30607000Y-5373009D01*
X30607000Y-5899849D01*
X30579545Y-5881505D01*
X30482000Y-5862102D01*
X30384455Y-5881505D01*
X30357000Y-5899849D01*
X30357000Y-5377470D01*
X30265433Y-5393616D01*
X30104446Y-5463059D01*
X30104445Y-5463059D01*
X29963814Y-5567756D01*
X29851117Y-5702062D01*
X29851117Y-5702063D01*
X29772432Y-5858737D01*
X29772431Y-5858739D01*
X29732000Y-6029338D01*
X29732000Y-6342000D01*
X30232000Y-6342000D01*
X30232000Y-6592000D01*
X29732000Y-6592000D01*
X29732000Y-6860678D01*
X22592000Y-6860678D01*
X22592000Y-6592000D01*
X22092000Y-6592000D01*
X22092000Y-6342000D01*
X22592000Y-6342000D01*
X22592000Y-6073321D01*
X22576751Y-5942859D01*
X22576750Y-5942858D01*
X22516788Y-5778113D01*
X22516786Y-5778109D01*
X22420445Y-5631628D01*
X22420441Y-5631623D01*
X22292923Y-5511316D01*
X22292916Y-5511311D01*
X22141084Y-5423651D01*
X22141075Y-5423647D01*
X21973129Y-5373367D01*
X21973119Y-5373365D01*
X21967000Y-5373009D01*
X21967000Y-5899849D01*
X21939545Y-5881505D01*
X21842000Y-5862102D01*
X21744455Y-5881505D01*
X21717000Y-5899849D01*
X21717000Y-5377470D01*
X21625433Y-5393616D01*
X21464446Y-5463059D01*
X21464445Y-5463059D01*
X21323814Y-5567756D01*
X21211117Y-5702062D01*
X21211117Y-5702063D01*
X21132432Y-5858737D01*
X21132431Y-5858739D01*
X21092000Y-6029338D01*
X21092000Y-6342000D01*
X21592000Y-6342000D01*
X21592000Y-6592000D01*
X21092000Y-6592000D01*
X21092000Y-6860678D01*
X900000Y-6860678D01*
X900000Y-3060678D01*
X21092000Y-3060678D01*
X21107248Y-3191140D01*
X21107249Y-3191141D01*
X21167211Y-3355886D01*
X21167213Y-3355890D01*
X21263554Y-3502371D01*
X21263558Y-3502376D01*
X21391076Y-3622683D01*
X21391083Y-3622688D01*
X21542915Y-3710348D01*
X21542926Y-3710352D01*
X21710874Y-3760633D01*
X21710884Y-3760635D01*
X21716999Y-3760990D01*
X21717000Y-3760989D01*
X21717000Y-3234150D01*
X21744455Y-3252495D01*
X21842000Y-3271898D01*
X21939545Y-3252495D01*
X21967000Y-3234150D01*
X21967000Y-3756528D01*
X22058565Y-3740383D01*
X22058566Y-3740383D01*
X22219553Y-3670940D01*
X22219554Y-3670940D01*
X22360185Y-3566243D01*
X22472882Y-3431937D01*
X22472882Y-3431936D01*
X22551567Y-3275262D01*
X22551568Y-3275260D01*
X22592000Y-3104661D01*
X22592000Y-3060678D01*
X29732000Y-3060678D01*
X29747248Y-3191140D01*
X29747249Y-3191141D01*
X29807211Y-3355886D01*
X29807213Y-3355890D01*
X29903554Y-3502371D01*
X29903558Y-3502376D01*
X30031076Y-3622683D01*
X30031083Y-3622688D01*
X30182915Y-3710348D01*
X30182926Y-3710352D01*
X30350874Y-3760633D01*
X30350884Y-3760635D01*
X30356999Y-3760990D01*
X30357000Y-3760989D01*
X30357000Y-3234150D01*
X30384455Y-3252495D01*
X30482000Y-3271898D01*
X30579545Y-3252495D01*
X30607000Y-3234150D01*
X30607000Y-3756528D01*
X30698565Y-3740383D01*
X30698566Y-3740383D01*
X30859553Y-3670940D01*
X30859554Y-3670940D01*
X31000185Y-3566243D01*
X31112882Y-3431937D01*
X31112882Y-3431936D01*
X31191567Y-3275262D01*
X31191568Y-3275260D01*
X31232000Y-3104661D01*
X31232000Y-2792000D01*
X30732000Y-2792000D01*
X30732000Y-2542000D01*
X31232000Y-2542000D01*
X31232000Y-2273321D01*
X31216751Y-2142859D01*
X31216750Y-2142858D01*
X31156788Y-1978113D01*
X31156786Y-1978109D01*
X31060445Y-1831628D01*
X31060441Y-1831623D01*
X30932923Y-1711316D01*
X30932916Y-1711311D01*
X30781084Y-1623651D01*
X30781075Y-1623647D01*
X30613129Y-1573367D01*
X30613119Y-1573365D01*
X30607000Y-1573009D01*
X30607000Y-2099849D01*
X30579545Y-2081505D01*
X30482000Y-2062102D01*
X30384455Y-2081505D01*
X30357000Y-2099849D01*
X30357000Y-1577470D01*
X30265433Y-1593616D01*
X30104446Y-1663059D01*
X30104445Y-1663059D01*
X29963814Y-1767756D01*
X29851117Y-1902062D01*
X29851117Y-1902063D01*
X29772432Y-2058737D01*
X29772431Y-2058739D01*
X29732000Y-2229338D01*
X29732000Y-2542000D01*
X30232000Y-2542000D01*
X30232000Y-2792000D01*
X29732000Y-2792000D01*
X29732000Y-3060678D01*
X22592000Y-3060678D01*
X22592000Y-2792000D01*
X22092000Y-2792000D01*
X22092000Y-2542000D01*
X22592000Y-2542000D01*
X22592000Y-2273321D01*
X22576751Y-2142859D01*
X22576750Y-2142858D01*
X22516788Y-1978113D01*
X22516786Y-1978109D01*
X22420445Y-1831628D01*
X22420441Y-1831623D01*
X22292923Y-1711316D01*
X22292916Y-1711311D01*
X22141084Y-1623651D01*
X22141075Y-1623647D01*
X21973129Y-1573367D01*
X21973119Y-1573365D01*
X21967000Y-1573009D01*
X21967000Y-2099849D01*
X21939545Y-2081505D01*
X21842000Y-2062102D01*
X21744455Y-2081505D01*
X21717000Y-2099849D01*
X21717000Y-1577470D01*
X21625433Y-1593616D01*
X21464446Y-1663059D01*
X21464445Y-1663059D01*
X21323814Y-1767756D01*
X21211117Y-1902062D01*
X21211117Y-1902063D01*
X21132432Y-2058737D01*
X21132431Y-2058739D01*
X21092000Y-2229338D01*
X21092000Y-2542000D01*
X21592000Y-2542000D01*
X21592000Y-2792000D01*
X21092000Y-2792000D01*
X21092000Y-3060678D01*
X900000Y-3060678D01*
X900000Y-949000D01*
X914352Y-914352D01*
X949000Y-900000D01*
X34021125Y-900000D01*
X34055773Y-914352D01*
G37*
%TD.AperFunction*%
%TD*%
M02*
