%TF.GenerationSoftware,KiCad,Pcbnew,7.0.8*%
%TF.CreationDate,2024-03-13T10:59:52-04:00*%
%TF.ProjectId,INPUT,494e5055-542e-46b6-9963-61645f706362,rev?*%
%TF.SameCoordinates,Original*%
%TF.FileFunction,Paste,Top*%
%TF.FilePolarity,Positive*%
%FSLAX46Y46*%
G04 Gerber Fmt 4.6, Leading zero omitted, Abs format (unit mm)*
G04 Created by KiCad (PCBNEW 7.0.8) date 2024-03-13 10:59:52*
%MOMM*%
%LPD*%
G01*
G04 APERTURE LIST*
G04 Aperture macros list*
%AMRoundRect*
0 Rectangle with rounded corners*
0 $1 Rounding radius*
0 $2 $3 $4 $5 $6 $7 $8 $9 X,Y pos of 4 corners*
0 Add a 4 corners polygon primitive as box body*
4,1,4,$2,$3,$4,$5,$6,$7,$8,$9,$2,$3,0*
0 Add four circle primitives for the rounded corners*
1,1,$1+$1,$2,$3*
1,1,$1+$1,$4,$5*
1,1,$1+$1,$6,$7*
1,1,$1+$1,$8,$9*
0 Add four rect primitives between the rounded corners*
20,1,$1+$1,$2,$3,$4,$5,0*
20,1,$1+$1,$4,$5,$6,$7,0*
20,1,$1+$1,$6,$7,$8,$9,0*
20,1,$1+$1,$8,$9,$2,$3,0*%
G04 Aperture macros list end*
%ADD10RoundRect,0.200000X-0.200000X-0.275000X0.200000X-0.275000X0.200000X0.275000X-0.200000X0.275000X0*%
%ADD11RoundRect,0.300000X-0.500000X0.450000X-0.500000X-0.450000X0.500000X-0.450000X0.500000X0.450000X0*%
%ADD12RoundRect,0.750000X1.350000X-0.750000X1.350000X0.750000X-1.350000X0.750000X-1.350000X-0.750000X0*%
%ADD13RoundRect,0.200000X0.600000X-0.200000X0.600000X0.200000X-0.600000X0.200000X-0.600000X-0.200000X0*%
%ADD14RoundRect,0.250001X1.249998X-0.799999X1.249998X0.799999X-1.249998X0.799999X-1.249998X-0.799999X0*%
%ADD15RoundRect,0.225000X0.250000X-0.225000X0.250000X0.225000X-0.250000X0.225000X-0.250000X-0.225000X0*%
%ADD16RoundRect,0.200000X0.200000X0.275000X-0.200000X0.275000X-0.200000X-0.275000X0.200000X-0.275000X0*%
%ADD17R,0.700000X1.600000*%
%ADD18R,0.800000X1.600000*%
%ADD19R,0.900000X1.600000*%
G04 APERTURE END LIST*
D10*
%TO.C,R5*%
X20175001Y-18249999D03*
X21825001Y-18249999D03*
%TD*%
D11*
%TO.C,D1*%
X25000000Y-78200000D03*
X25000000Y-81800000D03*
%TD*%
D12*
%TO.C,BT1*%
X12000000Y-33500000D03*
X12000000Y-62500000D03*
%TD*%
D10*
%TO.C,R3*%
X24175000Y-54250000D03*
X25825000Y-54250000D03*
%TD*%
D13*
%TO.C,J4*%
X34850000Y-55250000D03*
X34850000Y-54000000D03*
X34850000Y-52750000D03*
D14*
X37749988Y-50200001D03*
X37749988Y-57800011D03*
%TD*%
D10*
%TO.C,R6*%
X20175000Y-16000000D03*
X21825000Y-16000000D03*
%TD*%
D15*
%TO.C,C1*%
X27750000Y-80775000D03*
X27750000Y-79225000D03*
%TD*%
D16*
%TO.C,R8*%
X28825000Y-10500000D03*
X27175000Y-10500000D03*
%TD*%
D13*
%TO.C,J6*%
X34850000Y-23250000D03*
X34850000Y-22000000D03*
X34850000Y-20750000D03*
D14*
X37749988Y-25799999D03*
X37749988Y-18199999D03*
%TD*%
D10*
%TO.C,R1*%
X20175000Y-82250000D03*
X21825000Y-82250000D03*
%TD*%
D13*
%TO.C,J3*%
X34850000Y-43250000D03*
X34850000Y-42000000D03*
X34850000Y-40750000D03*
D14*
X37749988Y-45800010D03*
X37749988Y-38200000D03*
%TD*%
D11*
%TO.C,D3*%
X25000001Y-14200001D03*
X25000001Y-17800001D03*
%TD*%
D17*
%TO.C,P1*%
X26662000Y-6667000D03*
D18*
X24642000Y-6667000D03*
D19*
X23412000Y-6667000D03*
D17*
X25662000Y-6667000D03*
D18*
X27682000Y-6667000D03*
D19*
X28912000Y-6667000D03*
%TD*%
D13*
%TO.C,J1*%
X34850000Y-75250000D03*
X34850000Y-74000000D03*
X34850000Y-72750000D03*
D14*
X37749988Y-70200012D03*
X37749988Y-77799997D03*
%TD*%
D15*
%TO.C,C3*%
X27750000Y-16775000D03*
X27750000Y-15225000D03*
%TD*%
D10*
%TO.C,R4*%
X24175000Y-52500000D03*
X25825000Y-52500000D03*
%TD*%
D13*
%TO.C,J2*%
X34850000Y-87250000D03*
X34850000Y-86000000D03*
X34850000Y-84750000D03*
D14*
X37749988Y-82199988D03*
X37749988Y-89799998D03*
%TD*%
D10*
%TO.C,R2*%
X20175000Y-80000000D03*
X21825000Y-80000000D03*
%TD*%
D13*
%TO.C,J5*%
X34850000Y-11250000D03*
X34850000Y-10000000D03*
X34850000Y-8750000D03*
D14*
X37749988Y-6200000D03*
X37749988Y-13800000D03*
%TD*%
D10*
%TO.C,R7*%
X23675000Y-10500000D03*
X25325000Y-10500000D03*
%TD*%
D11*
%TO.C,D2*%
X25000000Y-46200000D03*
X25000000Y-49800000D03*
%TD*%
D15*
%TO.C,C2*%
X27750000Y-48775000D03*
X27750000Y-47225000D03*
%TD*%
M02*
