%TF.GenerationSoftware,KiCad,Pcbnew,7.0.8*%
%TF.CreationDate,2024-03-13T10:59:52-04:00*%
%TF.ProjectId,INPUT,494e5055-542e-46b6-9963-61645f706362,rev?*%
%TF.SameCoordinates,Original*%
%TF.FileFunction,Legend,Top*%
%TF.FilePolarity,Positive*%
%FSLAX46Y46*%
G04 Gerber Fmt 4.6, Leading zero omitted, Abs format (unit mm)*
G04 Created by KiCad (PCBNEW 7.0.8) date 2024-03-13 10:59:52*
%MOMM*%
%LPD*%
G01*
G04 APERTURE LIST*
G04 Aperture macros list*
%AMRoundRect*
0 Rectangle with rounded corners*
0 $1 Rounding radius*
0 $2 $3 $4 $5 $6 $7 $8 $9 X,Y pos of 4 corners*
0 Add a 4 corners polygon primitive as box body*
4,1,4,$2,$3,$4,$5,$6,$7,$8,$9,$2,$3,0*
0 Add four circle primitives for the rounded corners*
1,1,$1+$1,$2,$3*
1,1,$1+$1,$4,$5*
1,1,$1+$1,$6,$7*
1,1,$1+$1,$8,$9*
0 Add four rect primitives between the rounded corners*
20,1,$1+$1,$2,$3,$4,$5,0*
20,1,$1+$1,$4,$5,$6,$7,0*
20,1,$1+$1,$6,$7,$8,$9,0*
20,1,$1+$1,$8,$9,$2,$3,0*%
G04 Aperture macros list end*
%ADD10C,0.100000*%
%ADD11C,0.142240*%
%ADD12C,0.150000*%
%ADD13C,0.120000*%
%ADD14RoundRect,0.200000X-0.200000X-0.275000X0.200000X-0.275000X0.200000X0.275000X-0.200000X0.275000X0*%
%ADD15O,2.600000X2.100000*%
%ADD16RoundRect,0.300000X-0.500000X0.450000X-0.500000X-0.450000X0.500000X-0.450000X0.500000X0.450000X0*%
%ADD17RoundRect,0.750000X1.350000X-0.750000X1.350000X0.750000X-1.350000X0.750000X-1.350000X-0.750000X0*%
%ADD18RoundRect,0.200000X0.600000X-0.200000X0.600000X0.200000X-0.600000X0.200000X-0.600000X-0.200000X0*%
%ADD19RoundRect,0.250001X1.249998X-0.799999X1.249998X0.799999X-1.249998X0.799999X-1.249998X-0.799999X0*%
%ADD20RoundRect,0.225000X0.250000X-0.225000X0.250000X0.225000X-0.250000X0.225000X-0.250000X-0.225000X0*%
%ADD21RoundRect,0.200000X0.200000X0.275000X-0.200000X0.275000X-0.200000X-0.275000X0.200000X-0.275000X0*%
%ADD22R,0.700000X1.600000*%
%ADD23R,0.800000X1.600000*%
%ADD24R,0.900000X1.600000*%
%ADD25O,1.000000X1.700000*%
%ADD26C,0.900000*%
G04 APERTURE END LIST*
D10*
X20000000Y-10000000D02*
G75*
G03*
X20000000Y-10000000I-9000000J0D01*
G01*
X20000000Y-86000000D02*
G75*
G03*
X20000000Y-86000000I-9000000J0D01*
G01*
D11*
X9906657Y-93049595D02*
X11075057Y-93049595D01*
X11075057Y-93049595D02*
X11308737Y-93127488D01*
X11308737Y-93127488D02*
X11464524Y-93283275D01*
X11464524Y-93283275D02*
X11542417Y-93516955D01*
X11542417Y-93516955D02*
X11542417Y-93672742D01*
X11542417Y-91491729D02*
X11542417Y-92270662D01*
X11542417Y-92270662D02*
X9906657Y-92270662D01*
X11386630Y-90011755D02*
X11464524Y-90089648D01*
X11464524Y-90089648D02*
X11542417Y-90323328D01*
X11542417Y-90323328D02*
X11542417Y-90479115D01*
X11542417Y-90479115D02*
X11464524Y-90712795D01*
X11464524Y-90712795D02*
X11308737Y-90868582D01*
X11308737Y-90868582D02*
X11152950Y-90946475D01*
X11152950Y-90946475D02*
X10841377Y-91024368D01*
X10841377Y-91024368D02*
X10607697Y-91024368D01*
X10607697Y-91024368D02*
X10296124Y-90946475D01*
X10296124Y-90946475D02*
X10140337Y-90868582D01*
X10140337Y-90868582D02*
X9984550Y-90712795D01*
X9984550Y-90712795D02*
X9906657Y-90479115D01*
X9906657Y-90479115D02*
X9906657Y-90323328D01*
X9906657Y-90323328D02*
X9984550Y-90089648D01*
X9984550Y-90089648D02*
X10062444Y-90011755D01*
X9906657Y-88843355D02*
X11075057Y-88843355D01*
X11075057Y-88843355D02*
X11308737Y-88921248D01*
X11308737Y-88921248D02*
X11464524Y-89077035D01*
X11464524Y-89077035D02*
X11542417Y-89310715D01*
X11542417Y-89310715D02*
X11542417Y-89466502D01*
X11542417Y-87285489D02*
X11542417Y-88064422D01*
X11542417Y-88064422D02*
X9906657Y-88064422D01*
X11386630Y-85805515D02*
X11464524Y-85883408D01*
X11464524Y-85883408D02*
X11542417Y-86117088D01*
X11542417Y-86117088D02*
X11542417Y-86272875D01*
X11542417Y-86272875D02*
X11464524Y-86506555D01*
X11464524Y-86506555D02*
X11308737Y-86662342D01*
X11308737Y-86662342D02*
X11152950Y-86740235D01*
X11152950Y-86740235D02*
X10841377Y-86818128D01*
X10841377Y-86818128D02*
X10607697Y-86818128D01*
X10607697Y-86818128D02*
X10296124Y-86740235D01*
X10296124Y-86740235D02*
X10140337Y-86662342D01*
X10140337Y-86662342D02*
X9984550Y-86506555D01*
X9984550Y-86506555D02*
X9906657Y-86272875D01*
X9906657Y-86272875D02*
X9906657Y-86117088D01*
X9906657Y-86117088D02*
X9984550Y-85883408D01*
X9984550Y-85883408D02*
X10062444Y-85805515D01*
X9906657Y-84637115D02*
X11075057Y-84637115D01*
X11075057Y-84637115D02*
X11308737Y-84715008D01*
X11308737Y-84715008D02*
X11464524Y-84870795D01*
X11464524Y-84870795D02*
X11542417Y-85104475D01*
X11542417Y-85104475D02*
X11542417Y-85260262D01*
X11542417Y-83079249D02*
X11542417Y-83858182D01*
X11542417Y-83858182D02*
X9906657Y-83858182D01*
X11386630Y-81599275D02*
X11464524Y-81677168D01*
X11464524Y-81677168D02*
X11542417Y-81910848D01*
X11542417Y-81910848D02*
X11542417Y-82066635D01*
X11542417Y-82066635D02*
X11464524Y-82300315D01*
X11464524Y-82300315D02*
X11308737Y-82456102D01*
X11308737Y-82456102D02*
X11152950Y-82533995D01*
X11152950Y-82533995D02*
X10841377Y-82611888D01*
X10841377Y-82611888D02*
X10607697Y-82611888D01*
X10607697Y-82611888D02*
X10296124Y-82533995D01*
X10296124Y-82533995D02*
X10140337Y-82456102D01*
X10140337Y-82456102D02*
X9984550Y-82300315D01*
X9984550Y-82300315D02*
X9906657Y-82066635D01*
X9906657Y-82066635D02*
X9906657Y-81910848D01*
X9906657Y-81910848D02*
X9984550Y-81677168D01*
X9984550Y-81677168D02*
X10062444Y-81599275D01*
X9906657Y-80430875D02*
X11075057Y-80430875D01*
X11075057Y-80430875D02*
X11308737Y-80508768D01*
X11308737Y-80508768D02*
X11464524Y-80664555D01*
X11464524Y-80664555D02*
X11542417Y-80898235D01*
X11542417Y-80898235D02*
X11542417Y-81054022D01*
X11542417Y-78873009D02*
X11542417Y-79651942D01*
X11542417Y-79651942D02*
X9906657Y-79651942D01*
X11386630Y-77393035D02*
X11464524Y-77470928D01*
X11464524Y-77470928D02*
X11542417Y-77704608D01*
X11542417Y-77704608D02*
X11542417Y-77860395D01*
X11542417Y-77860395D02*
X11464524Y-78094075D01*
X11464524Y-78094075D02*
X11308737Y-78249862D01*
X11308737Y-78249862D02*
X11152950Y-78327755D01*
X11152950Y-78327755D02*
X10841377Y-78405648D01*
X10841377Y-78405648D02*
X10607697Y-78405648D01*
X10607697Y-78405648D02*
X10296124Y-78327755D01*
X10296124Y-78327755D02*
X10140337Y-78249862D01*
X10140337Y-78249862D02*
X9984550Y-78094075D01*
X9984550Y-78094075D02*
X9906657Y-77860395D01*
X9906657Y-77860395D02*
X9906657Y-77704608D01*
X9906657Y-77704608D02*
X9984550Y-77470928D01*
X9984550Y-77470928D02*
X10062444Y-77393035D01*
X30488022Y-30974730D02*
X31266955Y-30974730D01*
X31266955Y-30974730D02*
X31266955Y-32610490D01*
X29709088Y-30974730D02*
X29864875Y-31052624D01*
X29864875Y-31052624D02*
X29942768Y-31130517D01*
X29942768Y-31130517D02*
X30020661Y-31286304D01*
X30020661Y-31286304D02*
X30020661Y-31753664D01*
X30020661Y-31753664D02*
X29942768Y-31909450D01*
X29942768Y-31909450D02*
X29864875Y-31987344D01*
X29864875Y-31987344D02*
X29709088Y-32065237D01*
X29709088Y-32065237D02*
X29475408Y-32065237D01*
X29475408Y-32065237D02*
X29319621Y-31987344D01*
X29319621Y-31987344D02*
X29241728Y-31909450D01*
X29241728Y-31909450D02*
X29163835Y-31753664D01*
X29163835Y-31753664D02*
X29163835Y-31286304D01*
X29163835Y-31286304D02*
X29241728Y-31130517D01*
X29241728Y-31130517D02*
X29319621Y-31052624D01*
X29319621Y-31052624D02*
X29475408Y-30974730D01*
X29475408Y-30974730D02*
X29709088Y-30974730D01*
X27761755Y-32065237D02*
X27761755Y-30741050D01*
X27761755Y-30741050D02*
X27839648Y-30585264D01*
X27839648Y-30585264D02*
X27917542Y-30507370D01*
X27917542Y-30507370D02*
X28073328Y-30429477D01*
X28073328Y-30429477D02*
X28307008Y-30429477D01*
X28307008Y-30429477D02*
X28462795Y-30507370D01*
X27761755Y-31052624D02*
X27917542Y-30974730D01*
X27917542Y-30974730D02*
X28229115Y-30974730D01*
X28229115Y-30974730D02*
X28384902Y-31052624D01*
X28384902Y-31052624D02*
X28462795Y-31130517D01*
X28462795Y-31130517D02*
X28540688Y-31286304D01*
X28540688Y-31286304D02*
X28540688Y-31753664D01*
X28540688Y-31753664D02*
X28462795Y-31909450D01*
X28462795Y-31909450D02*
X28384902Y-31987344D01*
X28384902Y-31987344D02*
X28229115Y-32065237D01*
X28229115Y-32065237D02*
X27917542Y-32065237D01*
X27917542Y-32065237D02*
X27761755Y-31987344D01*
X26982822Y-30974730D02*
X26982822Y-32065237D01*
X26982822Y-32610490D02*
X27060715Y-32532597D01*
X27060715Y-32532597D02*
X26982822Y-32454704D01*
X26982822Y-32454704D02*
X26904929Y-32532597D01*
X26904929Y-32532597D02*
X26982822Y-32610490D01*
X26982822Y-32610490D02*
X26982822Y-32454704D01*
X25502849Y-31052624D02*
X25658636Y-30974730D01*
X25658636Y-30974730D02*
X25970209Y-30974730D01*
X25970209Y-30974730D02*
X26125996Y-31052624D01*
X26125996Y-31052624D02*
X26203889Y-31130517D01*
X26203889Y-31130517D02*
X26281782Y-31286304D01*
X26281782Y-31286304D02*
X26281782Y-31753664D01*
X26281782Y-31753664D02*
X26203889Y-31909450D01*
X26203889Y-31909450D02*
X26125996Y-31987344D01*
X26125996Y-31987344D02*
X25970209Y-32065237D01*
X25970209Y-32065237D02*
X25658636Y-32065237D01*
X25658636Y-32065237D02*
X25502849Y-31987344D01*
X24256556Y-31831557D02*
X24022876Y-31753664D01*
X24022876Y-31753664D02*
X23944982Y-31675770D01*
X23944982Y-31675770D02*
X23867089Y-31519984D01*
X23867089Y-31519984D02*
X23867089Y-31286304D01*
X23867089Y-31286304D02*
X23944982Y-31130517D01*
X23944982Y-31130517D02*
X24022876Y-31052624D01*
X24022876Y-31052624D02*
X24178662Y-30974730D01*
X24178662Y-30974730D02*
X24801809Y-30974730D01*
X24801809Y-30974730D02*
X24801809Y-32610490D01*
X24801809Y-32610490D02*
X24256556Y-32610490D01*
X24256556Y-32610490D02*
X24100769Y-32532597D01*
X24100769Y-32532597D02*
X24022876Y-32454704D01*
X24022876Y-32454704D02*
X23944982Y-32298917D01*
X23944982Y-32298917D02*
X23944982Y-32143130D01*
X23944982Y-32143130D02*
X24022876Y-31987344D01*
X24022876Y-31987344D02*
X24100769Y-31909450D01*
X24100769Y-31909450D02*
X24256556Y-31831557D01*
X24256556Y-31831557D02*
X24801809Y-31831557D01*
X23166049Y-30974730D02*
X23166049Y-32065237D01*
X23166049Y-32610490D02*
X23243942Y-32532597D01*
X23243942Y-32532597D02*
X23166049Y-32454704D01*
X23166049Y-32454704D02*
X23088156Y-32532597D01*
X23088156Y-32532597D02*
X23166049Y-32610490D01*
X23166049Y-32610490D02*
X23166049Y-32454704D01*
X22620796Y-32065237D02*
X21997649Y-32065237D01*
X22387116Y-32610490D02*
X22387116Y-31208410D01*
X22387116Y-31208410D02*
X22309223Y-31052624D01*
X22309223Y-31052624D02*
X22153436Y-30974730D01*
X22153436Y-30974730D02*
X21997649Y-30974730D01*
X21530289Y-31052624D02*
X21374503Y-30974730D01*
X21374503Y-30974730D02*
X21062929Y-30974730D01*
X21062929Y-30974730D02*
X20907143Y-31052624D01*
X20907143Y-31052624D02*
X20829249Y-31208410D01*
X20829249Y-31208410D02*
X20829249Y-31286304D01*
X20829249Y-31286304D02*
X20907143Y-31442090D01*
X20907143Y-31442090D02*
X21062929Y-31519984D01*
X21062929Y-31519984D02*
X21296609Y-31519984D01*
X21296609Y-31519984D02*
X21452396Y-31597877D01*
X21452396Y-31597877D02*
X21530289Y-31753664D01*
X21530289Y-31753664D02*
X21530289Y-31831557D01*
X21530289Y-31831557D02*
X21452396Y-31987344D01*
X21452396Y-31987344D02*
X21296609Y-32065237D01*
X21296609Y-32065237D02*
X21062929Y-32065237D01*
X21062929Y-32065237D02*
X20907143Y-31987344D01*
X19037703Y-32065237D02*
X18648236Y-30974730D01*
X18648236Y-30974730D02*
X18258769Y-32065237D01*
X17713516Y-32454704D02*
X17635623Y-32532597D01*
X17635623Y-32532597D02*
X17479836Y-32610490D01*
X17479836Y-32610490D02*
X17090370Y-32610490D01*
X17090370Y-32610490D02*
X16934583Y-32532597D01*
X16934583Y-32532597D02*
X16856690Y-32454704D01*
X16856690Y-32454704D02*
X16778796Y-32298917D01*
X16778796Y-32298917D02*
X16778796Y-32143130D01*
X16778796Y-32143130D02*
X16856690Y-31909450D01*
X16856690Y-31909450D02*
X17791410Y-30974730D01*
X17791410Y-30974730D02*
X16778796Y-30974730D01*
X31266955Y-28341156D02*
X31266955Y-29976916D01*
X31266955Y-29353770D02*
X31111168Y-29431663D01*
X31111168Y-29431663D02*
X30799595Y-29431663D01*
X30799595Y-29431663D02*
X30643808Y-29353770D01*
X30643808Y-29353770D02*
X30565915Y-29275876D01*
X30565915Y-29275876D02*
X30488022Y-29120090D01*
X30488022Y-29120090D02*
X30488022Y-28652730D01*
X30488022Y-28652730D02*
X30565915Y-28496943D01*
X30565915Y-28496943D02*
X30643808Y-28419050D01*
X30643808Y-28419050D02*
X30799595Y-28341156D01*
X30799595Y-28341156D02*
X31111168Y-28341156D01*
X31111168Y-28341156D02*
X31266955Y-28419050D01*
X29942769Y-29431663D02*
X29553302Y-28341156D01*
X29163835Y-29431663D02*
X29553302Y-28341156D01*
X29553302Y-28341156D02*
X29709089Y-27951690D01*
X29709089Y-27951690D02*
X29786982Y-27873796D01*
X29786982Y-27873796D02*
X29942769Y-27795903D01*
X27372289Y-28808516D02*
X26593356Y-28808516D01*
X27528076Y-28341156D02*
X26982823Y-29976916D01*
X26982823Y-29976916D02*
X26437569Y-28341156D01*
X25658636Y-28341156D02*
X25814423Y-28419050D01*
X25814423Y-28419050D02*
X25892316Y-28574836D01*
X25892316Y-28574836D02*
X25892316Y-29976916D01*
X24412342Y-28419050D02*
X24568129Y-28341156D01*
X24568129Y-28341156D02*
X24879702Y-28341156D01*
X24879702Y-28341156D02*
X25035489Y-28419050D01*
X25035489Y-28419050D02*
X25113382Y-28574836D01*
X25113382Y-28574836D02*
X25113382Y-29197983D01*
X25113382Y-29197983D02*
X25035489Y-29353770D01*
X25035489Y-29353770D02*
X24879702Y-29431663D01*
X24879702Y-29431663D02*
X24568129Y-29431663D01*
X24568129Y-29431663D02*
X24412342Y-29353770D01*
X24412342Y-29353770D02*
X24334449Y-29197983D01*
X24334449Y-29197983D02*
X24334449Y-29042196D01*
X24334449Y-29042196D02*
X25113382Y-28886410D01*
X23789196Y-28341156D02*
X22932369Y-29431663D01*
X23789196Y-29431663D02*
X22932369Y-28341156D01*
X21608182Y-28341156D02*
X21608182Y-29197983D01*
X21608182Y-29197983D02*
X21686075Y-29353770D01*
X21686075Y-29353770D02*
X21841862Y-29431663D01*
X21841862Y-29431663D02*
X22153435Y-29431663D01*
X22153435Y-29431663D02*
X22309222Y-29353770D01*
X21608182Y-28419050D02*
X21763969Y-28341156D01*
X21763969Y-28341156D02*
X22153435Y-28341156D01*
X22153435Y-28341156D02*
X22309222Y-28419050D01*
X22309222Y-28419050D02*
X22387115Y-28574836D01*
X22387115Y-28574836D02*
X22387115Y-28730623D01*
X22387115Y-28730623D02*
X22309222Y-28886410D01*
X22309222Y-28886410D02*
X22153435Y-28964303D01*
X22153435Y-28964303D02*
X21763969Y-28964303D01*
X21763969Y-28964303D02*
X21608182Y-29042196D01*
X20829249Y-29431663D02*
X20829249Y-28341156D01*
X20829249Y-29275876D02*
X20751356Y-29353770D01*
X20751356Y-29353770D02*
X20595569Y-29431663D01*
X20595569Y-29431663D02*
X20361889Y-29431663D01*
X20361889Y-29431663D02*
X20206102Y-29353770D01*
X20206102Y-29353770D02*
X20128209Y-29197983D01*
X20128209Y-29197983D02*
X20128209Y-28341156D01*
X18648236Y-28341156D02*
X18648236Y-29976916D01*
X18648236Y-28419050D02*
X18804023Y-28341156D01*
X18804023Y-28341156D02*
X19115596Y-28341156D01*
X19115596Y-28341156D02*
X19271383Y-28419050D01*
X19271383Y-28419050D02*
X19349276Y-28496943D01*
X19349276Y-28496943D02*
X19427169Y-28652730D01*
X19427169Y-28652730D02*
X19427169Y-29120090D01*
X19427169Y-29120090D02*
X19349276Y-29275876D01*
X19349276Y-29275876D02*
X19271383Y-29353770D01*
X19271383Y-29353770D02*
X19115596Y-29431663D01*
X19115596Y-29431663D02*
X18804023Y-29431663D01*
X18804023Y-29431663D02*
X18648236Y-29353770D01*
X17246156Y-28419050D02*
X17401943Y-28341156D01*
X17401943Y-28341156D02*
X17713516Y-28341156D01*
X17713516Y-28341156D02*
X17869303Y-28419050D01*
X17869303Y-28419050D02*
X17947196Y-28574836D01*
X17947196Y-28574836D02*
X17947196Y-29197983D01*
X17947196Y-29197983D02*
X17869303Y-29353770D01*
X17869303Y-29353770D02*
X17713516Y-29431663D01*
X17713516Y-29431663D02*
X17401943Y-29431663D01*
X17401943Y-29431663D02*
X17246156Y-29353770D01*
X17246156Y-29353770D02*
X17168263Y-29197983D01*
X17168263Y-29197983D02*
X17168263Y-29042196D01*
X17168263Y-29042196D02*
X17947196Y-28886410D01*
X16467223Y-28341156D02*
X16467223Y-29431663D01*
X16467223Y-29120090D02*
X16389330Y-29275876D01*
X16389330Y-29275876D02*
X16311436Y-29353770D01*
X16311436Y-29353770D02*
X16155650Y-29431663D01*
X16155650Y-29431663D02*
X15999863Y-29431663D01*
X14208317Y-28341156D02*
X14208317Y-29976916D01*
X13273597Y-28341156D02*
X13974637Y-29275876D01*
X13273597Y-29976916D02*
X14208317Y-29042196D01*
X12572557Y-28341156D02*
X12572557Y-29431663D01*
X12572557Y-29976916D02*
X12650450Y-29899023D01*
X12650450Y-29899023D02*
X12572557Y-29821130D01*
X12572557Y-29821130D02*
X12494664Y-29899023D01*
X12494664Y-29899023D02*
X12572557Y-29976916D01*
X12572557Y-29976916D02*
X12572557Y-29821130D01*
X11793624Y-28341156D02*
X11793624Y-29431663D01*
X11793624Y-29120090D02*
X11715731Y-29275876D01*
X11715731Y-29275876D02*
X11637837Y-29353770D01*
X11637837Y-29353770D02*
X11482051Y-29431663D01*
X11482051Y-29431663D02*
X11326264Y-29431663D01*
X10781011Y-28341156D02*
X10781011Y-29431663D01*
X10781011Y-29976916D02*
X10858904Y-29899023D01*
X10858904Y-29899023D02*
X10781011Y-29821130D01*
X10781011Y-29821130D02*
X10703118Y-29899023D01*
X10703118Y-29899023D02*
X10781011Y-29976916D01*
X10781011Y-29976916D02*
X10781011Y-29821130D01*
X9768398Y-28341156D02*
X9924185Y-28419050D01*
X9924185Y-28419050D02*
X10002078Y-28574836D01*
X10002078Y-28574836D02*
X10002078Y-29976916D01*
X8911571Y-28341156D02*
X9067358Y-28419050D01*
X9067358Y-28419050D02*
X9145251Y-28574836D01*
X9145251Y-28574836D02*
X9145251Y-29976916D01*
X8054744Y-28341156D02*
X8210531Y-28419050D01*
X8210531Y-28419050D02*
X8288424Y-28496943D01*
X8288424Y-28496943D02*
X8366317Y-28652730D01*
X8366317Y-28652730D02*
X8366317Y-29120090D01*
X8366317Y-29120090D02*
X8288424Y-29275876D01*
X8288424Y-29275876D02*
X8210531Y-29353770D01*
X8210531Y-29353770D02*
X8054744Y-29431663D01*
X8054744Y-29431663D02*
X7821064Y-29431663D01*
X7821064Y-29431663D02*
X7665277Y-29353770D01*
X7665277Y-29353770D02*
X7587384Y-29275876D01*
X7587384Y-29275876D02*
X7509491Y-29120090D01*
X7509491Y-29120090D02*
X7509491Y-28652730D01*
X7509491Y-28652730D02*
X7587384Y-28496943D01*
X7587384Y-28496943D02*
X7665277Y-28419050D01*
X7665277Y-28419050D02*
X7821064Y-28341156D01*
X7821064Y-28341156D02*
X8054744Y-28341156D01*
X6964238Y-29431663D02*
X6574771Y-28341156D01*
X6574771Y-28341156D02*
X6185304Y-29431663D01*
X30565915Y-26798089D02*
X30565915Y-25473902D01*
X30565915Y-25473902D02*
X30643808Y-25318116D01*
X30643808Y-25318116D02*
X30721702Y-25240222D01*
X30721702Y-25240222D02*
X30877488Y-25162329D01*
X30877488Y-25162329D02*
X31111168Y-25162329D01*
X31111168Y-25162329D02*
X31266955Y-25240222D01*
X30565915Y-25785476D02*
X30721702Y-25707582D01*
X30721702Y-25707582D02*
X31033275Y-25707582D01*
X31033275Y-25707582D02*
X31189062Y-25785476D01*
X31189062Y-25785476D02*
X31266955Y-25863369D01*
X31266955Y-25863369D02*
X31344848Y-26019156D01*
X31344848Y-26019156D02*
X31344848Y-26486516D01*
X31344848Y-26486516D02*
X31266955Y-26642302D01*
X31266955Y-26642302D02*
X31189062Y-26720196D01*
X31189062Y-26720196D02*
X31033275Y-26798089D01*
X31033275Y-26798089D02*
X30721702Y-26798089D01*
X30721702Y-26798089D02*
X30565915Y-26720196D01*
X29786982Y-25707582D02*
X29786982Y-26798089D01*
X29786982Y-27343342D02*
X29864875Y-27265449D01*
X29864875Y-27265449D02*
X29786982Y-27187556D01*
X29786982Y-27187556D02*
X29709089Y-27265449D01*
X29709089Y-27265449D02*
X29786982Y-27343342D01*
X29786982Y-27343342D02*
X29786982Y-27187556D01*
X29241729Y-26798089D02*
X28618582Y-26798089D01*
X29008049Y-27343342D02*
X29008049Y-25941262D01*
X29008049Y-25941262D02*
X28930156Y-25785476D01*
X28930156Y-25785476D02*
X28774369Y-25707582D01*
X28774369Y-25707582D02*
X28618582Y-25707582D01*
X28073329Y-25707582D02*
X28073329Y-27343342D01*
X27372289Y-25707582D02*
X27372289Y-26564409D01*
X27372289Y-26564409D02*
X27450182Y-26720196D01*
X27450182Y-26720196D02*
X27605969Y-26798089D01*
X27605969Y-26798089D02*
X27839649Y-26798089D01*
X27839649Y-26798089D02*
X27995436Y-26720196D01*
X27995436Y-26720196D02*
X28073329Y-26642302D01*
X25892316Y-26798089D02*
X25892316Y-25707582D01*
X26593356Y-26798089D02*
X26593356Y-25941262D01*
X26593356Y-25941262D02*
X26515463Y-25785476D01*
X26515463Y-25785476D02*
X26359676Y-25707582D01*
X26359676Y-25707582D02*
X26125996Y-25707582D01*
X26125996Y-25707582D02*
X25970209Y-25785476D01*
X25970209Y-25785476D02*
X25892316Y-25863369D01*
X25113383Y-25707582D02*
X25113383Y-27343342D01*
X25113383Y-26720196D02*
X24957596Y-26798089D01*
X24957596Y-26798089D02*
X24646023Y-26798089D01*
X24646023Y-26798089D02*
X24490236Y-26720196D01*
X24490236Y-26720196D02*
X24412343Y-26642302D01*
X24412343Y-26642302D02*
X24334450Y-26486516D01*
X24334450Y-26486516D02*
X24334450Y-26019156D01*
X24334450Y-26019156D02*
X24412343Y-25863369D01*
X24412343Y-25863369D02*
X24490236Y-25785476D01*
X24490236Y-25785476D02*
X24646023Y-25707582D01*
X24646023Y-25707582D02*
X24957596Y-25707582D01*
X24957596Y-25707582D02*
X25113383Y-25785476D01*
X23633410Y-25863369D02*
X23555517Y-25785476D01*
X23555517Y-25785476D02*
X23633410Y-25707582D01*
X23633410Y-25707582D02*
X23711303Y-25785476D01*
X23711303Y-25785476D02*
X23633410Y-25863369D01*
X23633410Y-25863369D02*
X23633410Y-25707582D01*
X22153437Y-25785476D02*
X22309224Y-25707582D01*
X22309224Y-25707582D02*
X22620797Y-25707582D01*
X22620797Y-25707582D02*
X22776584Y-25785476D01*
X22776584Y-25785476D02*
X22854477Y-25863369D01*
X22854477Y-25863369D02*
X22932370Y-26019156D01*
X22932370Y-26019156D02*
X22932370Y-26486516D01*
X22932370Y-26486516D02*
X22854477Y-26642302D01*
X22854477Y-26642302D02*
X22776584Y-26720196D01*
X22776584Y-26720196D02*
X22620797Y-26798089D01*
X22620797Y-26798089D02*
X22309224Y-26798089D01*
X22309224Y-26798089D02*
X22153437Y-26720196D01*
X21218717Y-25707582D02*
X21374504Y-25785476D01*
X21374504Y-25785476D02*
X21452397Y-25863369D01*
X21452397Y-25863369D02*
X21530290Y-26019156D01*
X21530290Y-26019156D02*
X21530290Y-26486516D01*
X21530290Y-26486516D02*
X21452397Y-26642302D01*
X21452397Y-26642302D02*
X21374504Y-26720196D01*
X21374504Y-26720196D02*
X21218717Y-26798089D01*
X21218717Y-26798089D02*
X20985037Y-26798089D01*
X20985037Y-26798089D02*
X20829250Y-26720196D01*
X20829250Y-26720196D02*
X20751357Y-26642302D01*
X20751357Y-26642302D02*
X20673464Y-26486516D01*
X20673464Y-26486516D02*
X20673464Y-26019156D01*
X20673464Y-26019156D02*
X20751357Y-25863369D01*
X20751357Y-25863369D02*
X20829250Y-25785476D01*
X20829250Y-25785476D02*
X20985037Y-25707582D01*
X20985037Y-25707582D02*
X21218717Y-25707582D01*
X19972424Y-25707582D02*
X19972424Y-26798089D01*
X19972424Y-26642302D02*
X19894531Y-26720196D01*
X19894531Y-26720196D02*
X19738744Y-26798089D01*
X19738744Y-26798089D02*
X19505064Y-26798089D01*
X19505064Y-26798089D02*
X19349277Y-26720196D01*
X19349277Y-26720196D02*
X19271384Y-26564409D01*
X19271384Y-26564409D02*
X19271384Y-25707582D01*
X19271384Y-26564409D02*
X19193491Y-26720196D01*
X19193491Y-26720196D02*
X19037704Y-26798089D01*
X19037704Y-26798089D02*
X18804024Y-26798089D01*
X18804024Y-26798089D02*
X18648237Y-26720196D01*
X18648237Y-26720196D02*
X18570344Y-26564409D01*
X18570344Y-26564409D02*
X18570344Y-25707582D01*
X16623011Y-27421236D02*
X18025091Y-25318116D01*
X16155651Y-25785476D02*
X15999865Y-25707582D01*
X15999865Y-25707582D02*
X15688291Y-25707582D01*
X15688291Y-25707582D02*
X15532505Y-25785476D01*
X15532505Y-25785476D02*
X15454611Y-25941262D01*
X15454611Y-25941262D02*
X15454611Y-26019156D01*
X15454611Y-26019156D02*
X15532505Y-26174942D01*
X15532505Y-26174942D02*
X15688291Y-26252836D01*
X15688291Y-26252836D02*
X15921971Y-26252836D01*
X15921971Y-26252836D02*
X16077758Y-26330729D01*
X16077758Y-26330729D02*
X16155651Y-26486516D01*
X16155651Y-26486516D02*
X16155651Y-26564409D01*
X16155651Y-26564409D02*
X16077758Y-26720196D01*
X16077758Y-26720196D02*
X15921971Y-26798089D01*
X15921971Y-26798089D02*
X15688291Y-26798089D01*
X15688291Y-26798089D02*
X15532505Y-26720196D01*
X14753571Y-25707582D02*
X14753571Y-27343342D01*
X14052531Y-25707582D02*
X14052531Y-26564409D01*
X14052531Y-26564409D02*
X14130424Y-26720196D01*
X14130424Y-26720196D02*
X14286211Y-26798089D01*
X14286211Y-26798089D02*
X14519891Y-26798089D01*
X14519891Y-26798089D02*
X14675678Y-26720196D01*
X14675678Y-26720196D02*
X14753571Y-26642302D01*
X12572558Y-26798089D02*
X12572558Y-25707582D01*
X13273598Y-26798089D02*
X13273598Y-25941262D01*
X13273598Y-25941262D02*
X13195705Y-25785476D01*
X13195705Y-25785476D02*
X13039918Y-25707582D01*
X13039918Y-25707582D02*
X12806238Y-25707582D01*
X12806238Y-25707582D02*
X12650451Y-25785476D01*
X12650451Y-25785476D02*
X12572558Y-25863369D01*
X11793625Y-25707582D02*
X11793625Y-26798089D01*
X11793625Y-26486516D02*
X11715732Y-26642302D01*
X11715732Y-26642302D02*
X11637838Y-26720196D01*
X11637838Y-26720196D02*
X11482052Y-26798089D01*
X11482052Y-26798089D02*
X11326265Y-26798089D01*
X10781012Y-25707582D02*
X10781012Y-26798089D01*
X10781012Y-27343342D02*
X10858905Y-27265449D01*
X10858905Y-27265449D02*
X10781012Y-27187556D01*
X10781012Y-27187556D02*
X10703119Y-27265449D01*
X10703119Y-27265449D02*
X10781012Y-27343342D01*
X10781012Y-27343342D02*
X10781012Y-27187556D01*
X10002079Y-25707582D02*
X10002079Y-27343342D01*
X9846292Y-26330729D02*
X9378932Y-25707582D01*
X9378932Y-26798089D02*
X10002079Y-26174942D01*
X7821065Y-25707582D02*
X8755785Y-25707582D01*
X8288425Y-25707582D02*
X8288425Y-27343342D01*
X8288425Y-27343342D02*
X8444212Y-27109662D01*
X8444212Y-27109662D02*
X8599999Y-26953876D01*
X8599999Y-26953876D02*
X8755785Y-26875982D01*
X7275812Y-27343342D02*
X6185305Y-27343342D01*
X6185305Y-27343342D02*
X6886345Y-25707582D01*
X5484265Y-25707582D02*
X5172691Y-25707582D01*
X5172691Y-25707582D02*
X5016905Y-25785476D01*
X5016905Y-25785476D02*
X4939011Y-25863369D01*
X4939011Y-25863369D02*
X4783225Y-26097049D01*
X4783225Y-26097049D02*
X4705331Y-26408622D01*
X4705331Y-26408622D02*
X4705331Y-27031769D01*
X4705331Y-27031769D02*
X4783225Y-27187556D01*
X4783225Y-27187556D02*
X4861118Y-27265449D01*
X4861118Y-27265449D02*
X5016905Y-27343342D01*
X5016905Y-27343342D02*
X5328478Y-27343342D01*
X5328478Y-27343342D02*
X5484265Y-27265449D01*
X5484265Y-27265449D02*
X5562158Y-27187556D01*
X5562158Y-27187556D02*
X5640051Y-27031769D01*
X5640051Y-27031769D02*
X5640051Y-26642302D01*
X5640051Y-26642302D02*
X5562158Y-26486516D01*
X5562158Y-26486516D02*
X5484265Y-26408622D01*
X5484265Y-26408622D02*
X5328478Y-26330729D01*
X5328478Y-26330729D02*
X5016905Y-26330729D01*
X5016905Y-26330729D02*
X4861118Y-26408622D01*
X4861118Y-26408622D02*
X4783225Y-26486516D01*
X4783225Y-26486516D02*
X4705331Y-26642302D01*
D12*
X12073866Y-36380951D02*
X12073866Y-35619047D01*
X12454819Y-35999999D02*
X11692914Y-35999999D01*
X12073866Y-59880951D02*
X12073866Y-59119047D01*
D13*
%TO.C,R5*%
X20762743Y-17727499D02*
X21237259Y-17727499D01*
X20762743Y-18772499D02*
X21237259Y-18772499D01*
%TO.C,D1*%
X26460000Y-81600000D02*
X26460000Y-77400000D01*
X26460000Y-77400000D02*
X23540000Y-77400000D01*
X23540000Y-77400000D02*
X23540000Y-81600000D01*
%TO.C,BT1*%
X15000000Y-59000000D02*
X15000000Y-62000000D01*
X4000000Y-39000000D02*
X4000000Y-59000000D01*
X9000000Y-37000000D02*
X6000000Y-37000000D01*
X9000000Y-62000000D02*
X9500000Y-62000000D01*
X20000000Y-59000000D02*
X20000000Y-37000000D01*
X6000000Y-37000000D02*
X4000000Y-39000000D01*
X9000000Y-59000000D02*
X9000000Y-62000000D01*
X15000000Y-34000000D02*
X14500000Y-34000000D01*
X4000000Y-59000000D02*
X9000000Y-59000000D01*
X15000000Y-62000000D02*
X14500000Y-62000000D01*
X20000000Y-59000000D02*
X15000000Y-59000000D01*
X9000000Y-34000000D02*
X9000000Y-37000000D01*
X15000000Y-37000000D02*
X15000000Y-34000000D01*
X9500000Y-34000000D02*
X9000000Y-34000000D01*
X20000000Y-37000000D02*
X15000000Y-37000000D01*
X22000000Y-48000000D02*
G75*
G03*
X22000000Y-48000000I-10000000J0D01*
G01*
%TO.C,R3*%
X24762742Y-53727500D02*
X25237258Y-53727500D01*
X24762742Y-54772500D02*
X25237258Y-54772500D01*
%TO.C,J4*%
X35540000Y-51140000D02*
X35540000Y-52090000D01*
X35990000Y-56860000D02*
X35540000Y-56860000D01*
X39510000Y-56860000D02*
X39960000Y-56860000D01*
X35540000Y-55910000D02*
X34050000Y-55910000D01*
X35990000Y-51140000D02*
X35540000Y-51140000D01*
X39960000Y-51140000D02*
X39510000Y-51140000D01*
X39960000Y-56860000D02*
X39960000Y-51140000D01*
X35540000Y-56860000D02*
X35540000Y-55910000D01*
%TO.C,R6*%
X20762742Y-15477500D02*
X21237258Y-15477500D01*
X20762742Y-16522500D02*
X21237258Y-16522500D01*
%TO.C,C1*%
X27240000Y-80140580D02*
X27240000Y-79859420D01*
X28260000Y-80140580D02*
X28260000Y-79859420D01*
%TO.C,R8*%
X28237258Y-9977500D02*
X27762742Y-9977500D01*
X28237258Y-11022500D02*
X27762742Y-11022500D01*
%TO.C,J6*%
X39510000Y-24860000D02*
X39960000Y-24860000D01*
X39960000Y-19140000D02*
X39510000Y-19140000D01*
X35990000Y-24860000D02*
X35540000Y-24860000D01*
X35990000Y-19140000D02*
X35540000Y-19140000D01*
X39960000Y-24860000D02*
X39960000Y-19140000D01*
X35540000Y-19140000D02*
X35540000Y-20090000D01*
X35540000Y-23910000D02*
X34050000Y-23910000D01*
X35540000Y-24860000D02*
X35540000Y-23910000D01*
%TO.C,R1*%
X20762742Y-81727500D02*
X21237258Y-81727500D01*
X20762742Y-82772500D02*
X21237258Y-82772500D01*
%TO.C,J3*%
X39960000Y-39140000D02*
X39510000Y-39140000D01*
X35540000Y-43910000D02*
X34050000Y-43910000D01*
X39960000Y-44860000D02*
X39960000Y-39140000D01*
X35990000Y-39140000D02*
X35540000Y-39140000D01*
X39510000Y-44860000D02*
X39960000Y-44860000D01*
X35540000Y-39140000D02*
X35540000Y-40090000D01*
X35990000Y-44860000D02*
X35540000Y-44860000D01*
X35540000Y-44860000D02*
X35540000Y-43910000D01*
%TO.C,D3*%
X26460001Y-17600001D02*
X26460001Y-13400001D01*
X23540001Y-13400001D02*
X23540001Y-17600001D01*
X26460001Y-13400001D02*
X23540001Y-13400001D01*
%TO.C,P1*%
X21582000Y-57000D02*
X30742000Y-57000D01*
X30742000Y-57000D02*
X30742000Y-1762000D01*
X21582000Y-3772000D02*
X21582000Y-5692000D01*
X30742000Y-5692000D02*
X30742000Y-3772000D01*
X21582000Y-1762000D02*
X21582000Y-57000D01*
%TO.C,J1*%
X35540000Y-75910000D02*
X34050000Y-75910000D01*
X39510000Y-76860000D02*
X39960000Y-76860000D01*
X35540000Y-71140000D02*
X35540000Y-72090000D01*
X35990000Y-76860000D02*
X35540000Y-76860000D01*
X35540000Y-76860000D02*
X35540000Y-75910000D01*
X35990000Y-71140000D02*
X35540000Y-71140000D01*
X39960000Y-71140000D02*
X39510000Y-71140000D01*
X39960000Y-76860000D02*
X39960000Y-71140000D01*
%TO.C,C3*%
X28260000Y-16140580D02*
X28260000Y-15859420D01*
X27240000Y-16140580D02*
X27240000Y-15859420D01*
%TO.C,R4*%
X24762742Y-51977500D02*
X25237258Y-51977500D01*
X24762742Y-53022500D02*
X25237258Y-53022500D01*
%TO.C,J2*%
X35540000Y-88860000D02*
X35540000Y-87910000D01*
X39510000Y-88860000D02*
X39960000Y-88860000D01*
X39960000Y-83140000D02*
X39510000Y-83140000D01*
X35990000Y-83140000D02*
X35540000Y-83140000D01*
X35540000Y-87910000D02*
X34050000Y-87910000D01*
X35540000Y-83140000D02*
X35540000Y-84090000D01*
X35990000Y-88860000D02*
X35540000Y-88860000D01*
X39960000Y-88860000D02*
X39960000Y-83140000D01*
%TO.C,R2*%
X20762742Y-80522500D02*
X21237258Y-80522500D01*
X20762742Y-79477500D02*
X21237258Y-79477500D01*
%TO.C,J5*%
X39960000Y-12860000D02*
X39960000Y-7140000D01*
X35540000Y-11910000D02*
X34050000Y-11910000D01*
X35990000Y-7140000D02*
X35540000Y-7140000D01*
X35540000Y-12860000D02*
X35540000Y-11910000D01*
X35540000Y-7140000D02*
X35540000Y-8090000D01*
X39960000Y-7140000D02*
X39510000Y-7140000D01*
X39510000Y-12860000D02*
X39960000Y-12860000D01*
X35990000Y-12860000D02*
X35540000Y-12860000D01*
%TO.C,R7*%
X24262742Y-9977500D02*
X24737258Y-9977500D01*
X24262742Y-11022500D02*
X24737258Y-11022500D01*
%TO.C,D2*%
X26460000Y-49600000D02*
X26460000Y-45400000D01*
X26460000Y-45400000D02*
X23540000Y-45400000D01*
X23540000Y-45400000D02*
X23540000Y-49600000D01*
%TO.C,C2*%
X28260000Y-48140580D02*
X28260000Y-47859420D01*
X27240000Y-48140580D02*
X27240000Y-47859420D01*
%TD*%
%LPC*%
D14*
%TO.C,R5*%
X20175001Y-18249999D03*
X21825001Y-18249999D03*
%TD*%
D15*
%TO.C,D1*%
X25000000Y-80000000D03*
D16*
X25000000Y-78200000D03*
X25000000Y-81800000D03*
%TD*%
D17*
%TO.C,BT1*%
X12000000Y-33500000D03*
X12000000Y-62500000D03*
%TD*%
D14*
%TO.C,R3*%
X24175000Y-54250000D03*
X25825000Y-54250000D03*
%TD*%
D18*
%TO.C,J4*%
X34850000Y-55250000D03*
X34850000Y-54000000D03*
X34850000Y-52750000D03*
D19*
X37749988Y-50200001D03*
X37749988Y-57800011D03*
%TD*%
D14*
%TO.C,R6*%
X20175000Y-16000000D03*
X21825000Y-16000000D03*
%TD*%
D20*
%TO.C,C1*%
X27750000Y-80775000D03*
X27750000Y-79225000D03*
%TD*%
D21*
%TO.C,R8*%
X28825000Y-10500000D03*
X27175000Y-10500000D03*
%TD*%
D18*
%TO.C,J6*%
X34850000Y-23250000D03*
X34850000Y-22000000D03*
X34850000Y-20750000D03*
D19*
X37749988Y-25799999D03*
X37749988Y-18199999D03*
%TD*%
D14*
%TO.C,R1*%
X20175000Y-82250000D03*
X21825000Y-82250000D03*
%TD*%
D18*
%TO.C,J3*%
X34850000Y-43250000D03*
X34850000Y-42000000D03*
X34850000Y-40750000D03*
D19*
X37749988Y-45800010D03*
X37749988Y-38200000D03*
%TD*%
D15*
%TO.C,D3*%
X25000001Y-16000001D03*
D16*
X25000001Y-14200001D03*
X25000001Y-17800001D03*
%TD*%
D22*
%TO.C,P1*%
X26662000Y-6667000D03*
D23*
X24642000Y-6667000D03*
D24*
X23412000Y-6667000D03*
D22*
X25662000Y-6667000D03*
D23*
X27682000Y-6667000D03*
D24*
X28912000Y-6667000D03*
D25*
X30482000Y-6467000D03*
X21842000Y-6467000D03*
X21842000Y-2667000D03*
X30482000Y-2667000D03*
%TD*%
D18*
%TO.C,J1*%
X34850000Y-75250000D03*
X34850000Y-74000000D03*
X34850000Y-72750000D03*
D19*
X37749988Y-70200012D03*
X37749988Y-77799997D03*
%TD*%
D20*
%TO.C,C3*%
X27750000Y-16775000D03*
X27750000Y-15225000D03*
%TD*%
D14*
%TO.C,R4*%
X24175000Y-52500000D03*
X25825000Y-52500000D03*
%TD*%
D18*
%TO.C,J2*%
X34850000Y-87250000D03*
X34850000Y-86000000D03*
X34850000Y-84750000D03*
D19*
X37749988Y-82199988D03*
X37749988Y-89799998D03*
%TD*%
D14*
%TO.C,R2*%
X20175000Y-80000000D03*
X21825000Y-80000000D03*
%TD*%
D18*
%TO.C,J5*%
X34850000Y-11250000D03*
X34850000Y-10000000D03*
X34850000Y-8750000D03*
D19*
X37749988Y-6200000D03*
X37749988Y-13800000D03*
%TD*%
D14*
%TO.C,R7*%
X23675000Y-10500000D03*
X25325000Y-10500000D03*
%TD*%
D15*
%TO.C,D2*%
X25000000Y-48000000D03*
D16*
X25000000Y-46200000D03*
X25000000Y-49800000D03*
%TD*%
D20*
%TO.C,C2*%
X27750000Y-48775000D03*
X27750000Y-47225000D03*
%TD*%
D26*
%TO.C,SW1*%
X1895000Y-81500000D03*
X1895000Y-78500000D03*
%TD*%
%TO.C,SW3*%
X1670000Y-14500000D03*
X1670000Y-17500000D03*
%TD*%
%TO.C,SW2*%
X1670000Y-46500000D03*
X1670000Y-49500000D03*
%TD*%
%LPD*%
M02*
