%TF.GenerationSoftware,KiCad,Pcbnew,7.0.8*%
%TF.CreationDate,2024-03-13T10:59:52-04:00*%
%TF.ProjectId,INPUT,494e5055-542e-46b6-9963-61645f706362,rev?*%
%TF.SameCoordinates,Original*%
%TF.FileFunction,Copper,L1,Top*%
%TF.FilePolarity,Positive*%
%FSLAX46Y46*%
G04 Gerber Fmt 4.6, Leading zero omitted, Abs format (unit mm)*
G04 Created by KiCad (PCBNEW 7.0.8) date 2024-03-13 10:59:52*
%MOMM*%
%LPD*%
G01*
G04 APERTURE LIST*
G04 Aperture macros list*
%AMRoundRect*
0 Rectangle with rounded corners*
0 $1 Rounding radius*
0 $2 $3 $4 $5 $6 $7 $8 $9 X,Y pos of 4 corners*
0 Add a 4 corners polygon primitive as box body*
4,1,4,$2,$3,$4,$5,$6,$7,$8,$9,$2,$3,0*
0 Add four circle primitives for the rounded corners*
1,1,$1+$1,$2,$3*
1,1,$1+$1,$4,$5*
1,1,$1+$1,$6,$7*
1,1,$1+$1,$8,$9*
0 Add four rect primitives between the rounded corners*
20,1,$1+$1,$2,$3,$4,$5,0*
20,1,$1+$1,$4,$5,$6,$7,0*
20,1,$1+$1,$6,$7,$8,$9,0*
20,1,$1+$1,$8,$9,$2,$3,0*%
G04 Aperture macros list end*
%TA.AperFunction,SMDPad,CuDef*%
%ADD10RoundRect,0.200000X-0.200000X-0.275000X0.200000X-0.275000X0.200000X0.275000X-0.200000X0.275000X0*%
%TD*%
%TA.AperFunction,SMDPad,CuDef*%
%ADD11RoundRect,0.300000X-0.500000X0.450000X-0.500000X-0.450000X0.500000X-0.450000X0.500000X0.450000X0*%
%TD*%
%TA.AperFunction,SMDPad,CuDef*%
%ADD12RoundRect,0.750000X1.350000X-0.750000X1.350000X0.750000X-1.350000X0.750000X-1.350000X-0.750000X0*%
%TD*%
%TA.AperFunction,SMDPad,CuDef*%
%ADD13RoundRect,0.200000X0.600000X-0.200000X0.600000X0.200000X-0.600000X0.200000X-0.600000X-0.200000X0*%
%TD*%
%TA.AperFunction,SMDPad,CuDef*%
%ADD14RoundRect,0.250001X1.249998X-0.799999X1.249998X0.799999X-1.249998X0.799999X-1.249998X-0.799999X0*%
%TD*%
%TA.AperFunction,SMDPad,CuDef*%
%ADD15RoundRect,0.225000X0.250000X-0.225000X0.250000X0.225000X-0.250000X0.225000X-0.250000X-0.225000X0*%
%TD*%
%TA.AperFunction,SMDPad,CuDef*%
%ADD16RoundRect,0.200000X0.200000X0.275000X-0.200000X0.275000X-0.200000X-0.275000X0.200000X-0.275000X0*%
%TD*%
%TA.AperFunction,SMDPad,CuDef*%
%ADD17R,0.700000X1.600000*%
%TD*%
%TA.AperFunction,SMDPad,CuDef*%
%ADD18R,0.800000X1.600000*%
%TD*%
%TA.AperFunction,SMDPad,CuDef*%
%ADD19R,0.900000X1.600000*%
%TD*%
%TA.AperFunction,ComponentPad*%
%ADD20O,1.000000X1.700000*%
%TD*%
%TA.AperFunction,ViaPad*%
%ADD21C,0.800000*%
%TD*%
%TA.AperFunction,Conductor*%
%ADD22C,0.300000*%
%TD*%
%TA.AperFunction,Conductor*%
%ADD23C,0.600000*%
%TD*%
%TA.AperFunction,Conductor*%
%ADD24C,0.250000*%
%TD*%
G04 APERTURE END LIST*
D10*
%TO.P,R5,1*%
%TO.N,Net-(R5-Pad1)*%
X20175001Y-18249999D03*
%TO.P,R5,2*%
%TO.N,Net-(C3-Pad1)*%
X21825001Y-18249999D03*
%TD*%
D11*
%TO.P,D1,1,K*%
%TO.N,GND*%
X25000000Y-78200000D03*
%TO.P,D1,2,A*%
%TO.N,Net-(D1-Pad2)*%
X25000000Y-81800000D03*
%TD*%
D12*
%TO.P,BT1,1,+*%
%TO.N,VCC*%
X12000000Y-33500000D03*
%TO.P,BT1,2,-*%
%TO.N,GND*%
X12000000Y-62500000D03*
%TD*%
D10*
%TO.P,R3,1*%
%TO.N,Net-(R3-Pad1)*%
X24175000Y-54250000D03*
%TO.P,R3,2*%
%TO.N,Net-(C2-Pad1)*%
X25825000Y-54250000D03*
%TD*%
D13*
%TO.P,J4,1,Pin_1*%
%TO.N,Net-(C2-Pad1)*%
X34850000Y-55250000D03*
%TO.P,J4,2,Pin_2*%
%TO.N,GND*%
X34850000Y-54000000D03*
%TO.P,J4,3,Pin_3*%
%TO.N,VCC*%
X34850000Y-52750000D03*
D14*
%TO.P,J4,MP*%
%TO.N,GND*%
X37749988Y-50200001D03*
X37749988Y-57800011D03*
%TD*%
D10*
%TO.P,R6,1*%
%TO.N,Net-(R5-Pad1)*%
X20175000Y-16000000D03*
%TO.P,R6,2*%
%TO.N,Net-(D3-Pad2)*%
X21825000Y-16000000D03*
%TD*%
D15*
%TO.P,C1,1*%
%TO.N,Net-(C1-Pad1)*%
X27750000Y-80775000D03*
%TO.P,C1,2*%
%TO.N,GND*%
X27750000Y-79225000D03*
%TD*%
D16*
%TO.P,R8,1*%
%TO.N,GND*%
X28825000Y-10500000D03*
%TO.P,R8,2*%
%TO.N,Net-(P1-PadA5)*%
X27175000Y-10500000D03*
%TD*%
D13*
%TO.P,J6,1,Pin_1*%
%TO.N,Net-(C3-Pad1)*%
X34850000Y-23250000D03*
%TO.P,J6,2,Pin_2*%
%TO.N,GND*%
X34850000Y-22000000D03*
%TO.P,J6,3,Pin_3*%
%TO.N,VCC*%
X34850000Y-20750000D03*
D14*
%TO.P,J6,MP*%
%TO.N,GND*%
X37749988Y-25799999D03*
X37749988Y-18199999D03*
%TD*%
D10*
%TO.P,R1,1*%
%TO.N,Net-(R1-Pad1)*%
X20175000Y-82250000D03*
%TO.P,R1,2*%
%TO.N,Net-(C1-Pad1)*%
X21825000Y-82250000D03*
%TD*%
D13*
%TO.P,J3,1,Pin_1*%
%TO.N,Net-(C2-Pad1)*%
X34850000Y-43250000D03*
%TO.P,J3,2,Pin_2*%
%TO.N,GND*%
X34850000Y-42000000D03*
%TO.P,J3,3,Pin_3*%
%TO.N,VCC*%
X34850000Y-40750000D03*
D14*
%TO.P,J3,MP*%
%TO.N,GND*%
X37749988Y-45800010D03*
X37749988Y-38200000D03*
%TD*%
D11*
%TO.P,D3,1,K*%
%TO.N,GND*%
X25000001Y-14200001D03*
%TO.P,D3,2,A*%
%TO.N,Net-(D3-Pad2)*%
X25000001Y-17800001D03*
%TD*%
D17*
%TO.P,P1,A5,CC1*%
%TO.N,Net-(P1-PadA5)*%
X26662000Y-6667000D03*
D18*
%TO.P,P1,A9,VBUS*%
%TO.N,VCC*%
X24642000Y-6667000D03*
D19*
%TO.P,P1,A12,GND*%
%TO.N,GND*%
X23412000Y-6667000D03*
D17*
%TO.P,P1,B5,CC2*%
%TO.N,Net-(P1-PadB5)*%
X25662000Y-6667000D03*
D18*
%TO.P,P1,B9,VBUS*%
%TO.N,VCC*%
X27682000Y-6667000D03*
D19*
%TO.P,P1,B12,GND*%
%TO.N,GND*%
X28912000Y-6667000D03*
D20*
%TO.P,P1,S1,SHIELD*%
X30482000Y-6467000D03*
X21842000Y-6467000D03*
X21842000Y-2667000D03*
X30482000Y-2667000D03*
%TD*%
D13*
%TO.P,J1,1,Pin_1*%
%TO.N,Net-(C1-Pad1)*%
X34850000Y-75250000D03*
%TO.P,J1,2,Pin_2*%
%TO.N,GND*%
X34850000Y-74000000D03*
%TO.P,J1,3,Pin_3*%
%TO.N,VCC*%
X34850000Y-72750000D03*
D14*
%TO.P,J1,MP*%
%TO.N,GND*%
X37749988Y-70200012D03*
X37749988Y-77799997D03*
%TD*%
D15*
%TO.P,C3,1*%
%TO.N,Net-(C3-Pad1)*%
X27750000Y-16775000D03*
%TO.P,C3,2*%
%TO.N,GND*%
X27750000Y-15225000D03*
%TD*%
D10*
%TO.P,R4,1*%
%TO.N,Net-(R3-Pad1)*%
X24175000Y-52500000D03*
%TO.P,R4,2*%
%TO.N,Net-(D2-Pad2)*%
X25825000Y-52500000D03*
%TD*%
D13*
%TO.P,J2,1,Pin_1*%
%TO.N,Net-(C1-Pad1)*%
X34850000Y-87250000D03*
%TO.P,J2,2,Pin_2*%
%TO.N,GND*%
X34850000Y-86000000D03*
%TO.P,J2,3,Pin_3*%
%TO.N,VCC*%
X34850000Y-84750000D03*
D14*
%TO.P,J2,MP*%
%TO.N,GND*%
X37749988Y-82199988D03*
X37749988Y-89799998D03*
%TD*%
D10*
%TO.P,R2,1*%
%TO.N,Net-(R1-Pad1)*%
X20175000Y-80000000D03*
%TO.P,R2,2*%
%TO.N,Net-(D1-Pad2)*%
X21825000Y-80000000D03*
%TD*%
D13*
%TO.P,J5,1,Pin_1*%
%TO.N,Net-(C3-Pad1)*%
X34850000Y-11250000D03*
%TO.P,J5,2,Pin_2*%
%TO.N,GND*%
X34850000Y-10000000D03*
%TO.P,J5,3,Pin_3*%
%TO.N,VCC*%
X34850000Y-8750000D03*
D14*
%TO.P,J5,MP*%
%TO.N,GND*%
X37749988Y-6200000D03*
X37749988Y-13800000D03*
%TD*%
D10*
%TO.P,R7,1*%
%TO.N,GND*%
X23675000Y-10500000D03*
%TO.P,R7,2*%
%TO.N,Net-(P1-PadB5)*%
X25325000Y-10500000D03*
%TD*%
D11*
%TO.P,D2,1,K*%
%TO.N,GND*%
X25000000Y-46200000D03*
%TO.P,D2,2,A*%
%TO.N,Net-(D2-Pad2)*%
X25000000Y-49800000D03*
%TD*%
D15*
%TO.P,C2,1*%
%TO.N,Net-(C2-Pad1)*%
X27750000Y-48775000D03*
%TO.P,C2,2*%
%TO.N,GND*%
X27750000Y-47225000D03*
%TD*%
D21*
%TO.N,GND*%
X12000000Y-55000000D03*
%TO.N,VCC*%
X5000000Y-82250000D03*
X4750000Y-20750000D03*
X5250000Y-50250000D03*
%TO.N,Net-(R1-Pad1)*%
X5500000Y-79250000D03*
%TO.N,Net-(R3-Pad1)*%
X6000000Y-47250000D03*
%TO.N,Net-(R5-Pad1)*%
X4750000Y-16000000D03*
%TD*%
D22*
%TO.N,GND*%
X23675000Y-8675000D02*
X23675000Y-10500000D01*
D23*
X37500000Y-74000000D02*
X37750000Y-74250000D01*
X32250000Y-88500000D02*
X33550000Y-89800000D01*
X32750000Y-42000000D02*
X34850000Y-42000000D01*
X27750000Y-47225000D02*
X27750000Y-46400000D01*
X37500000Y-62500000D02*
X37750000Y-62750000D01*
D22*
X23412000Y-8412000D02*
X23675000Y-8675000D01*
D23*
X37750000Y-6200000D02*
X37750000Y-10250000D01*
X27250000Y-74000000D02*
X34850000Y-74000000D01*
X33250000Y-86000000D02*
X32250000Y-87000000D01*
X12000000Y-62500000D02*
X37500000Y-62500000D01*
X32500000Y-25000000D02*
X33300000Y-25800000D01*
X37750000Y-77800000D02*
X37750000Y-82200000D01*
X34850000Y-42000000D02*
X37750000Y-42000000D01*
X34850000Y-10000000D02*
X37500000Y-10000000D01*
X37803831Y-82253831D02*
X37803831Y-89746169D01*
D22*
X23412000Y-6667000D02*
X23412000Y-8412000D01*
D23*
X37750000Y-58750000D02*
X37750000Y-62750000D01*
X37500000Y-10000000D02*
X37750000Y-10250000D01*
X34850000Y-86000000D02*
X33250000Y-86000000D01*
X27550000Y-46200000D02*
X28550000Y-46200000D01*
X32250000Y-57000000D02*
X33050000Y-57800000D01*
X28625000Y-14125000D02*
X32750000Y-10000000D01*
X37750000Y-70200000D02*
X37750000Y-74250000D01*
X12000000Y-62500000D02*
X12000000Y-55000000D01*
X33000000Y-22000000D02*
X32500000Y-22500000D01*
X27750000Y-46400000D02*
X27550000Y-46200000D01*
X37750000Y-74250000D02*
X37750000Y-77800000D01*
X32500000Y-22500000D02*
X32500000Y-25000000D01*
X25000000Y-78200000D02*
X27400000Y-78200000D01*
X32750000Y-10000000D02*
X34850000Y-10000000D01*
X37750000Y-62750000D02*
X37750000Y-70200000D01*
X33550000Y-89800000D02*
X37750000Y-89800000D01*
X25000000Y-78200000D02*
X25000000Y-76250000D01*
X27750000Y-14250000D02*
X27700000Y-14200000D01*
X27700000Y-14200000D02*
X28550000Y-14200000D01*
D22*
X30482000Y-6467000D02*
X29112000Y-6467000D01*
X21842000Y-6467000D02*
X23212000Y-6467000D01*
D23*
X28550000Y-14200000D02*
X28625000Y-14125000D01*
X34850000Y-74000000D02*
X37500000Y-74000000D01*
X37750000Y-10250000D02*
X37750000Y-42000000D01*
X25000000Y-76250000D02*
X27250000Y-74000000D01*
X33000000Y-54000000D02*
X32250000Y-54750000D01*
X32250000Y-54750000D02*
X32250000Y-57000000D01*
X25000000Y-46200000D02*
X27550000Y-46200000D01*
X34850000Y-22000000D02*
X33000000Y-22000000D01*
X37750000Y-42000000D02*
X37750000Y-58750000D01*
X37650000Y-58650000D02*
X37750000Y-58750000D01*
X27750000Y-78550000D02*
X27750000Y-79250000D01*
X34850000Y-54000000D02*
X33000000Y-54000000D01*
X33050000Y-57800000D02*
X37750000Y-57800000D01*
X33300000Y-25800000D02*
X37750000Y-25800000D01*
X27750000Y-15225000D02*
X27750000Y-14250000D01*
X28550000Y-46200000D02*
X32750000Y-42000000D01*
X25000000Y-14200000D02*
X27700000Y-14200000D01*
D22*
X28912000Y-6667000D02*
X28912000Y-10413000D01*
D23*
X27400000Y-78200000D02*
X27750000Y-78550000D01*
X32250000Y-87000000D02*
X32250000Y-88500000D01*
%TO.N,VCC*%
X34850000Y-8750000D02*
X34850000Y-6850000D01*
X3000000Y-33500000D02*
X12000000Y-33500000D01*
D22*
X27686000Y-56134000D02*
X20574000Y-56134000D01*
X20574000Y-56134000D02*
X14690000Y-50250000D01*
D23*
X34850000Y-6850000D02*
X32572000Y-4572000D01*
X6858000Y-4572000D02*
X3000000Y-8430000D01*
X3030000Y-20750000D02*
X3000000Y-20780000D01*
X3000000Y-33576000D02*
X3000000Y-33500000D01*
D22*
X34850000Y-52750000D02*
X31070000Y-52750000D01*
D23*
X29500000Y-33500000D02*
X34750000Y-38750000D01*
X12000000Y-33500000D02*
X29500000Y-33500000D01*
D22*
X14690000Y-50250000D02*
X5250000Y-50250000D01*
D23*
X32572000Y-4572000D02*
X27686000Y-4572000D01*
D22*
X31070000Y-52750000D02*
X27686000Y-56134000D01*
D23*
X3000000Y-50250000D02*
X3000000Y-33576000D01*
X5250000Y-50250000D02*
X3000000Y-50250000D01*
X5000000Y-82250000D02*
X7500000Y-84750000D01*
X4750000Y-20750000D02*
X34850000Y-20750000D01*
X24642000Y-6667000D02*
X24642000Y-4576000D01*
X34850000Y-84750000D02*
X7500000Y-84750000D01*
X24638000Y-4572000D02*
X6858000Y-4572000D01*
X3000000Y-20780000D02*
X3000000Y-33576000D01*
X3000000Y-80250000D02*
X3000000Y-50250000D01*
X27682000Y-6667000D02*
X27682000Y-4576000D01*
X24642000Y-4576000D02*
X24638000Y-4572000D01*
X34750000Y-38750000D02*
X34750000Y-40650000D01*
X3000000Y-8430000D02*
X3000000Y-20780000D01*
X34850000Y-72750000D02*
X3000000Y-72750000D01*
X5000000Y-82250000D02*
X3000000Y-80250000D01*
X27682000Y-4576000D02*
X27686000Y-4572000D01*
X24638000Y-4572000D02*
X27686000Y-4572000D01*
X4750000Y-20750000D02*
X3030000Y-20750000D01*
D22*
%TO.N,Net-(C1-Pad1)*%
X27000000Y-83750000D02*
X27750000Y-83000000D01*
X35951911Y-87250000D02*
X34850000Y-87250000D01*
X32800000Y-80800000D02*
X36250000Y-84250000D01*
X36250000Y-84250000D02*
X36250000Y-86951911D01*
X27750000Y-80800000D02*
X32800000Y-80800000D01*
X21825000Y-83325000D02*
X22250000Y-83750000D01*
X21825000Y-82250000D02*
X21825000Y-83325000D01*
X27750000Y-83000000D02*
X27750000Y-80800000D01*
X34850000Y-75250000D02*
X34850000Y-78750000D01*
X34850000Y-78750000D02*
X32800000Y-80800000D01*
X22250000Y-83750000D02*
X27000000Y-83750000D01*
X36250000Y-86951911D02*
X35951911Y-87250000D01*
%TO.N,Net-(D1-Pad2)*%
X23550000Y-81800000D02*
X25000000Y-81800000D01*
X21825000Y-80075000D02*
X23550000Y-81800000D01*
%TO.N,Net-(R1-Pad1)*%
X6250000Y-80000000D02*
X20175000Y-80000000D01*
X5500000Y-79250000D02*
X6250000Y-80000000D01*
D24*
X20175000Y-80000000D02*
X20175000Y-82250000D01*
D22*
%TO.N,Net-(C2-Pad1)*%
X32725000Y-48775000D02*
X34850000Y-46650000D01*
X32775000Y-48775000D02*
X36500000Y-52500000D01*
X35750000Y-55250000D02*
X34850000Y-55250000D01*
X26500000Y-54250000D02*
X27750000Y-53000000D01*
X27750000Y-48775000D02*
X32775000Y-48775000D01*
X34850000Y-46650000D02*
X34850000Y-43250000D01*
X25825000Y-54250000D02*
X26500000Y-54250000D01*
X36500000Y-52500000D02*
X36500000Y-54500000D01*
X36500000Y-54500000D02*
X35750000Y-55250000D01*
X27750000Y-53000000D02*
X27750000Y-48775000D01*
%TO.N,Net-(C3-Pad1)*%
X29983000Y-16775000D02*
X32708000Y-19500000D01*
X29975000Y-16775000D02*
X34850000Y-11900000D01*
X26250000Y-19500000D02*
X27750000Y-18000000D01*
X21825000Y-18575000D02*
X22750000Y-19500000D01*
X36500000Y-20250000D02*
X36500000Y-22500000D01*
X34850000Y-11900000D02*
X34850000Y-11250000D01*
X27750000Y-16775000D02*
X29975000Y-16775000D01*
X29972000Y-16775000D02*
X29983000Y-16775000D01*
X27750000Y-18000000D02*
X27750000Y-16775000D01*
X35750000Y-19500000D02*
X36500000Y-20250000D01*
X35750000Y-23250000D02*
X34850000Y-23250000D01*
X32708000Y-19500000D02*
X35750000Y-19500000D01*
X36500000Y-22500000D02*
X35750000Y-23250000D01*
X22750000Y-19500000D02*
X26250000Y-19500000D01*
%TO.N,Net-(D2-Pad2)*%
X25050000Y-49800000D02*
X26000000Y-50750000D01*
X26000000Y-50750000D02*
X26000000Y-52325000D01*
%TO.N,Net-(D3-Pad2)*%
X23550000Y-17800000D02*
X25000000Y-17800000D01*
X21825000Y-16075000D02*
X23550000Y-17800000D01*
%TO.N,Net-(R3-Pad1)*%
X15500000Y-47250000D02*
X6000000Y-47250000D01*
X24175000Y-52500000D02*
X20750000Y-52500000D01*
X20750000Y-52500000D02*
X15500000Y-47250000D01*
X24175000Y-52500000D02*
X24175000Y-54250000D01*
%TO.N,Net-(R5-Pad1)*%
X20175000Y-16000000D02*
X4750000Y-16000000D01*
X20175000Y-16000000D02*
X20175000Y-18250000D01*
%TO.N,Net-(P1-PadB5)*%
X25325000Y-9175000D02*
X25662000Y-8838000D01*
X25325000Y-9175000D02*
X25325000Y-10500000D01*
X25662000Y-6667000D02*
X25662000Y-8838000D01*
%TO.N,Net-(P1-PadA5)*%
X26662000Y-6667000D02*
X26662000Y-8662000D01*
X27175000Y-9175000D02*
X27175000Y-10500000D01*
X26662000Y-8662000D02*
X27175000Y-9175000D01*
%TD*%
M02*
