%TF.GenerationSoftware,KiCad,Pcbnew,7.0.8*%
%TF.CreationDate,2024-03-13T10:59:52-04:00*%
%TF.ProjectId,INPUT,494e5055-542e-46b6-9963-61645f706362,rev?*%
%TF.SameCoordinates,Original*%
%TF.FileFunction,Legend,Bot*%
%TF.FilePolarity,Positive*%
%FSLAX46Y46*%
G04 Gerber Fmt 4.6, Leading zero omitted, Abs format (unit mm)*
G04 Created by KiCad (PCBNEW 7.0.8) date 2024-03-13 10:59:52*
%MOMM*%
%LPD*%
G01*
G04 APERTURE LIST*
%ADD10C,1.000000*%
%ADD11C,0.500000*%
%ADD12C,0.960000*%
%ADD13C,0.720000*%
%ADD14C,0.120000*%
%ADD15O,2.600000X2.100000*%
%ADD16O,1.000000X1.700000*%
%ADD17C,0.900000*%
%ADD18R,0.800000X1.000000*%
%ADD19R,1.500000X0.700000*%
G04 APERTURE END LIST*
D10*
X27999997Y-15999956D02*
G75*
G03*
X31999999Y-13000000I-354497J4639356D01*
G01*
X27000000Y-16000000D02*
X28000000Y-16000000D01*
D11*
X36000000Y-74000001D02*
G75*
G03*
X32000001Y-77000000I-500000J-3499999D01*
G01*
D10*
X32000040Y-50999986D02*
G75*
G03*
X28000000Y-48000000I-4354540J-1639414D01*
G01*
X32000040Y-18999986D02*
G75*
G03*
X28000000Y-16000000I-4354540J-1639414D01*
G01*
X36000004Y-10000043D02*
G75*
G03*
X32000000Y-13000000I354496J-4639357D01*
G01*
X27999997Y-79999956D02*
G75*
G03*
X31999999Y-77000000I-354497J4639356D01*
G01*
X27000000Y-48000000D02*
X28000000Y-48000000D01*
X32000040Y-82999986D02*
G75*
G03*
X28000000Y-80000000I-4354540J-1639414D01*
G01*
X40000000Y-42000000D02*
X36000000Y-42000000D01*
D11*
X36000000Y-42000001D02*
G75*
G03*
X32000001Y-45000000I-500000J-3499999D01*
G01*
D10*
X23000000Y-48000000D02*
X14750000Y-48000000D01*
D11*
X36000000Y-10000001D02*
G75*
G03*
X32000001Y-13000000I-500000J-3499999D01*
G01*
D10*
X31999960Y-19000015D02*
G75*
G03*
X36000000Y-22000000I4354540J1639415D01*
G01*
X27999997Y-47999956D02*
G75*
G03*
X31999999Y-45000000I-354497J4639356D01*
G01*
X36000004Y-74000043D02*
G75*
G03*
X32000000Y-77000000I354496J-4639357D01*
G01*
X23000000Y-80000000D02*
X15000000Y-80000000D01*
X31999960Y-83000015D02*
G75*
G03*
X36000000Y-86000000I4354540J1639415D01*
G01*
X27000000Y-80000000D02*
X28000000Y-80000000D01*
X31999960Y-51000015D02*
G75*
G03*
X36000000Y-54000000I4354540J1639415D01*
G01*
X40000000Y-10000000D02*
X36000000Y-10000000D01*
X40000000Y-86000000D02*
X36000000Y-86000000D01*
X23000000Y-16000000D02*
X15000000Y-16000000D01*
X40000000Y-54000000D02*
X36000000Y-54000000D01*
X40000000Y-22000000D02*
X36000000Y-22000000D01*
X40000000Y-74000000D02*
X36000000Y-74000000D01*
X36000004Y-42000043D02*
G75*
G03*
X32000000Y-45000000I354496J-4639357D01*
G01*
D12*
X11252857Y-48480699D02*
X12258571Y-48145461D01*
X12258571Y-48145461D02*
X12593809Y-47810223D01*
X12593809Y-47810223D02*
X12929047Y-47139747D01*
X12929047Y-47139747D02*
X12929047Y-46134033D01*
X12929047Y-46134033D02*
X12593809Y-45463557D01*
X12593809Y-45463557D02*
X12258571Y-45128319D01*
X12258571Y-45128319D02*
X11588095Y-44793080D01*
X11588095Y-44793080D02*
X8906190Y-44793080D01*
X8906190Y-44793080D02*
X8906190Y-51833080D01*
X8906190Y-51833080D02*
X11252857Y-51833080D01*
X11252857Y-51833080D02*
X11923333Y-51497842D01*
X11923333Y-51497842D02*
X12258571Y-51162604D01*
X12258571Y-51162604D02*
X12593809Y-50492128D01*
X12593809Y-50492128D02*
X12593809Y-49821652D01*
X12593809Y-49821652D02*
X12258571Y-49151176D01*
X12258571Y-49151176D02*
X11923333Y-48815938D01*
X11923333Y-48815938D02*
X11252857Y-48480699D01*
X11252857Y-48480699D02*
X8906190Y-48480699D01*
D13*
X5008572Y-85094811D02*
X1991429Y-85094811D01*
X3500000Y-85094811D02*
X3500000Y-90374811D01*
X3500000Y-90374811D02*
X2997143Y-89620525D01*
X2997143Y-89620525D02*
X2494286Y-89117668D01*
X2494286Y-89117668D02*
X1991429Y-88866240D01*
X4508572Y-21094811D02*
X1491429Y-21094811D01*
X3000000Y-21094811D02*
X3000000Y-26374811D01*
X3000000Y-26374811D02*
X2497143Y-25620525D01*
X2497143Y-25620525D02*
X1994286Y-25117668D01*
X1994286Y-25117668D02*
X1491429Y-24866240D01*
X2748572Y-10874811D02*
X3251429Y-10874811D01*
X3251429Y-10874811D02*
X3754286Y-10623382D01*
X3754286Y-10623382D02*
X4005715Y-10371954D01*
X4005715Y-10371954D02*
X4257143Y-9869097D01*
X4257143Y-9869097D02*
X4508572Y-8863382D01*
X4508572Y-8863382D02*
X4508572Y-7606240D01*
X4508572Y-7606240D02*
X4257143Y-6600525D01*
X4257143Y-6600525D02*
X4005715Y-6097668D01*
X4005715Y-6097668D02*
X3754286Y-5846240D01*
X3754286Y-5846240D02*
X3251429Y-5594811D01*
X3251429Y-5594811D02*
X2748572Y-5594811D01*
X2748572Y-5594811D02*
X2245715Y-5846240D01*
X2245715Y-5846240D02*
X1994286Y-6097668D01*
X1994286Y-6097668D02*
X1742857Y-6600525D01*
X1742857Y-6600525D02*
X1491429Y-7606240D01*
X1491429Y-7606240D02*
X1491429Y-8863382D01*
X1491429Y-8863382D02*
X1742857Y-9869097D01*
X1742857Y-9869097D02*
X1994286Y-10371954D01*
X1994286Y-10371954D02*
X2245715Y-10623382D01*
X2245715Y-10623382D02*
X2748572Y-10874811D01*
D12*
X9073809Y-79054509D02*
X12426190Y-79054509D01*
X8403333Y-77043080D02*
X10749999Y-84083080D01*
X10749999Y-84083080D02*
X13096666Y-77043080D01*
D13*
X2748572Y-42874811D02*
X3251429Y-42874811D01*
X3251429Y-42874811D02*
X3754286Y-42623382D01*
X3754286Y-42623382D02*
X4005715Y-42371954D01*
X4005715Y-42371954D02*
X4257143Y-41869097D01*
X4257143Y-41869097D02*
X4508572Y-40863382D01*
X4508572Y-40863382D02*
X4508572Y-39606240D01*
X4508572Y-39606240D02*
X4257143Y-38600525D01*
X4257143Y-38600525D02*
X4005715Y-38097668D01*
X4005715Y-38097668D02*
X3754286Y-37846240D01*
X3754286Y-37846240D02*
X3251429Y-37594811D01*
X3251429Y-37594811D02*
X2748572Y-37594811D01*
X2748572Y-37594811D02*
X2245715Y-37846240D01*
X2245715Y-37846240D02*
X1994286Y-38097668D01*
X1994286Y-38097668D02*
X1742857Y-38600525D01*
X1742857Y-38600525D02*
X1491429Y-39606240D01*
X1491429Y-39606240D02*
X1491429Y-40863382D01*
X1491429Y-40863382D02*
X1742857Y-41869097D01*
X1742857Y-41869097D02*
X1994286Y-42371954D01*
X1994286Y-42371954D02*
X2245715Y-42623382D01*
X2245715Y-42623382D02*
X2748572Y-42874811D01*
D12*
X12929047Y-13463557D02*
X12593809Y-13128319D01*
X12593809Y-13128319D02*
X11588095Y-12793080D01*
X11588095Y-12793080D02*
X10917619Y-12793080D01*
X10917619Y-12793080D02*
X9911904Y-13128319D01*
X9911904Y-13128319D02*
X9241428Y-13798795D01*
X9241428Y-13798795D02*
X8906190Y-14469271D01*
X8906190Y-14469271D02*
X8570952Y-15810223D01*
X8570952Y-15810223D02*
X8570952Y-16815938D01*
X8570952Y-16815938D02*
X8906190Y-18156890D01*
X8906190Y-18156890D02*
X9241428Y-18827366D01*
X9241428Y-18827366D02*
X9911904Y-19497842D01*
X9911904Y-19497842D02*
X10917619Y-19833080D01*
X10917619Y-19833080D02*
X11588095Y-19833080D01*
X11588095Y-19833080D02*
X12593809Y-19497842D01*
X12593809Y-19497842D02*
X12929047Y-19162604D01*
D13*
X2748572Y-74624811D02*
X3251429Y-74624811D01*
X3251429Y-74624811D02*
X3754286Y-74373382D01*
X3754286Y-74373382D02*
X4005715Y-74121954D01*
X4005715Y-74121954D02*
X4257143Y-73619097D01*
X4257143Y-73619097D02*
X4508572Y-72613382D01*
X4508572Y-72613382D02*
X4508572Y-71356240D01*
X4508572Y-71356240D02*
X4257143Y-70350525D01*
X4257143Y-70350525D02*
X4005715Y-69847668D01*
X4005715Y-69847668D02*
X3754286Y-69596240D01*
X3754286Y-69596240D02*
X3251429Y-69344811D01*
X3251429Y-69344811D02*
X2748572Y-69344811D01*
X2748572Y-69344811D02*
X2245715Y-69596240D01*
X2245715Y-69596240D02*
X1994286Y-69847668D01*
X1994286Y-69847668D02*
X1742857Y-70350525D01*
X1742857Y-70350525D02*
X1491429Y-71356240D01*
X1491429Y-71356240D02*
X1491429Y-72613382D01*
X1491429Y-72613382D02*
X1742857Y-73619097D01*
X1742857Y-73619097D02*
X1994286Y-74121954D01*
X1994286Y-74121954D02*
X2245715Y-74373382D01*
X2245715Y-74373382D02*
X2748572Y-74624811D01*
X4508572Y-53094811D02*
X1491429Y-53094811D01*
X3000000Y-53094811D02*
X3000000Y-58374811D01*
X3000000Y-58374811D02*
X2497143Y-57620525D01*
X2497143Y-57620525D02*
X1994286Y-57117668D01*
X1994286Y-57117668D02*
X1491429Y-56866240D01*
D14*
%TO.C,SW1*%
X-795000Y-80100000D02*
X-1005000Y-80300000D01*
X2295000Y-83450000D02*
X1505000Y-83450000D01*
X1505000Y-76550000D02*
X2295000Y-76550000D01*
X3345000Y-78600000D02*
X3345000Y-78400000D01*
X495000Y-82850000D02*
X495000Y-77150000D01*
X3345000Y-81600000D02*
X3345000Y-79900000D01*
X-1005000Y-81200000D02*
X-1005000Y-80300000D01*
X495000Y-81400000D02*
X-795000Y-81400000D01*
X-795000Y-80100000D02*
X495000Y-80100000D01*
X-795000Y-81400000D02*
X-1005000Y-81200000D01*
%TO.C,SW3*%
X-1020000Y-16100000D02*
X270000Y-16100000D01*
X270000Y-17400000D02*
X-1020000Y-17400000D01*
X-1020000Y-17400000D02*
X-1230000Y-17200000D01*
X2070000Y-19450000D02*
X1280000Y-19450000D01*
X3120000Y-17600000D02*
X3120000Y-15900000D01*
X3120000Y-14600000D02*
X3120000Y-14400000D01*
X270000Y-18850000D02*
X270000Y-13150000D01*
X-1020000Y-16100000D02*
X-1230000Y-16300000D01*
X1280000Y-12550000D02*
X2070000Y-12550000D01*
X-1230000Y-17200000D02*
X-1230000Y-16300000D01*
%TO.C,SW2*%
X3120000Y-49600000D02*
X3120000Y-47900000D01*
X-1020000Y-48100000D02*
X270000Y-48100000D01*
X-1230000Y-49200000D02*
X-1230000Y-48300000D01*
X2070000Y-51450000D02*
X1280000Y-51450000D01*
X270000Y-50850000D02*
X270000Y-45150000D01*
X-1020000Y-49400000D02*
X-1230000Y-49200000D01*
X3120000Y-46600000D02*
X3120000Y-46400000D01*
X-1020000Y-48100000D02*
X-1230000Y-48300000D01*
X270000Y-49400000D02*
X-1020000Y-49400000D01*
X1280000Y-44550000D02*
X2070000Y-44550000D01*
%TD*%
%LPC*%
D15*
%TO.C,D1*%
X25000000Y-80000000D03*
%TD*%
%TO.C,D3*%
X25000001Y-16000001D03*
%TD*%
D16*
%TO.C,P1*%
X30482000Y-6467000D03*
X21842000Y-6467000D03*
X21842000Y-2667000D03*
X30482000Y-2667000D03*
%TD*%
D15*
%TO.C,D2*%
X25000000Y-48000000D03*
%TD*%
D17*
%TO.C,SW1*%
X1895000Y-81500000D03*
X1895000Y-78500000D03*
D18*
X3005000Y-76350000D03*
X795000Y-83650000D03*
X3005000Y-83650000D03*
X795000Y-76350000D03*
D19*
X3655000Y-82250000D03*
X3655000Y-79250000D03*
X3655000Y-77750000D03*
%TD*%
D18*
%TO.C,SW3*%
X2780000Y-19650000D03*
X570000Y-19650000D03*
X570000Y-12350000D03*
D17*
X1670000Y-14500000D03*
D18*
X2780000Y-12350000D03*
D17*
X1670000Y-17500000D03*
D19*
X3430000Y-18250000D03*
X3430000Y-15250000D03*
X3430000Y-13750000D03*
%TD*%
D17*
%TO.C,SW2*%
X1670000Y-46500000D03*
D18*
X570000Y-51650000D03*
X2780000Y-51650000D03*
D17*
X1670000Y-49500000D03*
D18*
X570000Y-44350000D03*
X2780000Y-44350000D03*
D19*
X3430000Y-50250000D03*
X3430000Y-47250000D03*
X3430000Y-45750000D03*
%TD*%
%LPD*%
M02*
