%TF.GenerationSoftware,KiCad,Pcbnew,7.0.8*%
%TF.CreationDate,2024-03-12T18:50:45-04:00*%
%TF.ProjectId,XORgate,584f5267-6174-4652-9e6b-696361645f70,rev?*%
%TF.SameCoordinates,Original*%
%TF.FileFunction,Legend,Bot*%
%TF.FilePolarity,Positive*%
%FSLAX46Y46*%
G04 Gerber Fmt 4.6, Leading zero omitted, Abs format (unit mm)*
G04 Created by KiCad (PCBNEW 7.0.8) date 2024-03-12 18:50:45*
%MOMM*%
%LPD*%
G01*
G04 APERTURE LIST*
%ADD10C,1.000000*%
%ADD11C,0.960000*%
%ADD12O,2.600000X2.100000*%
G04 APERTURE END LIST*
D10*
X129473009Y-119253999D02*
G75*
G03*
X129473009Y-91254001I-13999999J13999999D01*
G01*
X129500000Y-115000000D02*
X127750000Y-115000000D01*
X131750000Y-96750000D02*
X136000000Y-96750000D01*
X164999998Y-105000001D02*
G75*
G03*
X142500000Y-91000000I-22301538J-10761399D01*
G01*
X131750000Y-96750000D02*
X129500000Y-95000000D01*
X127750000Y-95000000D02*
X129500000Y-95000000D01*
X168250000Y-105000000D02*
X165000000Y-105000000D01*
X118000000Y-115000000D02*
X125000000Y-115000000D01*
X142500000Y-119000002D02*
G75*
G03*
X165000000Y-105000000I198460J24761402D01*
G01*
X132451010Y-119000000D02*
X142500000Y-119000000D01*
X129625000Y-115000000D02*
X131875000Y-113250000D01*
X132451010Y-91000000D02*
X142500000Y-91000000D01*
X132451009Y-118999999D02*
G75*
G03*
X132451009Y-91000001I-13999999J13999999D01*
G01*
X131875000Y-113250000D02*
X136000000Y-113250000D01*
X124750000Y-95000000D02*
X118000000Y-95000000D01*
X178000000Y-105000000D02*
X171000000Y-105000000D01*
D11*
X139945714Y-108833080D02*
X144639047Y-101793080D01*
X144639047Y-108833080D02*
X139945714Y-101793080D01*
X148661904Y-108833080D02*
X150002857Y-108833080D01*
X150002857Y-108833080D02*
X150673333Y-108497842D01*
X150673333Y-108497842D02*
X151343809Y-107827366D01*
X151343809Y-107827366D02*
X151679047Y-106486414D01*
X151679047Y-106486414D02*
X151679047Y-104139747D01*
X151679047Y-104139747D02*
X151343809Y-102798795D01*
X151343809Y-102798795D02*
X150673333Y-102128319D01*
X150673333Y-102128319D02*
X150002857Y-101793080D01*
X150002857Y-101793080D02*
X148661904Y-101793080D01*
X148661904Y-101793080D02*
X147991428Y-102128319D01*
X147991428Y-102128319D02*
X147320952Y-102798795D01*
X147320952Y-102798795D02*
X146985714Y-104139747D01*
X146985714Y-104139747D02*
X146985714Y-106486414D01*
X146985714Y-106486414D02*
X147320952Y-107827366D01*
X147320952Y-107827366D02*
X147991428Y-108497842D01*
X147991428Y-108497842D02*
X148661904Y-108833080D01*
X158719047Y-101793080D02*
X156372380Y-105145461D01*
X154696190Y-101793080D02*
X154696190Y-108833080D01*
X154696190Y-108833080D02*
X157378095Y-108833080D01*
X157378095Y-108833080D02*
X158048571Y-108497842D01*
X158048571Y-108497842D02*
X158383809Y-108162604D01*
X158383809Y-108162604D02*
X158719047Y-107492128D01*
X158719047Y-107492128D02*
X158719047Y-106486414D01*
X158719047Y-106486414D02*
X158383809Y-105815938D01*
X158383809Y-105815938D02*
X158048571Y-105480699D01*
X158048571Y-105480699D02*
X157378095Y-105145461D01*
X157378095Y-105145461D02*
X154696190Y-105145461D01*
%LPC*%
D12*
%TO.C,D2*%
X126250000Y-115000000D03*
%TD*%
%TO.C,D3*%
X169500000Y-105000000D03*
%TD*%
%TO.C,D1*%
X126250000Y-95000000D03*
%TD*%
%LPD*%
M02*
