%TF.GenerationSoftware,KiCad,Pcbnew,7.0.8*%
%TF.CreationDate,2024-03-12T18:50:45-04:00*%
%TF.ProjectId,XORgate,584f5267-6174-4652-9e6b-696361645f70,rev?*%
%TF.SameCoordinates,Original*%
%TF.FileFunction,Soldermask,Top*%
%TF.FilePolarity,Negative*%
%FSLAX46Y46*%
G04 Gerber Fmt 4.6, Leading zero omitted, Abs format (unit mm)*
G04 Created by KiCad (PCBNEW 7.0.8) date 2024-03-12 18:50:45*
%MOMM*%
%LPD*%
G01*
G04 APERTURE LIST*
G04 Aperture macros list*
%AMRoundRect*
0 Rectangle with rounded corners*
0 $1 Rounding radius*
0 $2 $3 $4 $5 $6 $7 $8 $9 X,Y pos of 4 corners*
0 Add a 4 corners polygon primitive as box body*
4,1,4,$2,$3,$4,$5,$6,$7,$8,$9,$2,$3,0*
0 Add four circle primitives for the rounded corners*
1,1,$1+$1,$2,$3*
1,1,$1+$1,$4,$5*
1,1,$1+$1,$6,$7*
1,1,$1+$1,$8,$9*
0 Add four rect primitives between the rounded corners*
20,1,$1+$1,$2,$3,$4,$5,0*
20,1,$1+$1,$4,$5,$6,$7,0*
20,1,$1+$1,$6,$7,$8,$9,0*
20,1,$1+$1,$8,$9,$2,$3,0*%
G04 Aperture macros list end*
%ADD10RoundRect,0.200000X-0.600000X0.200000X-0.600000X-0.200000X0.600000X-0.200000X0.600000X0.200000X0*%
%ADD11RoundRect,0.250001X-1.249999X0.799999X-1.249999X-0.799999X1.249999X-0.799999X1.249999X0.799999X0*%
%ADD12O,2.600000X2.100000*%
%ADD13RoundRect,0.300000X0.500000X-0.450000X0.500000X0.450000X-0.500000X0.450000X-0.500000X-0.450000X0*%
%ADD14RoundRect,0.200000X0.600000X-0.200000X0.600000X0.200000X-0.600000X0.200000X-0.600000X-0.200000X0*%
%ADD15RoundRect,0.250001X1.249999X-0.799999X1.249999X0.799999X-1.249999X0.799999X-1.249999X-0.799999X0*%
%ADD16RoundRect,0.300000X-0.500000X0.450000X-0.500000X-0.450000X0.500000X-0.450000X0.500000X0.450000X0*%
%ADD17RoundRect,0.150000X-0.512500X-0.150000X0.512500X-0.150000X0.512500X0.150000X-0.512500X0.150000X0*%
%ADD18RoundRect,0.200000X-0.200000X-0.275000X0.200000X-0.275000X0.200000X0.275000X-0.200000X0.275000X0*%
%ADD19RoundRect,0.225000X0.225000X0.250000X-0.225000X0.250000X-0.225000X-0.250000X0.225000X-0.250000X0*%
G04 APERTURE END LIST*
D10*
%TO.C,J1*%
X123150000Y-93750000D03*
X123150000Y-95000000D03*
X123150000Y-96250000D03*
D11*
X120250000Y-91200000D03*
X120250000Y-98800000D03*
%TD*%
D12*
%TO.C,D2*%
X126250000Y-115000000D03*
D13*
X126250000Y-116800000D03*
X126250000Y-113200000D03*
%TD*%
D14*
%TO.C,J4*%
X172850000Y-96500000D03*
X172850000Y-95250000D03*
X172850000Y-94000000D03*
D15*
X175750000Y-99050000D03*
X175750000Y-91450000D03*
%TD*%
D12*
%TO.C,D3*%
X169500000Y-105000000D03*
D16*
X169500000Y-103200000D03*
X169500000Y-106800000D03*
%TD*%
D17*
%TO.C,U1*%
X142240000Y-105034000D03*
X142240000Y-105984000D03*
X142240000Y-106934000D03*
X144515000Y-106934000D03*
X144515000Y-105034000D03*
%TD*%
D12*
%TO.C,D1*%
X126250000Y-95000000D03*
D13*
X126250000Y-96800000D03*
X126250000Y-93200000D03*
%TD*%
D18*
%TO.C,R3*%
X168675000Y-109500000D03*
X170325000Y-109500000D03*
%TD*%
%TO.C,R1*%
X125425000Y-91500000D03*
X127075000Y-91500000D03*
%TD*%
D19*
%TO.C,C1*%
X143775000Y-109750000D03*
X142225000Y-109750000D03*
%TD*%
D14*
%TO.C,J3*%
X172850000Y-107500000D03*
X172850000Y-106250000D03*
X172850000Y-105000000D03*
D15*
X175750000Y-110050000D03*
X175750000Y-102450000D03*
%TD*%
D10*
%TO.C,J2*%
X123150000Y-113750000D03*
X123150000Y-115000000D03*
X123150000Y-116250000D03*
D11*
X120250000Y-111200000D03*
X120250000Y-118800000D03*
%TD*%
D18*
%TO.C,R2*%
X125425000Y-111000000D03*
X127075000Y-111000000D03*
%TD*%
M02*
