%TF.GenerationSoftware,KiCad,Pcbnew,(6.0.4-0)*%
%TF.CreationDate,2022-12-31T15:50:48-05:00*%
%TF.ProjectId,ANDgate,414e4467-6174-4652-9e6b-696361645f70,rev?*%
%TF.SameCoordinates,Original*%
%TF.FileFunction,Copper,L2,Bot*%
%TF.FilePolarity,Positive*%
%FSLAX46Y46*%
G04 Gerber Fmt 4.6, Leading zero omitted, Abs format (unit mm)*
G04 Created by KiCad (PCBNEW (6.0.4-0)) date 2022-12-31 15:50:48*
%MOMM*%
%LPD*%
G01*
G04 APERTURE LIST*
G04 Aperture macros list*
%AMRoundRect*
0 Rectangle with rounded corners*
0 $1 Rounding radius*
0 $2 $3 $4 $5 $6 $7 $8 $9 X,Y pos of 4 corners*
0 Add a 4 corners polygon primitive as box body*
4,1,4,$2,$3,$4,$5,$6,$7,$8,$9,$2,$3,0*
0 Add four circle primitives for the rounded corners*
1,1,$1+$1,$2,$3*
1,1,$1+$1,$4,$5*
1,1,$1+$1,$6,$7*
1,1,$1+$1,$8,$9*
0 Add four rect primitives between the rounded corners*
20,1,$1+$1,$2,$3,$4,$5,0*
20,1,$1+$1,$4,$5,$6,$7,0*
20,1,$1+$1,$6,$7,$8,$9,0*
20,1,$1+$1,$8,$9,$2,$3,0*%
G04 Aperture macros list end*
%TA.AperFunction,ComponentPad*%
%ADD10RoundRect,0.200000X0.450000X-0.200000X0.450000X0.200000X-0.450000X0.200000X-0.450000X-0.200000X0*%
%TD*%
%TA.AperFunction,ComponentPad*%
%ADD11O,1.300000X0.800000*%
%TD*%
G04 APERTURE END LIST*
D10*
%TO.P,J4,1,Pin_1*%
%TO.N,/Y*%
X173300000Y-95500000D03*
D11*
%TO.P,J4,2,Pin_2*%
%TO.N,GND*%
X173300000Y-94250000D03*
%TO.P,J4,3,Pin_3*%
%TO.N,+5V*%
X173300000Y-93000000D03*
%TD*%
D10*
%TO.P,J3,1,Pin_1*%
%TO.N,/Y*%
X173300000Y-106250000D03*
D11*
%TO.P,J3,2,Pin_2*%
%TO.N,GND*%
X173300000Y-105000000D03*
%TO.P,J3,3,Pin_3*%
%TO.N,+5V*%
X173300000Y-103750000D03*
%TD*%
%TA.AperFunction,Conductor*%
%TO.N,GND*%
G36*
X168536523Y-85409239D02*
G01*
X177948322Y-90362817D01*
X177972298Y-90391654D01*
X177974500Y-90406178D01*
X177974500Y-119601022D01*
X177960148Y-119635670D01*
X177948322Y-119644383D01*
X168536523Y-124597961D01*
X168513701Y-124603600D01*
X118950100Y-124603600D01*
X118915452Y-124589248D01*
X118901100Y-124554600D01*
X118901100Y-115000000D01*
X124694532Y-115000000D01*
X124714365Y-115226692D01*
X124773261Y-115446496D01*
X124869432Y-115652734D01*
X124999953Y-115839139D01*
X125160861Y-116000047D01*
X125347266Y-116130568D01*
X125349203Y-116131471D01*
X125349206Y-116131473D01*
X125460925Y-116183569D01*
X125553504Y-116226739D01*
X125555569Y-116227292D01*
X125555571Y-116227293D01*
X125771236Y-116285080D01*
X125771238Y-116285080D01*
X125773308Y-116285635D01*
X125775435Y-116285821D01*
X125775440Y-116285822D01*
X125942150Y-116300407D01*
X125942156Y-116300407D01*
X125943216Y-116300500D01*
X126556784Y-116300500D01*
X126557844Y-116300407D01*
X126557850Y-116300407D01*
X126724560Y-116285822D01*
X126724565Y-116285821D01*
X126726692Y-116285635D01*
X126728762Y-116285080D01*
X126728764Y-116285080D01*
X126944429Y-116227293D01*
X126944431Y-116227292D01*
X126946496Y-116226739D01*
X127039075Y-116183569D01*
X127150794Y-116131473D01*
X127150797Y-116131471D01*
X127152734Y-116130568D01*
X127339139Y-116000047D01*
X127500047Y-115839139D01*
X127630568Y-115652734D01*
X127726739Y-115446496D01*
X127785635Y-115226692D01*
X127805468Y-115000000D01*
X127785635Y-114773308D01*
X127726739Y-114553504D01*
X127630568Y-114347266D01*
X127500047Y-114160861D01*
X127339139Y-113999953D01*
X127152734Y-113869432D01*
X127150797Y-113868529D01*
X127150794Y-113868527D01*
X127039075Y-113816431D01*
X126946496Y-113773261D01*
X126944431Y-113772708D01*
X126944429Y-113772707D01*
X126728764Y-113714920D01*
X126728762Y-113714920D01*
X126726692Y-113714365D01*
X126724565Y-113714179D01*
X126724560Y-113714178D01*
X126557850Y-113699593D01*
X126557844Y-113699593D01*
X126556784Y-113699500D01*
X125943216Y-113699500D01*
X125942156Y-113699593D01*
X125942150Y-113699593D01*
X125775440Y-113714178D01*
X125775435Y-113714179D01*
X125773308Y-113714365D01*
X125771238Y-113714920D01*
X125771236Y-113714920D01*
X125555571Y-113772707D01*
X125555569Y-113772708D01*
X125553504Y-113773261D01*
X125460925Y-113816431D01*
X125349206Y-113868527D01*
X125349203Y-113868529D01*
X125347266Y-113869432D01*
X125160861Y-113999953D01*
X124999953Y-114160861D01*
X124869432Y-114347266D01*
X124773261Y-114553504D01*
X124714365Y-114773308D01*
X124694532Y-115000000D01*
X118901100Y-115000000D01*
X118901100Y-105000000D01*
X168194532Y-105000000D01*
X168194718Y-105002126D01*
X168206306Y-105134574D01*
X168214365Y-105226692D01*
X168273261Y-105446496D01*
X168311235Y-105527931D01*
X168365210Y-105643679D01*
X168369432Y-105652734D01*
X168499953Y-105839139D01*
X168660861Y-106000047D01*
X168847266Y-106130568D01*
X168849203Y-106131471D01*
X168849206Y-106131473D01*
X168960925Y-106183569D01*
X169053504Y-106226739D01*
X169055569Y-106227292D01*
X169055571Y-106227293D01*
X169271236Y-106285080D01*
X169271238Y-106285080D01*
X169273308Y-106285635D01*
X169275435Y-106285821D01*
X169275440Y-106285822D01*
X169442150Y-106300407D01*
X169442156Y-106300407D01*
X169443216Y-106300500D01*
X169556784Y-106300500D01*
X169557844Y-106300407D01*
X169557850Y-106300407D01*
X169724560Y-106285822D01*
X169724565Y-106285821D01*
X169726692Y-106285635D01*
X169728762Y-106285080D01*
X169728764Y-106285080D01*
X169944429Y-106227293D01*
X169944431Y-106227292D01*
X169946496Y-106226739D01*
X170039075Y-106183569D01*
X170150794Y-106131473D01*
X170150797Y-106131471D01*
X170152734Y-106130568D01*
X170339139Y-106000047D01*
X170500047Y-105839139D01*
X170630568Y-105652734D01*
X170634791Y-105643679D01*
X170688765Y-105527931D01*
X170726739Y-105446496D01*
X170785635Y-105226692D01*
X170793695Y-105134574D01*
X170794055Y-105130462D01*
X172408940Y-105130462D01*
X172456235Y-105276023D01*
X172458842Y-105281562D01*
X172543535Y-105415017D01*
X172547430Y-105419726D01*
X172662658Y-105527931D01*
X172667604Y-105531525D01*
X172808817Y-105609158D01*
X172807863Y-105610893D01*
X172830369Y-105632762D01*
X172830906Y-105670262D01*
X172804771Y-105697158D01*
X172792510Y-105700639D01*
X172747188Y-105707310D01*
X172641728Y-105759089D01*
X172558726Y-105842236D01*
X172507131Y-105947786D01*
X172497100Y-106016548D01*
X172497100Y-106483452D01*
X172507310Y-106552812D01*
X172559089Y-106658272D01*
X172642236Y-106741274D01*
X172747786Y-106792869D01*
X172816548Y-106802900D01*
X173783452Y-106802900D01*
X173785209Y-106802641D01*
X173785214Y-106802641D01*
X173849048Y-106793244D01*
X173852812Y-106792690D01*
X173958272Y-106740911D01*
X174041274Y-106657764D01*
X174092869Y-106552214D01*
X174102900Y-106483452D01*
X174102900Y-106016548D01*
X174100652Y-106001272D01*
X174093244Y-105950952D01*
X174092690Y-105947188D01*
X174040911Y-105841728D01*
X173957764Y-105758726D01*
X173852214Y-105707131D01*
X173848451Y-105706582D01*
X173798124Y-105699240D01*
X173765911Y-105680036D01*
X173756711Y-105643679D01*
X173775915Y-105611466D01*
X173787160Y-105605194D01*
X173862763Y-105575261D01*
X173868121Y-105572316D01*
X173996002Y-105479404D01*
X174000455Y-105475222D01*
X174101211Y-105353429D01*
X174104486Y-105348268D01*
X174171790Y-105205242D01*
X174173677Y-105199432D01*
X174186050Y-105134574D01*
X174184537Y-105127268D01*
X174181083Y-105125000D01*
X172416912Y-105125000D01*
X172410020Y-105127855D01*
X172408940Y-105130462D01*
X170794055Y-105130462D01*
X170805282Y-105002126D01*
X170805468Y-105000000D01*
X170794532Y-104875000D01*
X170793694Y-104865426D01*
X172413950Y-104865426D01*
X172415463Y-104872732D01*
X172418917Y-104875000D01*
X174183088Y-104875000D01*
X174189980Y-104872145D01*
X174191060Y-104869538D01*
X174143765Y-104723977D01*
X174141158Y-104718438D01*
X174056465Y-104584983D01*
X174052570Y-104580274D01*
X173937342Y-104472069D01*
X173932396Y-104468475D01*
X173793882Y-104392326D01*
X173788195Y-104390074D01*
X173722805Y-104373284D01*
X173692814Y-104350767D01*
X173687531Y-104313638D01*
X173710048Y-104283647D01*
X173715525Y-104280857D01*
X173797847Y-104245233D01*
X173836044Y-104228704D01*
X173836045Y-104228703D01*
X173839110Y-104227377D01*
X173956836Y-104132044D01*
X174044588Y-104008565D01*
X174072780Y-103930261D01*
X174094771Y-103869177D01*
X174094771Y-103869176D01*
X174095902Y-103866035D01*
X174106997Y-103714957D01*
X174077055Y-103566460D01*
X174008282Y-103431486D01*
X173905745Y-103319978D01*
X173891058Y-103310872D01*
X173779833Y-103241909D01*
X173779832Y-103241909D01*
X173776999Y-103240152D01*
X173773796Y-103239221D01*
X173773795Y-103239221D01*
X173634001Y-103198607D01*
X173633999Y-103198607D01*
X173631529Y-103197889D01*
X173628965Y-103197701D01*
X173628961Y-103197700D01*
X173625227Y-103197426D01*
X173620785Y-103197100D01*
X173012054Y-103197100D01*
X173010407Y-103197326D01*
X173010401Y-103197326D01*
X172955601Y-103204833D01*
X172899916Y-103212461D01*
X172896850Y-103213788D01*
X172896849Y-103213788D01*
X172763956Y-103271296D01*
X172763955Y-103271297D01*
X172760890Y-103272623D01*
X172643164Y-103367956D01*
X172555412Y-103491435D01*
X172554281Y-103494575D01*
X172554280Y-103494578D01*
X172505229Y-103630823D01*
X172504098Y-103633965D01*
X172503854Y-103637293D01*
X172503853Y-103637296D01*
X172498153Y-103714920D01*
X172493003Y-103785043D01*
X172522945Y-103933540D01*
X172591718Y-104068514D01*
X172694255Y-104180022D01*
X172697092Y-104181781D01*
X172767241Y-104225275D01*
X172823001Y-104259848D01*
X172826204Y-104260779D01*
X172826205Y-104260779D01*
X172876307Y-104275335D01*
X172905575Y-104298783D01*
X172909690Y-104336060D01*
X172886242Y-104365328D01*
X172880674Y-104367948D01*
X172737237Y-104424739D01*
X172731879Y-104427684D01*
X172603998Y-104520596D01*
X172599545Y-104524778D01*
X172498789Y-104646571D01*
X172495514Y-104651732D01*
X172428210Y-104794758D01*
X172426323Y-104800568D01*
X172413950Y-104865426D01*
X170793694Y-104865426D01*
X170785822Y-104775440D01*
X170785821Y-104775435D01*
X170785635Y-104773308D01*
X170726739Y-104553504D01*
X170668068Y-104427684D01*
X170631473Y-104349206D01*
X170631471Y-104349203D01*
X170630568Y-104347266D01*
X170500047Y-104160861D01*
X170339139Y-103999953D01*
X170152734Y-103869432D01*
X170150797Y-103868529D01*
X170150794Y-103868527D01*
X169971762Y-103785043D01*
X169946496Y-103773261D01*
X169944431Y-103772708D01*
X169944429Y-103772707D01*
X169728764Y-103714920D01*
X169728762Y-103714920D01*
X169726692Y-103714365D01*
X169724565Y-103714179D01*
X169724560Y-103714178D01*
X169557850Y-103699593D01*
X169557844Y-103699593D01*
X169556784Y-103699500D01*
X169443216Y-103699500D01*
X169442156Y-103699593D01*
X169442150Y-103699593D01*
X169275440Y-103714178D01*
X169275435Y-103714179D01*
X169273308Y-103714365D01*
X169271238Y-103714920D01*
X169271236Y-103714920D01*
X169055571Y-103772707D01*
X169055569Y-103772708D01*
X169053504Y-103773261D01*
X169028238Y-103785043D01*
X168849206Y-103868527D01*
X168849203Y-103868529D01*
X168847266Y-103869432D01*
X168660861Y-103999953D01*
X168499953Y-104160861D01*
X168369432Y-104347266D01*
X168368529Y-104349203D01*
X168368527Y-104349206D01*
X168331932Y-104427684D01*
X168273261Y-104553504D01*
X168214365Y-104773308D01*
X168214179Y-104775435D01*
X168214178Y-104775440D01*
X168205468Y-104875000D01*
X168194532Y-105000000D01*
X118901100Y-105000000D01*
X118901100Y-95000000D01*
X124694532Y-95000000D01*
X124694718Y-95002126D01*
X124711784Y-95197188D01*
X124714365Y-95226692D01*
X124773261Y-95446496D01*
X124869432Y-95652734D01*
X124999953Y-95839139D01*
X125160861Y-96000047D01*
X125347266Y-96130568D01*
X125349203Y-96131471D01*
X125349206Y-96131473D01*
X125460925Y-96183569D01*
X125553504Y-96226739D01*
X125555569Y-96227292D01*
X125555571Y-96227293D01*
X125771236Y-96285080D01*
X125771238Y-96285080D01*
X125773308Y-96285635D01*
X125775435Y-96285821D01*
X125775440Y-96285822D01*
X125942150Y-96300407D01*
X125942156Y-96300407D01*
X125943216Y-96300500D01*
X126556784Y-96300500D01*
X126557844Y-96300407D01*
X126557850Y-96300407D01*
X126724560Y-96285822D01*
X126724565Y-96285821D01*
X126726692Y-96285635D01*
X126728762Y-96285080D01*
X126728764Y-96285080D01*
X126944429Y-96227293D01*
X126944431Y-96227292D01*
X126946496Y-96226739D01*
X127039075Y-96183569D01*
X127150794Y-96131473D01*
X127150797Y-96131471D01*
X127152734Y-96130568D01*
X127339139Y-96000047D01*
X127500047Y-95839139D01*
X127630568Y-95652734D01*
X127726739Y-95446496D01*
X127785635Y-95226692D01*
X127788217Y-95197188D01*
X127805282Y-95002126D01*
X127805468Y-95000000D01*
X127801733Y-94957310D01*
X127785822Y-94775440D01*
X127785821Y-94775435D01*
X127785635Y-94773308D01*
X127772751Y-94725222D01*
X127727293Y-94555571D01*
X127727292Y-94555569D01*
X127726739Y-94553504D01*
X127646048Y-94380462D01*
X172408940Y-94380462D01*
X172456235Y-94526023D01*
X172458842Y-94531562D01*
X172543535Y-94665017D01*
X172547430Y-94669726D01*
X172662658Y-94777931D01*
X172667604Y-94781525D01*
X172808817Y-94859158D01*
X172807863Y-94860893D01*
X172830369Y-94882762D01*
X172830906Y-94920262D01*
X172804771Y-94947158D01*
X172792510Y-94950639D01*
X172747188Y-94957310D01*
X172641728Y-95009089D01*
X172558726Y-95092236D01*
X172507131Y-95197786D01*
X172497100Y-95266548D01*
X172497100Y-95733452D01*
X172507310Y-95802812D01*
X172559089Y-95908272D01*
X172642236Y-95991274D01*
X172747786Y-96042869D01*
X172816548Y-96052900D01*
X173783452Y-96052900D01*
X173785209Y-96052641D01*
X173785214Y-96052641D01*
X173849048Y-96043244D01*
X173852812Y-96042690D01*
X173958272Y-95990911D01*
X174041274Y-95907764D01*
X174092869Y-95802214D01*
X174102900Y-95733452D01*
X174102900Y-95266548D01*
X174092690Y-95197188D01*
X174040911Y-95091728D01*
X173957764Y-95008726D01*
X173852214Y-94957131D01*
X173848451Y-94956582D01*
X173798124Y-94949240D01*
X173765911Y-94930036D01*
X173756711Y-94893679D01*
X173775915Y-94861466D01*
X173787160Y-94855194D01*
X173862763Y-94825261D01*
X173868121Y-94822316D01*
X173996002Y-94729404D01*
X174000455Y-94725222D01*
X174101211Y-94603429D01*
X174104486Y-94598268D01*
X174171790Y-94455242D01*
X174173677Y-94449432D01*
X174186050Y-94384574D01*
X174184537Y-94377268D01*
X174181083Y-94375000D01*
X172416912Y-94375000D01*
X172410020Y-94377855D01*
X172408940Y-94380462D01*
X127646048Y-94380462D01*
X127644832Y-94377855D01*
X127631473Y-94349206D01*
X127631471Y-94349203D01*
X127630568Y-94347266D01*
X127500047Y-94160861D01*
X127454612Y-94115426D01*
X172413950Y-94115426D01*
X172415463Y-94122732D01*
X172418917Y-94125000D01*
X174183088Y-94125000D01*
X174189980Y-94122145D01*
X174191060Y-94119538D01*
X174143765Y-93973977D01*
X174141158Y-93968438D01*
X174056465Y-93834983D01*
X174052570Y-93830274D01*
X173937342Y-93722069D01*
X173932396Y-93718475D01*
X173793882Y-93642326D01*
X173788195Y-93640074D01*
X173722805Y-93623284D01*
X173692814Y-93600767D01*
X173687531Y-93563638D01*
X173710048Y-93533647D01*
X173715525Y-93530857D01*
X173797847Y-93495233D01*
X173836044Y-93478704D01*
X173836045Y-93478703D01*
X173839110Y-93477377D01*
X173956836Y-93382044D01*
X174044588Y-93258565D01*
X174072780Y-93180261D01*
X174094771Y-93119177D01*
X174094771Y-93119176D01*
X174095902Y-93116035D01*
X174106997Y-92964957D01*
X174077055Y-92816460D01*
X174008282Y-92681486D01*
X173905745Y-92569978D01*
X173891058Y-92560872D01*
X173779833Y-92491909D01*
X173779832Y-92491909D01*
X173776999Y-92490152D01*
X173773796Y-92489221D01*
X173773795Y-92489221D01*
X173634001Y-92448607D01*
X173633999Y-92448607D01*
X173631529Y-92447889D01*
X173628965Y-92447701D01*
X173628961Y-92447700D01*
X173625227Y-92447426D01*
X173620785Y-92447100D01*
X173012054Y-92447100D01*
X173010407Y-92447326D01*
X173010401Y-92447326D01*
X172955601Y-92454833D01*
X172899916Y-92462461D01*
X172896850Y-92463788D01*
X172896849Y-92463788D01*
X172763956Y-92521296D01*
X172763955Y-92521297D01*
X172760890Y-92522623D01*
X172643164Y-92617956D01*
X172555412Y-92741435D01*
X172554281Y-92744575D01*
X172554280Y-92744578D01*
X172505229Y-92880823D01*
X172504098Y-92883965D01*
X172493003Y-93035043D01*
X172522945Y-93183540D01*
X172591718Y-93318514D01*
X172694255Y-93430022D01*
X172697092Y-93431781D01*
X172767241Y-93475275D01*
X172823001Y-93509848D01*
X172826204Y-93510779D01*
X172826205Y-93510779D01*
X172876307Y-93525335D01*
X172905575Y-93548783D01*
X172909690Y-93586060D01*
X172886242Y-93615328D01*
X172880674Y-93617948D01*
X172737237Y-93674739D01*
X172731879Y-93677684D01*
X172603998Y-93770596D01*
X172599545Y-93774778D01*
X172498789Y-93896571D01*
X172495514Y-93901732D01*
X172428210Y-94044758D01*
X172426323Y-94050568D01*
X172413950Y-94115426D01*
X127454612Y-94115426D01*
X127339139Y-93999953D01*
X127152734Y-93869432D01*
X127150797Y-93868529D01*
X127150794Y-93868527D01*
X126949749Y-93774778D01*
X126946496Y-93773261D01*
X126944431Y-93772708D01*
X126944429Y-93772707D01*
X126728764Y-93714920D01*
X126728762Y-93714920D01*
X126726692Y-93714365D01*
X126724565Y-93714179D01*
X126724560Y-93714178D01*
X126557850Y-93699593D01*
X126557844Y-93699593D01*
X126556784Y-93699500D01*
X125943216Y-93699500D01*
X125942156Y-93699593D01*
X125942150Y-93699593D01*
X125775440Y-93714178D01*
X125775435Y-93714179D01*
X125773308Y-93714365D01*
X125771238Y-93714920D01*
X125771236Y-93714920D01*
X125555571Y-93772707D01*
X125555569Y-93772708D01*
X125553504Y-93773261D01*
X125550251Y-93774778D01*
X125349206Y-93868527D01*
X125349203Y-93868529D01*
X125347266Y-93869432D01*
X125160861Y-93999953D01*
X124999953Y-94160861D01*
X124869432Y-94347266D01*
X124868529Y-94349203D01*
X124868527Y-94349206D01*
X124855168Y-94377855D01*
X124773261Y-94553504D01*
X124772708Y-94555569D01*
X124772707Y-94555571D01*
X124727250Y-94725222D01*
X124714365Y-94773308D01*
X124714179Y-94775435D01*
X124714178Y-94775440D01*
X124698267Y-94957310D01*
X124694532Y-95000000D01*
X118901100Y-95000000D01*
X118901100Y-85452600D01*
X118915452Y-85417952D01*
X118950100Y-85403600D01*
X168513701Y-85403600D01*
X168536523Y-85409239D01*
G37*
%TD.AperFunction*%
%TD*%
M02*
