%TF.GenerationSoftware,KiCad,Pcbnew,(6.0.4-0)*%
%TF.CreationDate,2022-12-31T15:50:48-05:00*%
%TF.ProjectId,ANDgate,414e4467-6174-4652-9e6b-696361645f70,rev?*%
%TF.SameCoordinates,Original*%
%TF.FileFunction,Copper,L1,Top*%
%TF.FilePolarity,Positive*%
%FSLAX46Y46*%
G04 Gerber Fmt 4.6, Leading zero omitted, Abs format (unit mm)*
G04 Created by KiCad (PCBNEW (6.0.4-0)) date 2022-12-31 15:50:48*
%MOMM*%
%LPD*%
G01*
G04 APERTURE LIST*
G04 Aperture macros list*
%AMRoundRect*
0 Rectangle with rounded corners*
0 $1 Rounding radius*
0 $2 $3 $4 $5 $6 $7 $8 $9 X,Y pos of 4 corners*
0 Add a 4 corners polygon primitive as box body*
4,1,4,$2,$3,$4,$5,$6,$7,$8,$9,$2,$3,0*
0 Add four circle primitives for the rounded corners*
1,1,$1+$1,$2,$3*
1,1,$1+$1,$4,$5*
1,1,$1+$1,$6,$7*
1,1,$1+$1,$8,$9*
0 Add four rect primitives between the rounded corners*
20,1,$1+$1,$2,$3,$4,$5,0*
20,1,$1+$1,$4,$5,$6,$7,0*
20,1,$1+$1,$6,$7,$8,$9,0*
20,1,$1+$1,$8,$9,$2,$3,0*%
G04 Aperture macros list end*
%TA.AperFunction,ComponentPad*%
%ADD10RoundRect,0.200000X0.450000X-0.200000X0.450000X0.200000X-0.450000X0.200000X-0.450000X-0.200000X0*%
%TD*%
%TA.AperFunction,ComponentPad*%
%ADD11O,1.300000X0.800000*%
%TD*%
%TA.AperFunction,SMDPad,CuDef*%
%ADD12R,0.700000X1.000000*%
%TD*%
%TA.AperFunction,SMDPad,CuDef*%
%ADD13RoundRect,0.200000X-0.600000X0.200000X-0.600000X-0.200000X0.600000X-0.200000X0.600000X0.200000X0*%
%TD*%
%TA.AperFunction,SMDPad,CuDef*%
%ADD14RoundRect,0.250001X-1.249999X0.799999X-1.249999X-0.799999X1.249999X-0.799999X1.249999X0.799999X0*%
%TD*%
%TA.AperFunction,SMDPad,CuDef*%
%ADD15RoundRect,0.300000X0.500000X-0.450000X0.500000X0.450000X-0.500000X0.450000X-0.500000X-0.450000X0*%
%TD*%
%TA.AperFunction,SMDPad,CuDef*%
%ADD16RoundRect,0.150000X-0.512500X-0.150000X0.512500X-0.150000X0.512500X0.150000X-0.512500X0.150000X0*%
%TD*%
%TA.AperFunction,SMDPad,CuDef*%
%ADD17RoundRect,0.200000X-0.200000X-0.275000X0.200000X-0.275000X0.200000X0.275000X-0.200000X0.275000X0*%
%TD*%
%TA.AperFunction,SMDPad,CuDef*%
%ADD18RoundRect,0.225000X0.225000X0.250000X-0.225000X0.250000X-0.225000X-0.250000X0.225000X-0.250000X0*%
%TD*%
%TA.AperFunction,Conductor*%
%ADD19C,0.300000*%
%TD*%
G04 APERTURE END LIST*
D10*
%TO.P,J4,1,Pin_1*%
%TO.N,/Y*%
X173300000Y-95500000D03*
D11*
%TO.P,J4,2,Pin_2*%
%TO.N,GND*%
X173300000Y-94250000D03*
%TO.P,J4,3,Pin_3*%
%TO.N,+5V*%
X173300000Y-93000000D03*
%TD*%
D10*
%TO.P,J3,1,Pin_1*%
%TO.N,/Y*%
X173300000Y-106250000D03*
D11*
%TO.P,J3,2,Pin_2*%
%TO.N,GND*%
X173300000Y-105000000D03*
%TO.P,J3,3,Pin_3*%
%TO.N,+5V*%
X173300000Y-103750000D03*
%TD*%
D12*
%TO.P,D3,1,K*%
%TO.N,GND*%
X169500000Y-102200000D03*
%TO.P,D3,2,A*%
%TO.N,Net-(D3-Pad2)*%
X169500000Y-107800000D03*
%TD*%
D13*
%TO.P,J1,1,Pin_1*%
%TO.N,/A*%
X123150000Y-93750000D03*
%TO.P,J1,2,Pin_2*%
%TO.N,GND*%
X123150000Y-95000000D03*
%TO.P,J1,3,Pin_3*%
%TO.N,+5V*%
X123150000Y-96250000D03*
D14*
%TO.P,J1,MP*%
%TO.N,N/C*%
X120250000Y-91200000D03*
X120250000Y-98800000D03*
%TD*%
D15*
%TO.P,D2,1,K*%
%TO.N,GND*%
X126250000Y-116800000D03*
%TO.P,D2,2,A*%
%TO.N,Net-(D2-Pad2)*%
X126250000Y-113200000D03*
%TD*%
D16*
%TO.P,U1,1*%
%TO.N,/A*%
X142240000Y-105034000D03*
%TO.P,U1,2*%
%TO.N,/B*%
X142240000Y-105984000D03*
%TO.P,U1,3,GND*%
%TO.N,GND*%
X142240000Y-106934000D03*
%TO.P,U1,4*%
%TO.N,/Y*%
X144515000Y-106934000D03*
%TO.P,U1,5,VCC*%
%TO.N,+5V*%
X144515000Y-105034000D03*
%TD*%
D15*
%TO.P,D1,1,K*%
%TO.N,GND*%
X126250000Y-96800000D03*
%TO.P,D1,2,A*%
%TO.N,Net-(D1-Pad2)*%
X126250000Y-93200000D03*
%TD*%
D17*
%TO.P,R3,1*%
%TO.N,/Y*%
X168675000Y-109500000D03*
%TO.P,R3,2*%
%TO.N,Net-(D3-Pad2)*%
X170325000Y-109500000D03*
%TD*%
%TO.P,R1,1*%
%TO.N,/A*%
X125425000Y-91500000D03*
%TO.P,R1,2*%
%TO.N,Net-(D1-Pad2)*%
X127075000Y-91500000D03*
%TD*%
D18*
%TO.P,C1,1*%
%TO.N,+5V*%
X143775000Y-109750000D03*
%TO.P,C1,2*%
%TO.N,GND*%
X142225000Y-109750000D03*
%TD*%
D13*
%TO.P,J2,1,Pin_1*%
%TO.N,/B*%
X123150000Y-113750000D03*
%TO.P,J2,2,Pin_2*%
%TO.N,GND*%
X123150000Y-115000000D03*
%TO.P,J2,3,Pin_3*%
%TO.N,+5V*%
X123150000Y-116250000D03*
D14*
%TO.P,J2,MP*%
%TO.N,N/C*%
X120250000Y-111200000D03*
X120250000Y-118800000D03*
%TD*%
D17*
%TO.P,R2,1*%
%TO.N,/B*%
X125425000Y-111000000D03*
%TO.P,R2,2*%
%TO.N,Net-(D2-Pad2)*%
X127075000Y-111000000D03*
%TD*%
D19*
%TO.N,/Y*%
X167109000Y-106934000D02*
X167109000Y-103091000D01*
X167109000Y-103091000D02*
X173300000Y-96900000D01*
X173300000Y-96900000D02*
X173300000Y-95500000D01*
%TO.N,GND*%
X173300000Y-94250000D02*
X175550000Y-94250000D01*
X175550000Y-94250000D02*
X175750000Y-94450000D01*
X175750000Y-94450000D02*
X175750000Y-101000000D01*
%TO.N,+5V*%
X173300000Y-93000000D02*
X150700000Y-93000000D01*
X150700000Y-93000000D02*
X144500000Y-99200000D01*
%TO.N,GND*%
X171500000Y-101750000D02*
X171500000Y-102250000D01*
X171500000Y-102250000D02*
X171500000Y-102750000D01*
X169500000Y-102200000D02*
X171450000Y-102200000D01*
X171450000Y-102200000D02*
X171500000Y-102250000D01*
%TO.N,Net-(D3-Pad2)*%
X169500000Y-107800000D02*
X170325000Y-108625000D01*
X170325000Y-108625000D02*
X170325000Y-109500000D01*
%TO.N,GND*%
X171500000Y-102750000D02*
X171500000Y-104250000D01*
X175750000Y-101000000D02*
X175750000Y-101200000D01*
X175750000Y-101000000D02*
X172250000Y-101000000D01*
X172250000Y-101000000D02*
X171500000Y-101750000D01*
X172250000Y-105000000D02*
X173500000Y-105000000D01*
X171500000Y-104250000D02*
X172250000Y-105000000D01*
X120250000Y-98800000D02*
X120250000Y-111200000D01*
X120250000Y-118800000D02*
X120250000Y-118950000D01*
X120250000Y-115000000D02*
X120250000Y-118800000D01*
X120250000Y-98800000D02*
X124250000Y-98800000D01*
X120250000Y-111200000D02*
X120250000Y-115000000D01*
X120250000Y-118950000D02*
X123300000Y-122000000D01*
X124250000Y-98800000D02*
X126250000Y-96800000D01*
X123150000Y-115000000D02*
X120250000Y-115000000D01*
X123300000Y-122000000D02*
X162550000Y-122000000D01*
X162550000Y-122000000D02*
X175750000Y-108800000D01*
X175750000Y-101200000D02*
X175750000Y-108800000D01*
%TO.N,+5V*%
X143775000Y-109750000D02*
X143400000Y-109375000D01*
X173500000Y-103750000D02*
X173850000Y-103750000D01*
X173850000Y-103750000D02*
X175000000Y-104900000D01*
X175000000Y-104900000D02*
X175000000Y-106500000D01*
X175000000Y-106500000D02*
X173500000Y-108000000D01*
X173500000Y-108000000D02*
X173500000Y-109250000D01*
X173500000Y-109250000D02*
X170950000Y-111800000D01*
X170950000Y-111800000D02*
X143700000Y-111800000D01*
%TO.N,/Y*%
X172850000Y-108900000D02*
X172850000Y-106900000D01*
X172850000Y-106900000D02*
X173500000Y-106250000D01*
X167750000Y-110750000D02*
X168750000Y-110750000D01*
X168750000Y-110750000D02*
X171000000Y-110750000D01*
X168675000Y-109500000D02*
X168675000Y-110675000D01*
X168675000Y-110675000D02*
X168750000Y-110750000D01*
X167109000Y-106934000D02*
X167109000Y-110109000D01*
X167109000Y-110109000D02*
X167750000Y-110750000D01*
X171000000Y-110750000D02*
X172850000Y-108900000D01*
%TO.N,GND*%
X126250000Y-96800000D02*
X125550000Y-96800000D01*
X123150000Y-115000000D02*
X123750000Y-115000000D01*
X123150000Y-95000000D02*
X123950070Y-95000000D01*
X123750000Y-115000000D02*
X125550000Y-116800000D01*
X136700000Y-116800000D02*
X142250000Y-111250000D01*
X142250000Y-111250000D02*
X142250000Y-106944000D01*
X126250000Y-116800000D02*
X136700000Y-116800000D01*
X123950070Y-95000000D02*
X125750070Y-96800000D01*
X125750070Y-96800000D02*
X126250000Y-96800000D01*
X125550000Y-116800000D02*
X126250000Y-116800000D01*
X142250000Y-106944000D02*
X142240000Y-106934000D01*
%TO.N,Net-(D1-Pad2)*%
X127075000Y-92375000D02*
X126250000Y-93200000D01*
X127075000Y-91500000D02*
X127075000Y-92375000D01*
%TO.N,Net-(D2-Pad2)*%
X127075000Y-111000000D02*
X127075000Y-112375000D01*
X127075000Y-112375000D02*
X126250000Y-113200000D01*
%TO.N,/A*%
X142240000Y-99240000D02*
X142240000Y-105034000D01*
X126200000Y-89900000D02*
X132900000Y-89900000D01*
X123150000Y-93750000D02*
X123150000Y-93100000D01*
X124750000Y-91500000D02*
X125425000Y-91500000D01*
X125425000Y-91500000D02*
X125425000Y-90675000D01*
X125425000Y-90675000D02*
X126200000Y-89900000D01*
X132900000Y-89900000D02*
X142240000Y-99240000D01*
X123150000Y-93100000D02*
X124750000Y-91500000D01*
%TO.N,/B*%
X123150000Y-112600000D02*
X124750000Y-111000000D01*
X125425000Y-111000000D02*
X125425000Y-110825000D01*
X130266000Y-105984000D02*
X142240000Y-105984000D01*
X125425000Y-110825000D02*
X130266000Y-105984000D01*
X124750000Y-111000000D02*
X125425000Y-111000000D01*
X123150000Y-113750000D02*
X123150000Y-112600000D01*
%TO.N,/Y*%
X144515000Y-106934000D02*
X167109000Y-106934000D01*
%TO.N,+5V*%
X121400000Y-95300000D02*
X121400000Y-93600000D01*
X143400000Y-106149000D02*
X143400000Y-109375000D01*
X144500000Y-99200000D02*
X144500000Y-105019000D01*
X136500000Y-119000000D02*
X143700000Y-111800000D01*
X143775000Y-111725000D02*
X143775000Y-109750000D01*
X144515000Y-105034000D02*
X143400000Y-106149000D01*
X123250000Y-118000000D02*
X124250000Y-119000000D01*
X123150000Y-96250000D02*
X122350000Y-96250000D01*
X123250000Y-116350000D02*
X123250000Y-118000000D01*
X123150000Y-116250000D02*
X123250000Y-116350000D01*
X143700000Y-111800000D02*
X143775000Y-111725000D01*
X124250000Y-119000000D02*
X136500000Y-119000000D01*
X126800000Y-88200000D02*
X133500000Y-88200000D01*
X121400000Y-93600000D02*
X126800000Y-88200000D01*
X144500000Y-105019000D02*
X144515000Y-105034000D01*
X133500000Y-88200000D02*
X144500000Y-99200000D01*
X122350000Y-96250000D02*
X121400000Y-95300000D01*
%TD*%
M02*
