%TF.GenerationSoftware,KiCad,Pcbnew,7.0.8*%
%TF.CreationDate,2024-03-12T17:39:57-04:00*%
%TF.ProjectId,ANDgate,414e4467-6174-4652-9e6b-696361645f70,rev?*%
%TF.SameCoordinates,Original*%
%TF.FileFunction,Legend,Bot*%
%TF.FilePolarity,Positive*%
%FSLAX46Y46*%
G04 Gerber Fmt 4.6, Leading zero omitted, Abs format (unit mm)*
G04 Created by KiCad (PCBNEW 7.0.8) date 2024-03-12 17:39:57*
%MOMM*%
%LPD*%
G01*
G04 APERTURE LIST*
%ADD10C,1.000000*%
%ADD11C,0.960000*%
%ADD12O,2.600000X2.100000*%
G04 APERTURE END LIST*
D10*
X131000000Y-115000000D02*
X127750000Y-115000000D01*
X133250000Y-96750000D02*
X134500000Y-96750000D01*
X150500000Y-119000000D02*
G75*
G03*
X150500000Y-91000000I0J14000000D01*
G01*
X133250000Y-96750000D02*
X131000000Y-95000000D01*
X127750000Y-95000000D02*
X131000000Y-95000000D01*
X168250000Y-105000000D02*
X164500000Y-105000000D01*
X118000000Y-115000000D02*
X125000000Y-115000000D01*
X134500000Y-119000000D02*
X150500000Y-119000000D01*
X131000000Y-115000000D02*
X133250000Y-113250000D01*
X134500000Y-91000000D02*
X150500000Y-91000000D01*
X134500000Y-91000000D02*
X134500000Y-119000000D01*
X133250000Y-113250000D02*
X134500000Y-113250000D01*
X124750000Y-95000000D02*
X118000000Y-95000000D01*
X178000000Y-105000000D02*
X171000000Y-105000000D01*
D11*
X139617290Y-103808109D02*
X142969671Y-103808109D01*
X138946814Y-101796680D02*
X141293480Y-108836680D01*
X141293480Y-108836680D02*
X143640147Y-101796680D01*
X145986814Y-101796680D02*
X145986814Y-108836680D01*
X145986814Y-108836680D02*
X150009671Y-101796680D01*
X150009671Y-101796680D02*
X150009671Y-108836680D01*
X153362052Y-101796680D02*
X153362052Y-108836680D01*
X153362052Y-108836680D02*
X155038242Y-108836680D01*
X155038242Y-108836680D02*
X156043957Y-108501442D01*
X156043957Y-108501442D02*
X156714433Y-107830966D01*
X156714433Y-107830966D02*
X157049671Y-107160490D01*
X157049671Y-107160490D02*
X157384909Y-105819538D01*
X157384909Y-105819538D02*
X157384909Y-104813823D01*
X157384909Y-104813823D02*
X157049671Y-103472871D01*
X157049671Y-103472871D02*
X156714433Y-102802395D01*
X156714433Y-102802395D02*
X156043957Y-102131919D01*
X156043957Y-102131919D02*
X155038242Y-101796680D01*
X155038242Y-101796680D02*
X153362052Y-101796680D01*
%LPC*%
D12*
%TO.C,D2*%
X126250000Y-115000000D03*
%TD*%
%TO.C,D3*%
X169500000Y-105000000D03*
%TD*%
%TO.C,D1*%
X126250000Y-95000000D03*
%TD*%
%LPD*%
M02*
