%TF.GenerationSoftware,KiCad,Pcbnew,7.0.8*%
%TF.CreationDate,2024-03-12T17:39:57-04:00*%
%TF.ProjectId,ANDgate,414e4467-6174-4652-9e6b-696361645f70,rev?*%
%TF.SameCoordinates,Original*%
%TF.FileFunction,Legend,Top*%
%TF.FilePolarity,Positive*%
%FSLAX46Y46*%
G04 Gerber Fmt 4.6, Leading zero omitted, Abs format (unit mm)*
G04 Created by KiCad (PCBNEW 7.0.8) date 2024-03-12 17:39:57*
%MOMM*%
%LPD*%
G01*
G04 APERTURE LIST*
G04 Aperture macros list*
%AMRoundRect*
0 Rectangle with rounded corners*
0 $1 Rounding radius*
0 $2 $3 $4 $5 $6 $7 $8 $9 X,Y pos of 4 corners*
0 Add a 4 corners polygon primitive as box body*
4,1,4,$2,$3,$4,$5,$6,$7,$8,$9,$2,$3,0*
0 Add four circle primitives for the rounded corners*
1,1,$1+$1,$2,$3*
1,1,$1+$1,$4,$5*
1,1,$1+$1,$6,$7*
1,1,$1+$1,$8,$9*
0 Add four rect primitives between the rounded corners*
20,1,$1+$1,$2,$3,$4,$5,0*
20,1,$1+$1,$4,$5,$6,$7,0*
20,1,$1+$1,$6,$7,$8,$9,0*
20,1,$1+$1,$8,$9,$2,$3,0*%
G04 Aperture macros list end*
%ADD10C,0.100000*%
%ADD11C,0.142240*%
%ADD12C,0.101600*%
%ADD13C,0.150000*%
%ADD14C,0.120000*%
%ADD15RoundRect,0.200000X-0.600000X0.200000X-0.600000X-0.200000X0.600000X-0.200000X0.600000X0.200000X0*%
%ADD16RoundRect,0.250001X-1.249999X0.799999X-1.249999X-0.799999X1.249999X-0.799999X1.249999X0.799999X0*%
%ADD17O,2.600000X2.100000*%
%ADD18RoundRect,0.300000X0.500000X-0.450000X0.500000X0.450000X-0.500000X0.450000X-0.500000X-0.450000X0*%
%ADD19RoundRect,0.200000X0.600000X-0.200000X0.600000X0.200000X-0.600000X0.200000X-0.600000X-0.200000X0*%
%ADD20RoundRect,0.250001X1.249999X-0.799999X1.249999X0.799999X-1.249999X0.799999X-1.249999X-0.799999X0*%
%ADD21RoundRect,0.300000X-0.500000X0.450000X-0.500000X-0.450000X0.500000X-0.450000X0.500000X0.450000X0*%
%ADD22RoundRect,0.150000X-0.512500X-0.150000X0.512500X-0.150000X0.512500X0.150000X-0.512500X0.150000X0*%
%ADD23RoundRect,0.200000X-0.200000X-0.275000X0.200000X-0.275000X0.200000X0.275000X-0.200000X0.275000X0*%
%ADD24RoundRect,0.225000X0.225000X0.250000X-0.225000X0.250000X-0.225000X-0.250000X0.225000X-0.250000X0*%
G04 APERTURE END LIST*
D10*
X161501100Y-115003600D02*
G75*
G03*
X161501100Y-115003600I-9000000J0D01*
G01*
X161501100Y-95003600D02*
G75*
G03*
X161501100Y-95003600I-9000000J0D01*
G01*
D11*
X145451504Y-115160257D02*
X145451504Y-116328657D01*
X145451504Y-116328657D02*
X145373611Y-116562337D01*
X145373611Y-116562337D02*
X145217824Y-116718124D01*
X145217824Y-116718124D02*
X144984144Y-116796017D01*
X144984144Y-116796017D02*
X144828358Y-116796017D01*
X147009371Y-116796017D02*
X146230437Y-116796017D01*
X146230437Y-116796017D02*
X146230437Y-115160257D01*
X148489344Y-116640230D02*
X148411451Y-116718124D01*
X148411451Y-116718124D02*
X148177771Y-116796017D01*
X148177771Y-116796017D02*
X148021984Y-116796017D01*
X148021984Y-116796017D02*
X147788304Y-116718124D01*
X147788304Y-116718124D02*
X147632518Y-116562337D01*
X147632518Y-116562337D02*
X147554624Y-116406550D01*
X147554624Y-116406550D02*
X147476731Y-116094977D01*
X147476731Y-116094977D02*
X147476731Y-115861297D01*
X147476731Y-115861297D02*
X147554624Y-115549724D01*
X147554624Y-115549724D02*
X147632518Y-115393937D01*
X147632518Y-115393937D02*
X147788304Y-115238150D01*
X147788304Y-115238150D02*
X148021984Y-115160257D01*
X148021984Y-115160257D02*
X148177771Y-115160257D01*
X148177771Y-115160257D02*
X148411451Y-115238150D01*
X148411451Y-115238150D02*
X148489344Y-115316044D01*
X149657744Y-115160257D02*
X149657744Y-116328657D01*
X149657744Y-116328657D02*
X149579851Y-116562337D01*
X149579851Y-116562337D02*
X149424064Y-116718124D01*
X149424064Y-116718124D02*
X149190384Y-116796017D01*
X149190384Y-116796017D02*
X149034598Y-116796017D01*
X151215611Y-116796017D02*
X150436677Y-116796017D01*
X150436677Y-116796017D02*
X150436677Y-115160257D01*
X152695584Y-116640230D02*
X152617691Y-116718124D01*
X152617691Y-116718124D02*
X152384011Y-116796017D01*
X152384011Y-116796017D02*
X152228224Y-116796017D01*
X152228224Y-116796017D02*
X151994544Y-116718124D01*
X151994544Y-116718124D02*
X151838758Y-116562337D01*
X151838758Y-116562337D02*
X151760864Y-116406550D01*
X151760864Y-116406550D02*
X151682971Y-116094977D01*
X151682971Y-116094977D02*
X151682971Y-115861297D01*
X151682971Y-115861297D02*
X151760864Y-115549724D01*
X151760864Y-115549724D02*
X151838758Y-115393937D01*
X151838758Y-115393937D02*
X151994544Y-115238150D01*
X151994544Y-115238150D02*
X152228224Y-115160257D01*
X152228224Y-115160257D02*
X152384011Y-115160257D01*
X152384011Y-115160257D02*
X152617691Y-115238150D01*
X152617691Y-115238150D02*
X152695584Y-115316044D01*
X153863984Y-115160257D02*
X153863984Y-116328657D01*
X153863984Y-116328657D02*
X153786091Y-116562337D01*
X153786091Y-116562337D02*
X153630304Y-116718124D01*
X153630304Y-116718124D02*
X153396624Y-116796017D01*
X153396624Y-116796017D02*
X153240838Y-116796017D01*
X155421851Y-116796017D02*
X154642917Y-116796017D01*
X154642917Y-116796017D02*
X154642917Y-115160257D01*
X156901824Y-116640230D02*
X156823931Y-116718124D01*
X156823931Y-116718124D02*
X156590251Y-116796017D01*
X156590251Y-116796017D02*
X156434464Y-116796017D01*
X156434464Y-116796017D02*
X156200784Y-116718124D01*
X156200784Y-116718124D02*
X156044998Y-116562337D01*
X156044998Y-116562337D02*
X155967104Y-116406550D01*
X155967104Y-116406550D02*
X155889211Y-116094977D01*
X155889211Y-116094977D02*
X155889211Y-115861297D01*
X155889211Y-115861297D02*
X155967104Y-115549724D01*
X155967104Y-115549724D02*
X156044998Y-115393937D01*
X156044998Y-115393937D02*
X156200784Y-115238150D01*
X156200784Y-115238150D02*
X156434464Y-115160257D01*
X156434464Y-115160257D02*
X156590251Y-115160257D01*
X156590251Y-115160257D02*
X156823931Y-115238150D01*
X156823931Y-115238150D02*
X156901824Y-115316044D01*
X158070224Y-115160257D02*
X158070224Y-116328657D01*
X158070224Y-116328657D02*
X157992331Y-116562337D01*
X157992331Y-116562337D02*
X157836544Y-116718124D01*
X157836544Y-116718124D02*
X157602864Y-116796017D01*
X157602864Y-116796017D02*
X157447078Y-116796017D01*
X159628091Y-116796017D02*
X158849157Y-116796017D01*
X158849157Y-116796017D02*
X158849157Y-115160257D01*
X161108064Y-116640230D02*
X161030171Y-116718124D01*
X161030171Y-116718124D02*
X160796491Y-116796017D01*
X160796491Y-116796017D02*
X160640704Y-116796017D01*
X160640704Y-116796017D02*
X160407024Y-116718124D01*
X160407024Y-116718124D02*
X160251238Y-116562337D01*
X160251238Y-116562337D02*
X160173344Y-116406550D01*
X160173344Y-116406550D02*
X160095451Y-116094977D01*
X160095451Y-116094977D02*
X160095451Y-115861297D01*
X160095451Y-115861297D02*
X160173344Y-115549724D01*
X160173344Y-115549724D02*
X160251238Y-115393937D01*
X160251238Y-115393937D02*
X160407024Y-115238150D01*
X160407024Y-115238150D02*
X160640704Y-115160257D01*
X160640704Y-115160257D02*
X160796491Y-115160257D01*
X160796491Y-115160257D02*
X161030171Y-115238150D01*
X161030171Y-115238150D02*
X161108064Y-115316044D01*
X129463820Y-117742022D02*
X129463820Y-118351622D01*
X129463820Y-118351622D02*
X128183660Y-118351622D01*
X129463820Y-117132422D02*
X129402860Y-117254342D01*
X129402860Y-117254342D02*
X129341900Y-117315302D01*
X129341900Y-117315302D02*
X129219980Y-117376262D01*
X129219980Y-117376262D02*
X128854220Y-117376262D01*
X128854220Y-117376262D02*
X128732300Y-117315302D01*
X128732300Y-117315302D02*
X128671340Y-117254342D01*
X128671340Y-117254342D02*
X128610380Y-117132422D01*
X128610380Y-117132422D02*
X128610380Y-116949542D01*
X128610380Y-116949542D02*
X128671340Y-116827622D01*
X128671340Y-116827622D02*
X128732300Y-116766662D01*
X128732300Y-116766662D02*
X128854220Y-116705702D01*
X128854220Y-116705702D02*
X129219980Y-116705702D01*
X129219980Y-116705702D02*
X129341900Y-116766662D01*
X129341900Y-116766662D02*
X129402860Y-116827622D01*
X129402860Y-116827622D02*
X129463820Y-116949542D01*
X129463820Y-116949542D02*
X129463820Y-117132422D01*
X128610380Y-115608422D02*
X129646700Y-115608422D01*
X129646700Y-115608422D02*
X129768620Y-115669382D01*
X129768620Y-115669382D02*
X129829580Y-115730342D01*
X129829580Y-115730342D02*
X129890540Y-115852262D01*
X129890540Y-115852262D02*
X129890540Y-116035142D01*
X129890540Y-116035142D02*
X129829580Y-116157062D01*
X129402860Y-115608422D02*
X129463820Y-115730342D01*
X129463820Y-115730342D02*
X129463820Y-115974182D01*
X129463820Y-115974182D02*
X129402860Y-116096102D01*
X129402860Y-116096102D02*
X129341900Y-116157062D01*
X129341900Y-116157062D02*
X129219980Y-116218022D01*
X129219980Y-116218022D02*
X128854220Y-116218022D01*
X128854220Y-116218022D02*
X128732300Y-116157062D01*
X128732300Y-116157062D02*
X128671340Y-116096102D01*
X128671340Y-116096102D02*
X128610380Y-115974182D01*
X128610380Y-115974182D02*
X128610380Y-115730342D01*
X128610380Y-115730342D02*
X128671340Y-115608422D01*
X129463820Y-114998822D02*
X128610380Y-114998822D01*
X128183660Y-114998822D02*
X128244620Y-115059782D01*
X128244620Y-115059782D02*
X128305580Y-114998822D01*
X128305580Y-114998822D02*
X128244620Y-114937862D01*
X128244620Y-114937862D02*
X128183660Y-114998822D01*
X128183660Y-114998822D02*
X128305580Y-114998822D01*
X129402860Y-113840582D02*
X129463820Y-113962502D01*
X129463820Y-113962502D02*
X129463820Y-114206342D01*
X129463820Y-114206342D02*
X129402860Y-114328262D01*
X129402860Y-114328262D02*
X129341900Y-114389222D01*
X129341900Y-114389222D02*
X129219980Y-114450182D01*
X129219980Y-114450182D02*
X128854220Y-114450182D01*
X128854220Y-114450182D02*
X128732300Y-114389222D01*
X128732300Y-114389222D02*
X128671340Y-114328262D01*
X128671340Y-114328262D02*
X128610380Y-114206342D01*
X128610380Y-114206342D02*
X128610380Y-113962502D01*
X128610380Y-113962502D02*
X128671340Y-113840582D01*
X128793260Y-112865222D02*
X128854220Y-112682342D01*
X128854220Y-112682342D02*
X128915180Y-112621382D01*
X128915180Y-112621382D02*
X129037100Y-112560422D01*
X129037100Y-112560422D02*
X129219980Y-112560422D01*
X129219980Y-112560422D02*
X129341900Y-112621382D01*
X129341900Y-112621382D02*
X129402860Y-112682342D01*
X129402860Y-112682342D02*
X129463820Y-112804262D01*
X129463820Y-112804262D02*
X129463820Y-113291942D01*
X129463820Y-113291942D02*
X128183660Y-113291942D01*
X128183660Y-113291942D02*
X128183660Y-112865222D01*
X128183660Y-112865222D02*
X128244620Y-112743302D01*
X128244620Y-112743302D02*
X128305580Y-112682342D01*
X128305580Y-112682342D02*
X128427500Y-112621382D01*
X128427500Y-112621382D02*
X128549420Y-112621382D01*
X128549420Y-112621382D02*
X128671340Y-112682342D01*
X128671340Y-112682342D02*
X128732300Y-112743302D01*
X128732300Y-112743302D02*
X128793260Y-112865222D01*
X128793260Y-112865222D02*
X128793260Y-113291942D01*
X129463820Y-112011782D02*
X128610380Y-112011782D01*
X128183660Y-112011782D02*
X128244620Y-112072742D01*
X128244620Y-112072742D02*
X128305580Y-112011782D01*
X128305580Y-112011782D02*
X128244620Y-111950822D01*
X128244620Y-111950822D02*
X128183660Y-112011782D01*
X128183660Y-112011782D02*
X128305580Y-112011782D01*
X128610380Y-111585062D02*
X128610380Y-111097382D01*
X128183660Y-111402182D02*
X129280940Y-111402182D01*
X129280940Y-111402182D02*
X129402860Y-111341222D01*
X129402860Y-111341222D02*
X129463820Y-111219302D01*
X129463820Y-111219302D02*
X129463820Y-111097382D01*
X129402860Y-110731622D02*
X129463820Y-110609702D01*
X129463820Y-110609702D02*
X129463820Y-110365862D01*
X129463820Y-110365862D02*
X129402860Y-110243942D01*
X129402860Y-110243942D02*
X129280940Y-110182982D01*
X129280940Y-110182982D02*
X129219980Y-110182982D01*
X129219980Y-110182982D02*
X129098060Y-110243942D01*
X129098060Y-110243942D02*
X129037100Y-110365862D01*
X129037100Y-110365862D02*
X129037100Y-110548742D01*
X129037100Y-110548742D02*
X128976140Y-110670662D01*
X128976140Y-110670662D02*
X128854220Y-110731622D01*
X128854220Y-110731622D02*
X128793260Y-110731622D01*
X128793260Y-110731622D02*
X128671340Y-110670662D01*
X128671340Y-110670662D02*
X128610380Y-110548742D01*
X128610380Y-110548742D02*
X128610380Y-110365862D01*
X128610380Y-110365862D02*
X128671340Y-110243942D01*
X128610380Y-108780902D02*
X129463820Y-108476102D01*
X129463820Y-108476102D02*
X128610380Y-108171302D01*
X128305580Y-107744582D02*
X128244620Y-107683622D01*
X128244620Y-107683622D02*
X128183660Y-107561702D01*
X128183660Y-107561702D02*
X128183660Y-107256902D01*
X128183660Y-107256902D02*
X128244620Y-107134982D01*
X128244620Y-107134982D02*
X128305580Y-107074022D01*
X128305580Y-107074022D02*
X128427500Y-107013062D01*
X128427500Y-107013062D02*
X128549420Y-107013062D01*
X128549420Y-107013062D02*
X128732300Y-107074022D01*
X128732300Y-107074022D02*
X129463820Y-107805542D01*
X129463820Y-107805542D02*
X129463820Y-107013062D01*
X129341900Y-106464422D02*
X129402860Y-106403462D01*
X129402860Y-106403462D02*
X129463820Y-106464422D01*
X129463820Y-106464422D02*
X129402860Y-106525382D01*
X129402860Y-106525382D02*
X129341900Y-106464422D01*
X129341900Y-106464422D02*
X129463820Y-106464422D01*
X128183660Y-105610982D02*
X128183660Y-105489062D01*
X128183660Y-105489062D02*
X128244620Y-105367142D01*
X128244620Y-105367142D02*
X128305580Y-105306182D01*
X128305580Y-105306182D02*
X128427500Y-105245222D01*
X128427500Y-105245222D02*
X128671340Y-105184262D01*
X128671340Y-105184262D02*
X128976140Y-105184262D01*
X128976140Y-105184262D02*
X129219980Y-105245222D01*
X129219980Y-105245222D02*
X129341900Y-105306182D01*
X129341900Y-105306182D02*
X129402860Y-105367142D01*
X129402860Y-105367142D02*
X129463820Y-105489062D01*
X129463820Y-105489062D02*
X129463820Y-105610982D01*
X129463820Y-105610982D02*
X129402860Y-105732902D01*
X129402860Y-105732902D02*
X129341900Y-105793862D01*
X129341900Y-105793862D02*
X129219980Y-105854822D01*
X129219980Y-105854822D02*
X128976140Y-105915782D01*
X128976140Y-105915782D02*
X128671340Y-105915782D01*
X128671340Y-105915782D02*
X128427500Y-105854822D01*
X128427500Y-105854822D02*
X128305580Y-105793862D01*
X128305580Y-105793862D02*
X128244620Y-105732902D01*
X128244620Y-105732902D02*
X128183660Y-105610982D01*
X131524878Y-118351622D02*
X130244718Y-118351622D01*
X131463918Y-117802982D02*
X131524878Y-117681062D01*
X131524878Y-117681062D02*
X131524878Y-117437222D01*
X131524878Y-117437222D02*
X131463918Y-117315302D01*
X131463918Y-117315302D02*
X131341998Y-117254342D01*
X131341998Y-117254342D02*
X131281038Y-117254342D01*
X131281038Y-117254342D02*
X131159118Y-117315302D01*
X131159118Y-117315302D02*
X131098158Y-117437222D01*
X131098158Y-117437222D02*
X131098158Y-117620102D01*
X131098158Y-117620102D02*
X131037198Y-117742022D01*
X131037198Y-117742022D02*
X130915278Y-117802982D01*
X130915278Y-117802982D02*
X130854318Y-117802982D01*
X130854318Y-117802982D02*
X130732398Y-117742022D01*
X130732398Y-117742022D02*
X130671438Y-117620102D01*
X130671438Y-117620102D02*
X130671438Y-117437222D01*
X130671438Y-117437222D02*
X130732398Y-117315302D01*
X131524878Y-116522822D02*
X131463918Y-116644742D01*
X131463918Y-116644742D02*
X131341998Y-116705702D01*
X131341998Y-116705702D02*
X130244718Y-116705702D01*
X131524878Y-115486502D02*
X130854318Y-115486502D01*
X130854318Y-115486502D02*
X130732398Y-115547462D01*
X130732398Y-115547462D02*
X130671438Y-115669382D01*
X130671438Y-115669382D02*
X130671438Y-115913222D01*
X130671438Y-115913222D02*
X130732398Y-116035142D01*
X131463918Y-115486502D02*
X131524878Y-115608422D01*
X131524878Y-115608422D02*
X131524878Y-115913222D01*
X131524878Y-115913222D02*
X131463918Y-116035142D01*
X131463918Y-116035142D02*
X131341998Y-116096102D01*
X131341998Y-116096102D02*
X131220078Y-116096102D01*
X131220078Y-116096102D02*
X131098158Y-116035142D01*
X131098158Y-116035142D02*
X131037198Y-115913222D01*
X131037198Y-115913222D02*
X131037198Y-115608422D01*
X131037198Y-115608422D02*
X130976238Y-115486502D01*
X130671438Y-114876902D02*
X131524878Y-114876902D01*
X130793358Y-114876902D02*
X130732398Y-114815942D01*
X130732398Y-114815942D02*
X130671438Y-114694022D01*
X130671438Y-114694022D02*
X130671438Y-114511142D01*
X130671438Y-114511142D02*
X130732398Y-114389222D01*
X130732398Y-114389222D02*
X130854318Y-114328262D01*
X130854318Y-114328262D02*
X131524878Y-114328262D01*
X131524878Y-113170022D02*
X130244718Y-113170022D01*
X131463918Y-113170022D02*
X131524878Y-113291942D01*
X131524878Y-113291942D02*
X131524878Y-113535782D01*
X131524878Y-113535782D02*
X131463918Y-113657702D01*
X131463918Y-113657702D02*
X131402958Y-113718662D01*
X131402958Y-113718662D02*
X131281038Y-113779622D01*
X131281038Y-113779622D02*
X130915278Y-113779622D01*
X130915278Y-113779622D02*
X130793358Y-113718662D01*
X130793358Y-113718662D02*
X130732398Y-113657702D01*
X130732398Y-113657702D02*
X130671438Y-113535782D01*
X130671438Y-113535782D02*
X130671438Y-113291942D01*
X130671438Y-113291942D02*
X130732398Y-113170022D01*
X131524878Y-110853542D02*
X130915278Y-111280262D01*
X131524878Y-111585062D02*
X130244718Y-111585062D01*
X130244718Y-111585062D02*
X130244718Y-111097382D01*
X130244718Y-111097382D02*
X130305678Y-110975462D01*
X130305678Y-110975462D02*
X130366638Y-110914502D01*
X130366638Y-110914502D02*
X130488558Y-110853542D01*
X130488558Y-110853542D02*
X130671438Y-110853542D01*
X130671438Y-110853542D02*
X130793358Y-110914502D01*
X130793358Y-110914502D02*
X130854318Y-110975462D01*
X130854318Y-110975462D02*
X130915278Y-111097382D01*
X130915278Y-111097382D02*
X130915278Y-111585062D01*
X131524878Y-110122022D02*
X131463918Y-110243942D01*
X131463918Y-110243942D02*
X131402958Y-110304902D01*
X131402958Y-110304902D02*
X131281038Y-110365862D01*
X131281038Y-110365862D02*
X130915278Y-110365862D01*
X130915278Y-110365862D02*
X130793358Y-110304902D01*
X130793358Y-110304902D02*
X130732398Y-110243942D01*
X130732398Y-110243942D02*
X130671438Y-110122022D01*
X130671438Y-110122022D02*
X130671438Y-109939142D01*
X130671438Y-109939142D02*
X130732398Y-109817222D01*
X130732398Y-109817222D02*
X130793358Y-109756262D01*
X130793358Y-109756262D02*
X130915278Y-109695302D01*
X130915278Y-109695302D02*
X131281038Y-109695302D01*
X131281038Y-109695302D02*
X131402958Y-109756262D01*
X131402958Y-109756262D02*
X131463918Y-109817222D01*
X131463918Y-109817222D02*
X131524878Y-109939142D01*
X131524878Y-109939142D02*
X131524878Y-110122022D01*
X131524878Y-109146662D02*
X130244718Y-109146662D01*
X130732398Y-109146662D02*
X130671438Y-109024742D01*
X130671438Y-109024742D02*
X130671438Y-108780902D01*
X130671438Y-108780902D02*
X130732398Y-108658982D01*
X130732398Y-108658982D02*
X130793358Y-108598022D01*
X130793358Y-108598022D02*
X130915278Y-108537062D01*
X130915278Y-108537062D02*
X131281038Y-108537062D01*
X131281038Y-108537062D02*
X131402958Y-108598022D01*
X131402958Y-108598022D02*
X131463918Y-108658982D01*
X131463918Y-108658982D02*
X131524878Y-108780902D01*
X131524878Y-108780902D02*
X131524878Y-109024742D01*
X131524878Y-109024742D02*
X131463918Y-109146662D01*
X131524878Y-107805542D02*
X131463918Y-107927462D01*
X131463918Y-107927462D02*
X131402958Y-107988422D01*
X131402958Y-107988422D02*
X131281038Y-108049382D01*
X131281038Y-108049382D02*
X130915278Y-108049382D01*
X130915278Y-108049382D02*
X130793358Y-107988422D01*
X130793358Y-107988422D02*
X130732398Y-107927462D01*
X130732398Y-107927462D02*
X130671438Y-107805542D01*
X130671438Y-107805542D02*
X130671438Y-107622662D01*
X130671438Y-107622662D02*
X130732398Y-107500742D01*
X130732398Y-107500742D02*
X130793358Y-107439782D01*
X130793358Y-107439782D02*
X130915278Y-107378822D01*
X130915278Y-107378822D02*
X131281038Y-107378822D01*
X131281038Y-107378822D02*
X131402958Y-107439782D01*
X131402958Y-107439782D02*
X131463918Y-107500742D01*
X131463918Y-107500742D02*
X131524878Y-107622662D01*
X131524878Y-107622662D02*
X131524878Y-107805542D01*
X130671438Y-107013062D02*
X130671438Y-106525382D01*
X130244718Y-106830182D02*
X131341998Y-106830182D01*
X131341998Y-106830182D02*
X131463918Y-106769222D01*
X131463918Y-106769222D02*
X131524878Y-106647302D01*
X131524878Y-106647302D02*
X131524878Y-106525382D01*
X131524878Y-106098662D02*
X130671438Y-106098662D01*
X130244718Y-106098662D02*
X130305678Y-106159622D01*
X130305678Y-106159622D02*
X130366638Y-106098662D01*
X130366638Y-106098662D02*
X130305678Y-106037702D01*
X130305678Y-106037702D02*
X130244718Y-106098662D01*
X130244718Y-106098662D02*
X130366638Y-106098662D01*
X131463918Y-104940422D02*
X131524878Y-105062342D01*
X131524878Y-105062342D02*
X131524878Y-105306182D01*
X131524878Y-105306182D02*
X131463918Y-105428102D01*
X131463918Y-105428102D02*
X131402958Y-105489062D01*
X131402958Y-105489062D02*
X131281038Y-105550022D01*
X131281038Y-105550022D02*
X130915278Y-105550022D01*
X130915278Y-105550022D02*
X130793358Y-105489062D01*
X130793358Y-105489062D02*
X130732398Y-105428102D01*
X130732398Y-105428102D02*
X130671438Y-105306182D01*
X130671438Y-105306182D02*
X130671438Y-105062342D01*
X130671438Y-105062342D02*
X130732398Y-104940422D01*
X131463918Y-104452742D02*
X131524878Y-104330822D01*
X131524878Y-104330822D02*
X131524878Y-104086982D01*
X131524878Y-104086982D02*
X131463918Y-103965062D01*
X131463918Y-103965062D02*
X131341998Y-103904102D01*
X131341998Y-103904102D02*
X131281038Y-103904102D01*
X131281038Y-103904102D02*
X131159118Y-103965062D01*
X131159118Y-103965062D02*
X131098158Y-104086982D01*
X131098158Y-104086982D02*
X131098158Y-104269862D01*
X131098158Y-104269862D02*
X131037198Y-104391782D01*
X131037198Y-104391782D02*
X130915278Y-104452742D01*
X130915278Y-104452742D02*
X130854318Y-104452742D01*
X130854318Y-104452742D02*
X130732398Y-104391782D01*
X130732398Y-104391782D02*
X130671438Y-104269862D01*
X130671438Y-104269862D02*
X130671438Y-104086982D01*
X130671438Y-104086982D02*
X130732398Y-103965062D01*
X132732496Y-118534502D02*
X132732496Y-118046822D01*
X132305776Y-118351622D02*
X133403056Y-118351622D01*
X133403056Y-118351622D02*
X133524976Y-118290662D01*
X133524976Y-118290662D02*
X133585936Y-118168742D01*
X133585936Y-118168742D02*
X133585936Y-118046822D01*
X133585936Y-117620102D02*
X132732496Y-117620102D01*
X132305776Y-117620102D02*
X132366736Y-117681062D01*
X132366736Y-117681062D02*
X132427696Y-117620102D01*
X132427696Y-117620102D02*
X132366736Y-117559142D01*
X132366736Y-117559142D02*
X132305776Y-117620102D01*
X132305776Y-117620102D02*
X132427696Y-117620102D01*
X132732496Y-117010502D02*
X133585936Y-117010502D01*
X132854416Y-117010502D02*
X132793456Y-116949542D01*
X132793456Y-116949542D02*
X132732496Y-116827622D01*
X132732496Y-116827622D02*
X132732496Y-116644742D01*
X132732496Y-116644742D02*
X132793456Y-116522822D01*
X132793456Y-116522822D02*
X132915376Y-116461862D01*
X132915376Y-116461862D02*
X133585936Y-116461862D01*
X133585936Y-115303622D02*
X132305776Y-115303622D01*
X133524976Y-115303622D02*
X133585936Y-115425542D01*
X133585936Y-115425542D02*
X133585936Y-115669382D01*
X133585936Y-115669382D02*
X133524976Y-115791302D01*
X133524976Y-115791302D02*
X133464016Y-115852262D01*
X133464016Y-115852262D02*
X133342096Y-115913222D01*
X133342096Y-115913222D02*
X132976336Y-115913222D01*
X132976336Y-115913222D02*
X132854416Y-115852262D01*
X132854416Y-115852262D02*
X132793456Y-115791302D01*
X132793456Y-115791302D02*
X132732496Y-115669382D01*
X132732496Y-115669382D02*
X132732496Y-115425542D01*
X132732496Y-115425542D02*
X132793456Y-115303622D01*
X133585936Y-114694022D02*
X132732496Y-114694022D01*
X132305776Y-114694022D02*
X132366736Y-114754982D01*
X132366736Y-114754982D02*
X132427696Y-114694022D01*
X132427696Y-114694022D02*
X132366736Y-114633062D01*
X132366736Y-114633062D02*
X132305776Y-114694022D01*
X132305776Y-114694022D02*
X132427696Y-114694022D01*
X133524976Y-113596742D02*
X133585936Y-113718662D01*
X133585936Y-113718662D02*
X133585936Y-113962502D01*
X133585936Y-113962502D02*
X133524976Y-114084422D01*
X133524976Y-114084422D02*
X133403056Y-114145382D01*
X133403056Y-114145382D02*
X132915376Y-114145382D01*
X132915376Y-114145382D02*
X132793456Y-114084422D01*
X132793456Y-114084422D02*
X132732496Y-113962502D01*
X132732496Y-113962502D02*
X132732496Y-113718662D01*
X132732496Y-113718662D02*
X132793456Y-113596742D01*
X132793456Y-113596742D02*
X132915376Y-113535782D01*
X132915376Y-113535782D02*
X133037296Y-113535782D01*
X133037296Y-113535782D02*
X133159216Y-114145382D01*
X133464016Y-112987142D02*
X133524976Y-112926182D01*
X133524976Y-112926182D02*
X133585936Y-112987142D01*
X133585936Y-112987142D02*
X133524976Y-113048102D01*
X133524976Y-113048102D02*
X133464016Y-112987142D01*
X133464016Y-112987142D02*
X133585936Y-112987142D01*
X133524976Y-111828902D02*
X133585936Y-111950822D01*
X133585936Y-111950822D02*
X133585936Y-112194662D01*
X133585936Y-112194662D02*
X133524976Y-112316582D01*
X133524976Y-112316582D02*
X133464016Y-112377542D01*
X133464016Y-112377542D02*
X133342096Y-112438502D01*
X133342096Y-112438502D02*
X132976336Y-112438502D01*
X132976336Y-112438502D02*
X132854416Y-112377542D01*
X132854416Y-112377542D02*
X132793456Y-112316582D01*
X132793456Y-112316582D02*
X132732496Y-112194662D01*
X132732496Y-112194662D02*
X132732496Y-111950822D01*
X132732496Y-111950822D02*
X132793456Y-111828902D01*
X133585936Y-111097382D02*
X133524976Y-111219302D01*
X133524976Y-111219302D02*
X133464016Y-111280262D01*
X133464016Y-111280262D02*
X133342096Y-111341222D01*
X133342096Y-111341222D02*
X132976336Y-111341222D01*
X132976336Y-111341222D02*
X132854416Y-111280262D01*
X132854416Y-111280262D02*
X132793456Y-111219302D01*
X132793456Y-111219302D02*
X132732496Y-111097382D01*
X132732496Y-111097382D02*
X132732496Y-110914502D01*
X132732496Y-110914502D02*
X132793456Y-110792582D01*
X132793456Y-110792582D02*
X132854416Y-110731622D01*
X132854416Y-110731622D02*
X132976336Y-110670662D01*
X132976336Y-110670662D02*
X133342096Y-110670662D01*
X133342096Y-110670662D02*
X133464016Y-110731622D01*
X133464016Y-110731622D02*
X133524976Y-110792582D01*
X133524976Y-110792582D02*
X133585936Y-110914502D01*
X133585936Y-110914502D02*
X133585936Y-111097382D01*
X133585936Y-110122022D02*
X132732496Y-110122022D01*
X132854416Y-110122022D02*
X132793456Y-110061062D01*
X132793456Y-110061062D02*
X132732496Y-109939142D01*
X132732496Y-109939142D02*
X132732496Y-109756262D01*
X132732496Y-109756262D02*
X132793456Y-109634342D01*
X132793456Y-109634342D02*
X132915376Y-109573382D01*
X132915376Y-109573382D02*
X133585936Y-109573382D01*
X132915376Y-109573382D02*
X132793456Y-109512422D01*
X132793456Y-109512422D02*
X132732496Y-109390502D01*
X132732496Y-109390502D02*
X132732496Y-109207622D01*
X132732496Y-109207622D02*
X132793456Y-109085702D01*
X132793456Y-109085702D02*
X132915376Y-109024742D01*
X132915376Y-109024742D02*
X133585936Y-109024742D01*
X132244816Y-107500742D02*
X133890736Y-108598022D01*
X133524976Y-107134982D02*
X133585936Y-107013062D01*
X133585936Y-107013062D02*
X133585936Y-106769222D01*
X133585936Y-106769222D02*
X133524976Y-106647302D01*
X133524976Y-106647302D02*
X133403056Y-106586342D01*
X133403056Y-106586342D02*
X133342096Y-106586342D01*
X133342096Y-106586342D02*
X133220176Y-106647302D01*
X133220176Y-106647302D02*
X133159216Y-106769222D01*
X133159216Y-106769222D02*
X133159216Y-106952102D01*
X133159216Y-106952102D02*
X133098256Y-107074022D01*
X133098256Y-107074022D02*
X132976336Y-107134982D01*
X132976336Y-107134982D02*
X132915376Y-107134982D01*
X132915376Y-107134982D02*
X132793456Y-107074022D01*
X132793456Y-107074022D02*
X132732496Y-106952102D01*
X132732496Y-106952102D02*
X132732496Y-106769222D01*
X132732496Y-106769222D02*
X132793456Y-106647302D01*
X132732496Y-106220582D02*
X132732496Y-105732902D01*
X132305776Y-106037702D02*
X133403056Y-106037702D01*
X133403056Y-106037702D02*
X133524976Y-105976742D01*
X133524976Y-105976742D02*
X133585936Y-105854822D01*
X133585936Y-105854822D02*
X133585936Y-105732902D01*
X133585936Y-105123302D02*
X133524976Y-105245222D01*
X133524976Y-105245222D02*
X133464016Y-105306182D01*
X133464016Y-105306182D02*
X133342096Y-105367142D01*
X133342096Y-105367142D02*
X132976336Y-105367142D01*
X132976336Y-105367142D02*
X132854416Y-105306182D01*
X132854416Y-105306182D02*
X132793456Y-105245222D01*
X132793456Y-105245222D02*
X132732496Y-105123302D01*
X132732496Y-105123302D02*
X132732496Y-104940422D01*
X132732496Y-104940422D02*
X132793456Y-104818502D01*
X132793456Y-104818502D02*
X132854416Y-104757542D01*
X132854416Y-104757542D02*
X132976336Y-104696582D01*
X132976336Y-104696582D02*
X133342096Y-104696582D01*
X133342096Y-104696582D02*
X133464016Y-104757542D01*
X133464016Y-104757542D02*
X133524976Y-104818502D01*
X133524976Y-104818502D02*
X133585936Y-104940422D01*
X133585936Y-104940422D02*
X133585936Y-105123302D01*
X133585936Y-104147942D02*
X132732496Y-104147942D01*
X132976336Y-104147942D02*
X132854416Y-104086982D01*
X132854416Y-104086982D02*
X132793456Y-104026022D01*
X132793456Y-104026022D02*
X132732496Y-103904102D01*
X132732496Y-103904102D02*
X132732496Y-103782182D01*
X133524976Y-102867782D02*
X133585936Y-102989702D01*
X133585936Y-102989702D02*
X133585936Y-103233542D01*
X133585936Y-103233542D02*
X133524976Y-103355462D01*
X133524976Y-103355462D02*
X133403056Y-103416422D01*
X133403056Y-103416422D02*
X132915376Y-103416422D01*
X132915376Y-103416422D02*
X132793456Y-103355462D01*
X132793456Y-103355462D02*
X132732496Y-103233542D01*
X132732496Y-103233542D02*
X132732496Y-102989702D01*
X132732496Y-102989702D02*
X132793456Y-102867782D01*
X132793456Y-102867782D02*
X132915376Y-102806822D01*
X132915376Y-102806822D02*
X133037296Y-102806822D01*
X133037296Y-102806822D02*
X133159216Y-103416422D01*
X133524976Y-102319142D02*
X133585936Y-102197222D01*
X133585936Y-102197222D02*
X133585936Y-101953382D01*
X133585936Y-101953382D02*
X133524976Y-101831462D01*
X133524976Y-101831462D02*
X133403056Y-101770502D01*
X133403056Y-101770502D02*
X133342096Y-101770502D01*
X133342096Y-101770502D02*
X133220176Y-101831462D01*
X133220176Y-101831462D02*
X133159216Y-101953382D01*
X133159216Y-101953382D02*
X133159216Y-102136262D01*
X133159216Y-102136262D02*
X133098256Y-102258182D01*
X133098256Y-102258182D02*
X132976336Y-102319142D01*
X132976336Y-102319142D02*
X132915376Y-102319142D01*
X132915376Y-102319142D02*
X132793456Y-102258182D01*
X132793456Y-102258182D02*
X132732496Y-102136262D01*
X132732496Y-102136262D02*
X132732496Y-101953382D01*
X132732496Y-101953382D02*
X132793456Y-101831462D01*
X132244816Y-100307462D02*
X133890736Y-101404742D01*
X133585936Y-99880742D02*
X132732496Y-99880742D01*
X132305776Y-99880742D02*
X132366736Y-99941702D01*
X132366736Y-99941702D02*
X132427696Y-99880742D01*
X132427696Y-99880742D02*
X132366736Y-99819782D01*
X132366736Y-99819782D02*
X132305776Y-99880742D01*
X132305776Y-99880742D02*
X132427696Y-99880742D01*
X133585936Y-99271142D02*
X132732496Y-99271142D01*
X132976336Y-99271142D02*
X132854416Y-99210182D01*
X132854416Y-99210182D02*
X132793456Y-99149222D01*
X132793456Y-99149222D02*
X132732496Y-99027302D01*
X132732496Y-99027302D02*
X132732496Y-98905382D01*
X133585936Y-98295782D02*
X133524976Y-98417702D01*
X133524976Y-98417702D02*
X133464016Y-98478662D01*
X133464016Y-98478662D02*
X133342096Y-98539622D01*
X133342096Y-98539622D02*
X132976336Y-98539622D01*
X132976336Y-98539622D02*
X132854416Y-98478662D01*
X132854416Y-98478662D02*
X132793456Y-98417702D01*
X132793456Y-98417702D02*
X132732496Y-98295782D01*
X132732496Y-98295782D02*
X132732496Y-98112902D01*
X132732496Y-98112902D02*
X132793456Y-97990982D01*
X132793456Y-97990982D02*
X132854416Y-97930022D01*
X132854416Y-97930022D02*
X132976336Y-97869062D01*
X132976336Y-97869062D02*
X133342096Y-97869062D01*
X133342096Y-97869062D02*
X133464016Y-97930022D01*
X133464016Y-97930022D02*
X133524976Y-97990982D01*
X133524976Y-97990982D02*
X133585936Y-98112902D01*
X133585936Y-98112902D02*
X133585936Y-98295782D01*
X133585936Y-97320422D02*
X132305776Y-97320422D01*
X132793456Y-97320422D02*
X132732496Y-97198502D01*
X132732496Y-97198502D02*
X132732496Y-96954662D01*
X132732496Y-96954662D02*
X132793456Y-96832742D01*
X132793456Y-96832742D02*
X132854416Y-96771782D01*
X132854416Y-96771782D02*
X132976336Y-96710822D01*
X132976336Y-96710822D02*
X133342096Y-96710822D01*
X133342096Y-96710822D02*
X133464016Y-96771782D01*
X133464016Y-96771782D02*
X133524976Y-96832742D01*
X133524976Y-96832742D02*
X133585936Y-96954662D01*
X133585936Y-96954662D02*
X133585936Y-97198502D01*
X133585936Y-97198502D02*
X133524976Y-97320422D01*
X133585936Y-95979302D02*
X133524976Y-96101222D01*
X133524976Y-96101222D02*
X133464016Y-96162182D01*
X133464016Y-96162182D02*
X133342096Y-96223142D01*
X133342096Y-96223142D02*
X132976336Y-96223142D01*
X132976336Y-96223142D02*
X132854416Y-96162182D01*
X132854416Y-96162182D02*
X132793456Y-96101222D01*
X132793456Y-96101222D02*
X132732496Y-95979302D01*
X132732496Y-95979302D02*
X132732496Y-95796422D01*
X132732496Y-95796422D02*
X132793456Y-95674502D01*
X132793456Y-95674502D02*
X132854416Y-95613542D01*
X132854416Y-95613542D02*
X132976336Y-95552582D01*
X132976336Y-95552582D02*
X133342096Y-95552582D01*
X133342096Y-95552582D02*
X133464016Y-95613542D01*
X133464016Y-95613542D02*
X133524976Y-95674502D01*
X133524976Y-95674502D02*
X133585936Y-95796422D01*
X133585936Y-95796422D02*
X133585936Y-95979302D01*
X132732496Y-95186822D02*
X132732496Y-94699142D01*
X132305776Y-95003942D02*
X133403056Y-95003942D01*
X133403056Y-95003942D02*
X133524976Y-94942982D01*
X133524976Y-94942982D02*
X133585936Y-94821062D01*
X133585936Y-94821062D02*
X133585936Y-94699142D01*
X133585936Y-94272422D02*
X132732496Y-94272422D01*
X132305776Y-94272422D02*
X132366736Y-94333382D01*
X132366736Y-94333382D02*
X132427696Y-94272422D01*
X132427696Y-94272422D02*
X132366736Y-94211462D01*
X132366736Y-94211462D02*
X132305776Y-94272422D01*
X132305776Y-94272422D02*
X132427696Y-94272422D01*
X133524976Y-93114182D02*
X133585936Y-93236102D01*
X133585936Y-93236102D02*
X133585936Y-93479942D01*
X133585936Y-93479942D02*
X133524976Y-93601862D01*
X133524976Y-93601862D02*
X133464016Y-93662822D01*
X133464016Y-93662822D02*
X133342096Y-93723782D01*
X133342096Y-93723782D02*
X132976336Y-93723782D01*
X132976336Y-93723782D02*
X132854416Y-93662822D01*
X132854416Y-93662822D02*
X132793456Y-93601862D01*
X132793456Y-93601862D02*
X132732496Y-93479942D01*
X132732496Y-93479942D02*
X132732496Y-93236102D01*
X132732496Y-93236102D02*
X132793456Y-93114182D01*
X133524976Y-92626502D02*
X133585936Y-92504582D01*
X133585936Y-92504582D02*
X133585936Y-92260742D01*
X133585936Y-92260742D02*
X133524976Y-92138822D01*
X133524976Y-92138822D02*
X133403056Y-92077862D01*
X133403056Y-92077862D02*
X133342096Y-92077862D01*
X133342096Y-92077862D02*
X133220176Y-92138822D01*
X133220176Y-92138822D02*
X133159216Y-92260742D01*
X133159216Y-92260742D02*
X133159216Y-92443622D01*
X133159216Y-92443622D02*
X133098256Y-92565542D01*
X133098256Y-92565542D02*
X132976336Y-92626502D01*
X132976336Y-92626502D02*
X132915376Y-92626502D01*
X132915376Y-92626502D02*
X132793456Y-92565542D01*
X132793456Y-92565542D02*
X132732496Y-92443622D01*
X132732496Y-92443622D02*
X132732496Y-92260742D01*
X132732496Y-92260742D02*
X132793456Y-92138822D01*
X132244816Y-90614822D02*
X133890736Y-91712102D01*
D12*
X144790494Y-103521497D02*
X145346875Y-103521497D01*
X144679218Y-103855326D02*
X145068684Y-102686926D01*
X145068684Y-102686926D02*
X145458151Y-103855326D01*
X145847618Y-103855326D02*
X145847618Y-102686926D01*
X145847618Y-102686926D02*
X146515275Y-103855326D01*
X146515275Y-103855326D02*
X146515275Y-102686926D01*
X147071656Y-103855326D02*
X147071656Y-102686926D01*
X147071656Y-102686926D02*
X147349846Y-102686926D01*
X147349846Y-102686926D02*
X147516761Y-102742564D01*
X147516761Y-102742564D02*
X147628037Y-102853840D01*
X147628037Y-102853840D02*
X147683675Y-102965116D01*
X147683675Y-102965116D02*
X147739313Y-103187668D01*
X147739313Y-103187668D02*
X147739313Y-103354583D01*
X147739313Y-103354583D02*
X147683675Y-103577135D01*
X147683675Y-103577135D02*
X147628037Y-103688411D01*
X147628037Y-103688411D02*
X147516761Y-103799688D01*
X147516761Y-103799688D02*
X147349846Y-103855326D01*
X147349846Y-103855326D02*
X147071656Y-103855326D01*
D13*
X124559819Y-95738094D02*
X123559819Y-95738094D01*
X123559819Y-95738094D02*
X123559819Y-95499999D01*
X123559819Y-95499999D02*
X123607438Y-95357142D01*
X123607438Y-95357142D02*
X123702676Y-95261904D01*
X123702676Y-95261904D02*
X123797914Y-95214285D01*
X123797914Y-95214285D02*
X123988390Y-95166666D01*
X123988390Y-95166666D02*
X124131247Y-95166666D01*
X124131247Y-95166666D02*
X124321723Y-95214285D01*
X124321723Y-95214285D02*
X124416961Y-95261904D01*
X124416961Y-95261904D02*
X124512200Y-95357142D01*
X124512200Y-95357142D02*
X124559819Y-95499999D01*
X124559819Y-95499999D02*
X124559819Y-95738094D01*
X124559819Y-94214285D02*
X124559819Y-94785713D01*
X124559819Y-94499999D02*
X123559819Y-94499999D01*
X123559819Y-94499999D02*
X123702676Y-94595237D01*
X123702676Y-94595237D02*
X123797914Y-94690475D01*
X123797914Y-94690475D02*
X123845533Y-94785713D01*
D14*
%TO.C,J1*%
X122460000Y-92140000D02*
X122460000Y-93090000D01*
X122010000Y-92140000D02*
X122460000Y-92140000D01*
X118040000Y-92140000D02*
X118040000Y-97860000D01*
X122460000Y-97860000D02*
X122460000Y-96910000D01*
X118490000Y-92140000D02*
X118040000Y-92140000D01*
X122010000Y-97860000D02*
X122460000Y-97860000D01*
X122460000Y-93090000D02*
X123950000Y-93090000D01*
X118040000Y-97860000D02*
X118490000Y-97860000D01*
%TO.C,D2*%
X127710000Y-117600000D02*
X127710000Y-113400000D01*
X124790000Y-113400000D02*
X124790000Y-117600000D01*
X124790000Y-117600000D02*
X127710000Y-117600000D01*
%TO.C,J4*%
X177960000Y-92390000D02*
X177510000Y-92390000D01*
X173540000Y-98110000D02*
X173540000Y-97160000D01*
X177510000Y-98110000D02*
X177960000Y-98110000D01*
X177960000Y-98110000D02*
X177960000Y-92390000D01*
X173990000Y-92390000D02*
X173540000Y-92390000D01*
X173540000Y-92390000D02*
X173540000Y-93340000D01*
X173990000Y-98110000D02*
X173540000Y-98110000D01*
X173540000Y-97160000D02*
X172050000Y-97160000D01*
%TO.C,D3*%
X168040000Y-102400000D02*
X168040000Y-106600000D01*
X170960000Y-106600000D02*
X170960000Y-102400000D01*
X170960000Y-102400000D02*
X168040000Y-102400000D01*
%TO.C,U1*%
X143377500Y-107544000D02*
X144177500Y-107544000D01*
X143377500Y-107544000D02*
X142577500Y-107544000D01*
X143377500Y-104424000D02*
X141577500Y-104424000D01*
X143377500Y-104424000D02*
X144177500Y-104424000D01*
%TO.C,D1*%
X124790000Y-97600000D02*
X127710000Y-97600000D01*
X127710000Y-97600000D02*
X127710000Y-93400000D01*
X124790000Y-93400000D02*
X124790000Y-97600000D01*
%TO.C,R3*%
X169262742Y-110022500D02*
X169737258Y-110022500D01*
X169262742Y-108977500D02*
X169737258Y-108977500D01*
%TO.C,R1*%
X126012742Y-92022500D02*
X126487258Y-92022500D01*
X126012742Y-90977500D02*
X126487258Y-90977500D01*
%TO.C,C1*%
X143140580Y-109240000D02*
X142859420Y-109240000D01*
X143140580Y-110260000D02*
X142859420Y-110260000D01*
%TO.C,J3*%
X173990000Y-103390000D02*
X173540000Y-103390000D01*
X173540000Y-108160000D02*
X172050000Y-108160000D01*
X173990000Y-109110000D02*
X173540000Y-109110000D01*
X177960000Y-109110000D02*
X177960000Y-103390000D01*
X173540000Y-103390000D02*
X173540000Y-104340000D01*
X173540000Y-109110000D02*
X173540000Y-108160000D01*
X177510000Y-109110000D02*
X177960000Y-109110000D01*
X177960000Y-103390000D02*
X177510000Y-103390000D01*
%TO.C,J2*%
X118040000Y-112140000D02*
X118040000Y-117860000D01*
X122460000Y-113090000D02*
X123950000Y-113090000D01*
X118040000Y-117860000D02*
X118490000Y-117860000D01*
X122460000Y-112140000D02*
X122460000Y-113090000D01*
X122010000Y-112140000D02*
X122460000Y-112140000D01*
X122460000Y-117860000D02*
X122460000Y-116910000D01*
X122010000Y-117860000D02*
X122460000Y-117860000D01*
X118490000Y-112140000D02*
X118040000Y-112140000D01*
%TO.C,R2*%
X126012742Y-110477500D02*
X126487258Y-110477500D01*
X126012742Y-111522500D02*
X126487258Y-111522500D01*
%TD*%
%LPC*%
D15*
%TO.C,J1*%
X123150000Y-93750000D03*
X123150000Y-95000000D03*
X123150000Y-96250000D03*
D16*
X120250000Y-98800000D03*
X120250000Y-91200000D03*
%TD*%
D17*
%TO.C,D2*%
X126250000Y-115000000D03*
D18*
X126250000Y-116800000D03*
X126250000Y-113200000D03*
%TD*%
D19*
%TO.C,J4*%
X172850000Y-96500000D03*
X172850000Y-95250000D03*
X172850000Y-94000000D03*
D20*
X175750000Y-91450000D03*
X175750000Y-99050000D03*
%TD*%
D17*
%TO.C,D3*%
X169500000Y-105000000D03*
D21*
X169500000Y-103200000D03*
X169500000Y-106800000D03*
%TD*%
D22*
%TO.C,U1*%
X142240000Y-105034000D03*
X142240000Y-105984000D03*
X142240000Y-106934000D03*
X144515000Y-106934000D03*
X144515000Y-105034000D03*
%TD*%
D17*
%TO.C,D1*%
X126250000Y-95000000D03*
D18*
X126250000Y-96800000D03*
X126250000Y-93200000D03*
%TD*%
D23*
%TO.C,R3*%
X168675000Y-109500000D03*
X170325000Y-109500000D03*
%TD*%
%TO.C,R1*%
X125425000Y-91500000D03*
X127075000Y-91500000D03*
%TD*%
D24*
%TO.C,C1*%
X143775000Y-109750000D03*
X142225000Y-109750000D03*
%TD*%
D19*
%TO.C,J3*%
X172850000Y-107500000D03*
X172850000Y-106250000D03*
X172850000Y-105000000D03*
D20*
X175750000Y-102450000D03*
X175750000Y-110050000D03*
%TD*%
D15*
%TO.C,J2*%
X123150000Y-113750000D03*
X123150000Y-115000000D03*
X123150000Y-116250000D03*
D16*
X120250000Y-111200000D03*
X120250000Y-118800000D03*
%TD*%
D23*
%TO.C,R2*%
X125425000Y-111000000D03*
X127075000Y-111000000D03*
%TD*%
%LPD*%
M02*
