%TF.GenerationSoftware,KiCad,Pcbnew,7.0.8*%
%TF.CreationDate,2024-03-12T18:38:59-04:00*%
%TF.ProjectId,ORgate,4f526761-7465-42e6-9b69-6361645f7063,rev?*%
%TF.SameCoordinates,Original*%
%TF.FileFunction,Legend,Bot*%
%TF.FilePolarity,Positive*%
%FSLAX46Y46*%
G04 Gerber Fmt 4.6, Leading zero omitted, Abs format (unit mm)*
G04 Created by KiCad (PCBNEW 7.0.8) date 2024-03-12 18:38:59*
%MOMM*%
%LPD*%
G01*
G04 APERTURE LIST*
%ADD10C,1.000000*%
%ADD11C,0.960000*%
%ADD12O,2.600000X2.100000*%
G04 APERTURE END LIST*
D10*
X131000000Y-115000000D02*
X127750000Y-115000000D01*
X133250000Y-96750000D02*
X136000000Y-96750000D01*
X164999998Y-105000001D02*
G75*
G03*
X142500000Y-91000000I-22301538J-10761399D01*
G01*
X133250000Y-96750000D02*
X131000000Y-95000000D01*
X127750000Y-95000000D02*
X131000000Y-95000000D01*
X168250000Y-105000000D02*
X165000000Y-105000000D01*
X118000000Y-115000000D02*
X125000000Y-115000000D01*
X142500000Y-119000002D02*
G75*
G03*
X165000000Y-105000000I198460J24761402D01*
G01*
X132000000Y-119000000D02*
X142500000Y-119000000D01*
X131000000Y-115000000D02*
X133250000Y-113250000D01*
X132000000Y-91000000D02*
X142500000Y-91000000D01*
X131999999Y-118999999D02*
G75*
G03*
X131999999Y-91000001I-13999999J13999999D01*
G01*
X133250000Y-113250000D02*
X136000000Y-113250000D01*
X124750000Y-95000000D02*
X118000000Y-95000000D01*
X178000000Y-105000000D02*
X171000000Y-105000000D01*
D11*
X144310623Y-108836680D02*
X145651576Y-108836680D01*
X145651576Y-108836680D02*
X146322052Y-108501442D01*
X146322052Y-108501442D02*
X146992528Y-107830966D01*
X146992528Y-107830966D02*
X147327766Y-106490014D01*
X147327766Y-106490014D02*
X147327766Y-104143347D01*
X147327766Y-104143347D02*
X146992528Y-102802395D01*
X146992528Y-102802395D02*
X146322052Y-102131919D01*
X146322052Y-102131919D02*
X145651576Y-101796680D01*
X145651576Y-101796680D02*
X144310623Y-101796680D01*
X144310623Y-101796680D02*
X143640147Y-102131919D01*
X143640147Y-102131919D02*
X142969671Y-102802395D01*
X142969671Y-102802395D02*
X142634433Y-104143347D01*
X142634433Y-104143347D02*
X142634433Y-106490014D01*
X142634433Y-106490014D02*
X142969671Y-107830966D01*
X142969671Y-107830966D02*
X143640147Y-108501442D01*
X143640147Y-108501442D02*
X144310623Y-108836680D01*
X154367766Y-101796680D02*
X152021099Y-105149061D01*
X150344909Y-101796680D02*
X150344909Y-108836680D01*
X150344909Y-108836680D02*
X153026814Y-108836680D01*
X153026814Y-108836680D02*
X153697290Y-108501442D01*
X153697290Y-108501442D02*
X154032528Y-108166204D01*
X154032528Y-108166204D02*
X154367766Y-107495728D01*
X154367766Y-107495728D02*
X154367766Y-106490014D01*
X154367766Y-106490014D02*
X154032528Y-105819538D01*
X154032528Y-105819538D02*
X153697290Y-105484299D01*
X153697290Y-105484299D02*
X153026814Y-105149061D01*
X153026814Y-105149061D02*
X150344909Y-105149061D01*
%LPC*%
D12*
%TO.C,D2*%
X126250000Y-115000000D03*
%TD*%
%TO.C,D3*%
X169500000Y-105000000D03*
%TD*%
%TO.C,D1*%
X126250000Y-95000000D03*
%TD*%
%LPD*%
M02*
